%TF.GenerationSoftware,KiCad,Pcbnew,9.0.7*%
%TF.CreationDate,2026-04-13T20:33:23-04:00*%
%TF.ProjectId,ESProbeScope3300,45535072-6f62-4655-9363-6f7065333330,rev?*%
%TF.SameCoordinates,Original*%
%TF.FileFunction,Drillmap*%
%TF.FilePolarity,Positive*%
%FSLAX45Y45*%
G04 Gerber Fmt 4.5, Leading zero omitted, Abs format (unit mm)*
G04 Created by KiCad (PCBNEW 9.0.7) date 2026-04-13 20:33:23*
%MOMM*%
%LPD*%
G01*
G04 APERTURE LIST*
%ADD10C,0.050000*%
%ADD11C,0.200000*%
%ADD12C,0.100000*%
G04 APERTURE END LIST*
D10*
X7000000Y-10200000D02*
X6893934Y-10093934D01*
X8100000Y-9425000D02*
X8100000Y-8100000D01*
X8100000Y-9425000D02*
X7925000Y-9600000D01*
X8450000Y-10525000D02*
G75*
G02*
X8250000Y-10525000I-100000J0D01*
G01*
X8250000Y-10525000D02*
G75*
G02*
X8450000Y-10525000I100000J0D01*
G01*
X7925000Y-9600000D02*
X7000000Y-9600000D01*
X7925000Y-10200000D02*
X7000000Y-10200000D01*
X11200000Y-9150000D02*
X11700000Y-9150000D01*
X11700000Y-10350000D01*
X11200000Y-10350000D01*
X11200000Y-9150000D01*
X21950000Y-8350000D02*
G75*
G02*
X21750000Y-8350000I-100000J0D01*
G01*
X21750000Y-8350000D02*
G75*
G02*
X21950000Y-8350000I100000J0D01*
G01*
X8100000Y-10375000D02*
X8100000Y-11700000D01*
X8100000Y-8100000D02*
X22100000Y-8100000D01*
X22100000Y-8100000D02*
X22100000Y-11700000D01*
X7925000Y-10200000D02*
X8100000Y-10375000D01*
X6893934Y-9706066D02*
X6893934Y-10093934D01*
X7000000Y-9600000D02*
X6893934Y-9706066D01*
X21950000Y-11450000D02*
G75*
G02*
X21750000Y-11450000I-100000J0D01*
G01*
X21750000Y-11450000D02*
G75*
G02*
X21950000Y-11450000I100000J0D01*
G01*
X8450000Y-9275000D02*
G75*
G02*
X8250000Y-9275000I-100000J0D01*
G01*
X8250000Y-9275000D02*
G75*
G02*
X8450000Y-9275000I100000J0D01*
G01*
X8100000Y-11700000D02*
X22100000Y-11700000D01*
D11*
D12*
X8560000Y-10875600D02*
X8590000Y-10905600D01*
X8590000Y-10875600D02*
X8560000Y-10905600D01*
X8985000Y-8210000D02*
X9015000Y-8240000D01*
X9015000Y-8210000D02*
X8985000Y-8240000D01*
X9035000Y-8460000D02*
X9065000Y-8490000D01*
X9065000Y-8460000D02*
X9035000Y-8490000D01*
X9185000Y-8210000D02*
X9215000Y-8240000D01*
X9215000Y-8210000D02*
X9185000Y-8240000D01*
X9360000Y-8460000D02*
X9390000Y-8490000D01*
X9390000Y-8460000D02*
X9360000Y-8490000D01*
X9385000Y-8210000D02*
X9415000Y-8240000D01*
X9415000Y-8210000D02*
X9385000Y-8240000D01*
X9475000Y-9605000D02*
X9505000Y-9635000D01*
X9505000Y-9605000D02*
X9475000Y-9635000D01*
X9560000Y-8460000D02*
X9590000Y-8490000D01*
X9590000Y-8460000D02*
X9560000Y-8490000D01*
X9585000Y-8210000D02*
X9615000Y-8240000D01*
X9615000Y-8210000D02*
X9585000Y-8240000D01*
X9760000Y-8460000D02*
X9790000Y-8490000D01*
X9790000Y-8460000D02*
X9760000Y-8490000D01*
X9785000Y-8210000D02*
X9815000Y-8240000D01*
X9815000Y-8210000D02*
X9785000Y-8240000D01*
X9960000Y-8460000D02*
X9990000Y-8490000D01*
X9990000Y-8460000D02*
X9960000Y-8490000D01*
X9975000Y-11155000D02*
X10005000Y-11185000D01*
X10005000Y-11155000D02*
X9975000Y-11185000D01*
X9985000Y-8210000D02*
X10015000Y-8240000D01*
X10015000Y-8210000D02*
X9985000Y-8240000D01*
X10160000Y-8460000D02*
X10190000Y-8490000D01*
X10190000Y-8460000D02*
X10160000Y-8490000D01*
X10185000Y-8210000D02*
X10215000Y-8240000D01*
X10215000Y-8210000D02*
X10185000Y-8240000D01*
X10315000Y-8855000D02*
X10345000Y-8885000D01*
X10345000Y-8855000D02*
X10315000Y-8885000D01*
X10355000Y-10505000D02*
X10385000Y-10535000D01*
X10385000Y-10505000D02*
X10355000Y-10535000D01*
X10360000Y-8460000D02*
X10390000Y-8490000D01*
X10390000Y-8460000D02*
X10360000Y-8490000D01*
X10385000Y-8210000D02*
X10415000Y-8240000D01*
X10415000Y-8210000D02*
X10385000Y-8240000D01*
X10395000Y-10665000D02*
X10425000Y-10695000D01*
X10425000Y-10665000D02*
X10395000Y-10695000D01*
X10405000Y-10145000D02*
X10435000Y-10175000D01*
X10435000Y-10145000D02*
X10405000Y-10175000D01*
X10495000Y-10775000D02*
X10525000Y-10805000D01*
X10525000Y-10775000D02*
X10495000Y-10805000D01*
X10560000Y-8460000D02*
X10590000Y-8490000D01*
X10590000Y-8460000D02*
X10560000Y-8490000D01*
X10585000Y-8210000D02*
X10615000Y-8240000D01*
X10615000Y-8210000D02*
X10585000Y-8240000D01*
X10760000Y-8460000D02*
X10790000Y-8490000D01*
X10790000Y-8460000D02*
X10760000Y-8490000D01*
X10785000Y-8210000D02*
X10815000Y-8240000D01*
X10815000Y-8210000D02*
X10785000Y-8240000D01*
X10960000Y-8460000D02*
X10990000Y-8490000D01*
X10990000Y-8460000D02*
X10960000Y-8490000D01*
X10985000Y-8210000D02*
X11015000Y-8240000D01*
X11015000Y-8210000D02*
X10985000Y-8240000D01*
X11160000Y-8460000D02*
X11190000Y-8490000D01*
X11190000Y-8460000D02*
X11160000Y-8490000D01*
X11185000Y-8210000D02*
X11215000Y-8240000D01*
X11215000Y-8210000D02*
X11185000Y-8240000D01*
X11195000Y-9005000D02*
X11225000Y-9035000D01*
X11225000Y-9005000D02*
X11195000Y-9035000D01*
X11360000Y-8460000D02*
X11390000Y-8490000D01*
X11390000Y-8460000D02*
X11360000Y-8490000D01*
X11385000Y-8210000D02*
X11415000Y-8240000D01*
X11415000Y-8210000D02*
X11385000Y-8240000D01*
X11535000Y-8465000D02*
X11565000Y-8495000D01*
X11565000Y-8465000D02*
X11535000Y-8495000D01*
X11535000Y-8685000D02*
X11565000Y-8715000D01*
X11565000Y-8685000D02*
X11535000Y-8715000D01*
X11565000Y-11365000D02*
X11595000Y-11395000D01*
X11595000Y-11365000D02*
X11565000Y-11395000D01*
X11585000Y-8210000D02*
X11615000Y-8240000D01*
X11615000Y-8210000D02*
X11585000Y-8240000D01*
X11635000Y-8835000D02*
X11665000Y-8865000D01*
X11665000Y-8835000D02*
X11635000Y-8865000D01*
X11655000Y-11365000D02*
X11685000Y-11395000D01*
X11685000Y-11365000D02*
X11655000Y-11395000D01*
X11755000Y-11025000D02*
X11785000Y-11055000D01*
X11785000Y-11025000D02*
X11755000Y-11055000D01*
X11775000Y-10765000D02*
X11805000Y-10795000D01*
X11805000Y-10765000D02*
X11775000Y-10795000D01*
X11785000Y-8285000D02*
X11815000Y-8315000D01*
X11815000Y-8285000D02*
X11785000Y-8315000D01*
X11835000Y-8435000D02*
X11865000Y-8465000D01*
X11865000Y-8435000D02*
X11835000Y-8465000D01*
X11835000Y-8635000D02*
X11865000Y-8665000D01*
X11865000Y-8635000D02*
X11835000Y-8665000D01*
X11965000Y-10765000D02*
X11995000Y-10795000D01*
X11995000Y-10765000D02*
X11965000Y-10795000D01*
X11985000Y-8785000D02*
X12015000Y-8815000D01*
X12015000Y-8785000D02*
X11985000Y-8815000D01*
X12065000Y-10085000D02*
X12095000Y-10115000D01*
X12095000Y-10085000D02*
X12065000Y-10115000D01*
X12085000Y-8985000D02*
X12115000Y-9015000D01*
X12115000Y-8985000D02*
X12085000Y-9015000D01*
X12125000Y-10705000D02*
X12155000Y-10735000D01*
X12155000Y-10705000D02*
X12125000Y-10735000D01*
X12125000Y-10855000D02*
X12155000Y-10885000D01*
X12155000Y-10855000D02*
X12125000Y-10885000D01*
X12125000Y-11040000D02*
X12155000Y-11070000D01*
X12155000Y-11040000D02*
X12125000Y-11070000D01*
X12145000Y-10125000D02*
X12175000Y-10155000D01*
X12175000Y-10125000D02*
X12145000Y-10155000D01*
X12225000Y-10155000D02*
X12255000Y-10185000D01*
X12255000Y-10155000D02*
X12225000Y-10185000D01*
X12275000Y-9665000D02*
X12305000Y-9695000D01*
X12305000Y-9665000D02*
X12275000Y-9695000D01*
X12285000Y-9795000D02*
X12315000Y-9825000D01*
X12315000Y-9795000D02*
X12285000Y-9825000D01*
X12375000Y-10595000D02*
X12405000Y-10625000D01*
X12405000Y-10595000D02*
X12375000Y-10625000D01*
X12375000Y-10725000D02*
X12405000Y-10755000D01*
X12405000Y-10725000D02*
X12375000Y-10755000D01*
X12380000Y-10445000D02*
X12410000Y-10475000D01*
X12410000Y-10445000D02*
X12380000Y-10475000D01*
X12385000Y-9852500D02*
X12415000Y-9882500D01*
X12415000Y-9852500D02*
X12385000Y-9882500D01*
X12405000Y-9679640D02*
X12435000Y-9709640D01*
X12435000Y-9679640D02*
X12405000Y-9709640D01*
X12515000Y-10355000D02*
X12545000Y-10385000D01*
X12545000Y-10355000D02*
X12515000Y-10385000D01*
X12537500Y-9427500D02*
X12567500Y-9457500D01*
X12567500Y-9427500D02*
X12537500Y-9457500D01*
X12545000Y-11285000D02*
X12575000Y-11315000D01*
X12575000Y-11285000D02*
X12545000Y-11315000D01*
X12585000Y-10260000D02*
X12615000Y-10290000D01*
X12615000Y-10260000D02*
X12585000Y-10290000D01*
X12595000Y-10415000D02*
X12625000Y-10445000D01*
X12625000Y-10415000D02*
X12595000Y-10445000D01*
X12670200Y-10417470D02*
X12700200Y-10447470D01*
X12700200Y-10417470D02*
X12670200Y-10447470D01*
X12751155Y-10408436D02*
X12781155Y-10438436D01*
X12781155Y-10408436D02*
X12751155Y-10438436D01*
X12811200Y-11221200D02*
X12841200Y-11251200D01*
X12841200Y-11221200D02*
X12811200Y-11251200D01*
X12815000Y-11335000D02*
X12845000Y-11365000D01*
X12845000Y-11335000D02*
X12815000Y-11365000D01*
X12857860Y-10315000D02*
X12887860Y-10345000D01*
X12887860Y-10315000D02*
X12857860Y-10345000D01*
X12919498Y-10358149D02*
X12949498Y-10388149D01*
X12949498Y-10358149D02*
X12919498Y-10388149D01*
X12965000Y-9525000D02*
X12995000Y-9555000D01*
X12995000Y-9525000D02*
X12965000Y-9555000D01*
X12967860Y-10294032D02*
X12997860Y-10324032D01*
X12997860Y-10294032D02*
X12967860Y-10324032D01*
X13582816Y-9555676D02*
X13612816Y-9585676D01*
X13612816Y-9555676D02*
X13582816Y-9585676D01*
X13632448Y-9654062D02*
X13662448Y-9684062D01*
X13662448Y-9654062D02*
X13632448Y-9684062D01*
X13632448Y-9729302D02*
X13662448Y-9759302D01*
X13662448Y-9729302D02*
X13632448Y-9759302D01*
X13645000Y-9290000D02*
X13675000Y-9320000D01*
X13675000Y-9290000D02*
X13645000Y-9320000D01*
X13685308Y-9785230D02*
X13715308Y-9815230D01*
X13715308Y-9785230D02*
X13685308Y-9815230D01*
X13700000Y-9860000D02*
X13730000Y-9890000D01*
X13730000Y-9860000D02*
X13700000Y-9890000D01*
X13890000Y-9785000D02*
X13920000Y-9815000D01*
X13920000Y-9785000D02*
X13890000Y-9815000D01*
X14175000Y-9835000D02*
X14205000Y-9865000D01*
X14205000Y-9835000D02*
X14175000Y-9865000D01*
X14185000Y-9035000D02*
X14215000Y-9065000D01*
X14215000Y-9035000D02*
X14185000Y-9065000D01*
X14395000Y-11162140D02*
X14425000Y-11192140D01*
X14425000Y-11162140D02*
X14395000Y-11192140D01*
X14492622Y-11032622D02*
X14522622Y-11062622D01*
X14522622Y-11032622D02*
X14492622Y-11062622D01*
X14635000Y-10765000D02*
X14665000Y-10795000D01*
X14665000Y-10765000D02*
X14635000Y-10795000D01*
X14655000Y-9405000D02*
X14685000Y-9435000D01*
X14685000Y-9405000D02*
X14655000Y-9435000D01*
X14657000Y-9655000D02*
X14687000Y-9685000D01*
X14687000Y-9655000D02*
X14657000Y-9685000D01*
X15535000Y-11415000D02*
X15565000Y-11445000D01*
X15565000Y-11415000D02*
X15535000Y-11445000D01*
X15545000Y-10602140D02*
X15575000Y-10632140D01*
X15575000Y-10602140D02*
X15545000Y-10632140D01*
X15765000Y-10975000D02*
X15795000Y-11005000D01*
X15795000Y-10975000D02*
X15765000Y-11005000D01*
X16530000Y-10600000D02*
X16560000Y-10630000D01*
X16560000Y-10600000D02*
X16530000Y-10630000D01*
X16905000Y-10655000D02*
X16935000Y-10685000D01*
X16935000Y-10655000D02*
X16905000Y-10685000D01*
X17605000Y-11235000D02*
X17635000Y-11265000D01*
X17635000Y-11235000D02*
X17605000Y-11265000D01*
X18251250Y-10780000D02*
X18281250Y-10810000D01*
X18281250Y-10780000D02*
X18251250Y-10810000D01*
X18365000Y-10555000D02*
X18395000Y-10585000D01*
X18395000Y-10555000D02*
X18365000Y-10585000D01*
X18845000Y-8875000D02*
X18875000Y-8905000D01*
X18875000Y-8875000D02*
X18845000Y-8905000D01*
X18865000Y-9255000D02*
X18895000Y-9285000D01*
X18895000Y-9255000D02*
X18865000Y-9285000D01*
X19994420Y-11515580D02*
X20024420Y-11545580D01*
X20024420Y-11515580D02*
X19994420Y-11545580D01*
X20710000Y-8950000D02*
X20740000Y-8980000D01*
X20740000Y-8950000D02*
X20710000Y-8980000D01*
X21280000Y-8950000D02*
X21310000Y-8980000D01*
X21310000Y-8950000D02*
X21280000Y-8980000D01*
X21325000Y-10895000D02*
X21355000Y-10925000D01*
X21355000Y-10895000D02*
X21325000Y-10925000D01*
X18722500Y-11275000D02*
G75*
G02*
X18672500Y-11275000I-25000J0D01*
G01*
X18672500Y-11275000D02*
G75*
G02*
X18722500Y-11275000I25000J0D01*
G01*
X18847500Y-11275000D02*
G75*
G02*
X18797500Y-11275000I-25000J0D01*
G01*
X18797500Y-11275000D02*
G75*
G02*
X18847500Y-11275000I25000J0D01*
G01*
X7101000Y-9804000D02*
X7101000Y-9869000D01*
X7068500Y-9836500D02*
X7133500Y-9836500D01*
X7101000Y-9931000D02*
X7101000Y-9996000D01*
X7068500Y-9963500D02*
X7133500Y-9963500D01*
X7228000Y-9804000D02*
X7228000Y-9869000D01*
X7195500Y-9836500D02*
X7260500Y-9836500D01*
X7228000Y-9931000D02*
X7228000Y-9996000D01*
X7195500Y-9963500D02*
X7260500Y-9963500D01*
X7355000Y-9804000D02*
X7355000Y-9869000D01*
X7322500Y-9836500D02*
X7387500Y-9836500D01*
X7355000Y-9931000D02*
X7355000Y-9996000D01*
X7322500Y-9963500D02*
X7387500Y-9963500D01*
X8923285Y-11353284D02*
X8923285Y-11296715D01*
X8866716Y-11296715D01*
X8866716Y-11353284D01*
X8923285Y-11353284D01*
X8923285Y-11553284D02*
X8923285Y-11496715D01*
X8866716Y-11496715D01*
X8866716Y-11553284D01*
X8923285Y-11553284D01*
X9123285Y-11353284D02*
X9123285Y-11296715D01*
X9066716Y-11296715D01*
X9066716Y-11353284D01*
X9123285Y-11353284D01*
X9123285Y-11553284D02*
X9123285Y-11496715D01*
X9066716Y-11496715D01*
X9066716Y-11553284D01*
X9123285Y-11553284D01*
X19508285Y-11228284D02*
X19508285Y-11171716D01*
X19451716Y-11171716D01*
X19451716Y-11228284D01*
X19508285Y-11228284D01*
X19708285Y-11228284D02*
X19708285Y-11171716D01*
X19651716Y-11171716D01*
X19651716Y-11228284D01*
X19708285Y-11228284D01*
D11*
X7152211Y-12013984D02*
X7152211Y-11813984D01*
X7152211Y-11813984D02*
X7199830Y-11813984D01*
X7199830Y-11813984D02*
X7228401Y-11823508D01*
X7228401Y-11823508D02*
X7247449Y-11842555D01*
X7247449Y-11842555D02*
X7256973Y-11861603D01*
X7256973Y-11861603D02*
X7266496Y-11899698D01*
X7266496Y-11899698D02*
X7266496Y-11928269D01*
X7266496Y-11928269D02*
X7256973Y-11966365D01*
X7256973Y-11966365D02*
X7247449Y-11985412D01*
X7247449Y-11985412D02*
X7228401Y-12004460D01*
X7228401Y-12004460D02*
X7199830Y-12013984D01*
X7199830Y-12013984D02*
X7152211Y-12013984D01*
X7352211Y-12013984D02*
X7352211Y-11880650D01*
X7352211Y-11918746D02*
X7361735Y-11899698D01*
X7361735Y-11899698D02*
X7371258Y-11890174D01*
X7371258Y-11890174D02*
X7390306Y-11880650D01*
X7390306Y-11880650D02*
X7409354Y-11880650D01*
X7476020Y-12013984D02*
X7476020Y-11880650D01*
X7476020Y-11813984D02*
X7466496Y-11823508D01*
X7466496Y-11823508D02*
X7476020Y-11833031D01*
X7476020Y-11833031D02*
X7485544Y-11823508D01*
X7485544Y-11823508D02*
X7476020Y-11813984D01*
X7476020Y-11813984D02*
X7476020Y-11833031D01*
X7599830Y-12013984D02*
X7580782Y-12004460D01*
X7580782Y-12004460D02*
X7571258Y-11985412D01*
X7571258Y-11985412D02*
X7571258Y-11813984D01*
X7704592Y-12013984D02*
X7685544Y-12004460D01*
X7685544Y-12004460D02*
X7676020Y-11985412D01*
X7676020Y-11985412D02*
X7676020Y-11813984D01*
X7933163Y-12013984D02*
X7933163Y-11813984D01*
X7933163Y-11813984D02*
X7999830Y-11956841D01*
X7999830Y-11956841D02*
X8066496Y-11813984D01*
X8066496Y-11813984D02*
X8066496Y-12013984D01*
X8247449Y-12013984D02*
X8247449Y-11909222D01*
X8247449Y-11909222D02*
X8237925Y-11890174D01*
X8237925Y-11890174D02*
X8218877Y-11880650D01*
X8218877Y-11880650D02*
X8180782Y-11880650D01*
X8180782Y-11880650D02*
X8161735Y-11890174D01*
X8247449Y-12004460D02*
X8228401Y-12013984D01*
X8228401Y-12013984D02*
X8180782Y-12013984D01*
X8180782Y-12013984D02*
X8161735Y-12004460D01*
X8161735Y-12004460D02*
X8152211Y-11985412D01*
X8152211Y-11985412D02*
X8152211Y-11966365D01*
X8152211Y-11966365D02*
X8161735Y-11947317D01*
X8161735Y-11947317D02*
X8180782Y-11937793D01*
X8180782Y-11937793D02*
X8228401Y-11937793D01*
X8228401Y-11937793D02*
X8247449Y-11928269D01*
X8342687Y-11880650D02*
X8342687Y-12080650D01*
X8342687Y-11890174D02*
X8361735Y-11880650D01*
X8361735Y-11880650D02*
X8399830Y-11880650D01*
X8399830Y-11880650D02*
X8418878Y-11890174D01*
X8418878Y-11890174D02*
X8428401Y-11899698D01*
X8428401Y-11899698D02*
X8437925Y-11918746D01*
X8437925Y-11918746D02*
X8437925Y-11975888D01*
X8437925Y-11975888D02*
X8428401Y-11994936D01*
X8428401Y-11994936D02*
X8418878Y-12004460D01*
X8418878Y-12004460D02*
X8399830Y-12013984D01*
X8399830Y-12013984D02*
X8361735Y-12013984D01*
X8361735Y-12013984D02*
X8342687Y-12004460D01*
X8523639Y-11994936D02*
X8533163Y-12004460D01*
X8533163Y-12004460D02*
X8523639Y-12013984D01*
X8523639Y-12013984D02*
X8514116Y-12004460D01*
X8514116Y-12004460D02*
X8523639Y-11994936D01*
X8523639Y-11994936D02*
X8523639Y-12013984D01*
X8523639Y-11890174D02*
X8533163Y-11899698D01*
X8533163Y-11899698D02*
X8523639Y-11909222D01*
X8523639Y-11909222D02*
X8514116Y-11899698D01*
X8514116Y-11899698D02*
X8523639Y-11890174D01*
X8523639Y-11890174D02*
X8523639Y-11909222D01*
D12*
X6861434Y-12327500D02*
X6891434Y-12357500D01*
X6891434Y-12327500D02*
X6861434Y-12357500D01*
D11*
X7190306Y-12233984D02*
X7209354Y-12233984D01*
X7209354Y-12233984D02*
X7228401Y-12243508D01*
X7228401Y-12243508D02*
X7237925Y-12253031D01*
X7237925Y-12253031D02*
X7247449Y-12272079D01*
X7247449Y-12272079D02*
X7256973Y-12310174D01*
X7256973Y-12310174D02*
X7256973Y-12357793D01*
X7256973Y-12357793D02*
X7247449Y-12395888D01*
X7247449Y-12395888D02*
X7237925Y-12414936D01*
X7237925Y-12414936D02*
X7228401Y-12424460D01*
X7228401Y-12424460D02*
X7209354Y-12433984D01*
X7209354Y-12433984D02*
X7190306Y-12433984D01*
X7190306Y-12433984D02*
X7171258Y-12424460D01*
X7171258Y-12424460D02*
X7161735Y-12414936D01*
X7161735Y-12414936D02*
X7152211Y-12395888D01*
X7152211Y-12395888D02*
X7142687Y-12357793D01*
X7142687Y-12357793D02*
X7142687Y-12310174D01*
X7142687Y-12310174D02*
X7152211Y-12272079D01*
X7152211Y-12272079D02*
X7161735Y-12253031D01*
X7161735Y-12253031D02*
X7171258Y-12243508D01*
X7171258Y-12243508D02*
X7190306Y-12233984D01*
X7342687Y-12414936D02*
X7352211Y-12424460D01*
X7352211Y-12424460D02*
X7342687Y-12433984D01*
X7342687Y-12433984D02*
X7333163Y-12424460D01*
X7333163Y-12424460D02*
X7342687Y-12414936D01*
X7342687Y-12414936D02*
X7342687Y-12433984D01*
X7418877Y-12233984D02*
X7542687Y-12233984D01*
X7542687Y-12233984D02*
X7476020Y-12310174D01*
X7476020Y-12310174D02*
X7504592Y-12310174D01*
X7504592Y-12310174D02*
X7523639Y-12319698D01*
X7523639Y-12319698D02*
X7533163Y-12329222D01*
X7533163Y-12329222D02*
X7542687Y-12348269D01*
X7542687Y-12348269D02*
X7542687Y-12395888D01*
X7542687Y-12395888D02*
X7533163Y-12414936D01*
X7533163Y-12414936D02*
X7523639Y-12424460D01*
X7523639Y-12424460D02*
X7504592Y-12433984D01*
X7504592Y-12433984D02*
X7447449Y-12433984D01*
X7447449Y-12433984D02*
X7428401Y-12424460D01*
X7428401Y-12424460D02*
X7418877Y-12414936D01*
X7666496Y-12233984D02*
X7685544Y-12233984D01*
X7685544Y-12233984D02*
X7704592Y-12243508D01*
X7704592Y-12243508D02*
X7714116Y-12253031D01*
X7714116Y-12253031D02*
X7723639Y-12272079D01*
X7723639Y-12272079D02*
X7733163Y-12310174D01*
X7733163Y-12310174D02*
X7733163Y-12357793D01*
X7733163Y-12357793D02*
X7723639Y-12395888D01*
X7723639Y-12395888D02*
X7714116Y-12414936D01*
X7714116Y-12414936D02*
X7704592Y-12424460D01*
X7704592Y-12424460D02*
X7685544Y-12433984D01*
X7685544Y-12433984D02*
X7666496Y-12433984D01*
X7666496Y-12433984D02*
X7647449Y-12424460D01*
X7647449Y-12424460D02*
X7637925Y-12414936D01*
X7637925Y-12414936D02*
X7628401Y-12395888D01*
X7628401Y-12395888D02*
X7618877Y-12357793D01*
X7618877Y-12357793D02*
X7618877Y-12310174D01*
X7618877Y-12310174D02*
X7628401Y-12272079D01*
X7628401Y-12272079D02*
X7637925Y-12253031D01*
X7637925Y-12253031D02*
X7647449Y-12243508D01*
X7647449Y-12243508D02*
X7666496Y-12233984D01*
X7856973Y-12233984D02*
X7876020Y-12233984D01*
X7876020Y-12233984D02*
X7895068Y-12243508D01*
X7895068Y-12243508D02*
X7904592Y-12253031D01*
X7904592Y-12253031D02*
X7914116Y-12272079D01*
X7914116Y-12272079D02*
X7923639Y-12310174D01*
X7923639Y-12310174D02*
X7923639Y-12357793D01*
X7923639Y-12357793D02*
X7914116Y-12395888D01*
X7914116Y-12395888D02*
X7904592Y-12414936D01*
X7904592Y-12414936D02*
X7895068Y-12424460D01*
X7895068Y-12424460D02*
X7876020Y-12433984D01*
X7876020Y-12433984D02*
X7856973Y-12433984D01*
X7856973Y-12433984D02*
X7837925Y-12424460D01*
X7837925Y-12424460D02*
X7828401Y-12414936D01*
X7828401Y-12414936D02*
X7818877Y-12395888D01*
X7818877Y-12395888D02*
X7809354Y-12357793D01*
X7809354Y-12357793D02*
X7809354Y-12310174D01*
X7809354Y-12310174D02*
X7818877Y-12272079D01*
X7818877Y-12272079D02*
X7828401Y-12253031D01*
X7828401Y-12253031D02*
X7837925Y-12243508D01*
X7837925Y-12243508D02*
X7856973Y-12233984D01*
X8009354Y-12433984D02*
X8009354Y-12300650D01*
X8009354Y-12319698D02*
X8018877Y-12310174D01*
X8018877Y-12310174D02*
X8037925Y-12300650D01*
X8037925Y-12300650D02*
X8066497Y-12300650D01*
X8066497Y-12300650D02*
X8085544Y-12310174D01*
X8085544Y-12310174D02*
X8095068Y-12329222D01*
X8095068Y-12329222D02*
X8095068Y-12433984D01*
X8095068Y-12329222D02*
X8104592Y-12310174D01*
X8104592Y-12310174D02*
X8123639Y-12300650D01*
X8123639Y-12300650D02*
X8152211Y-12300650D01*
X8152211Y-12300650D02*
X8171258Y-12310174D01*
X8171258Y-12310174D02*
X8180782Y-12329222D01*
X8180782Y-12329222D02*
X8180782Y-12433984D01*
X8276020Y-12433984D02*
X8276020Y-12300650D01*
X8276020Y-12319698D02*
X8285544Y-12310174D01*
X8285544Y-12310174D02*
X8304592Y-12300650D01*
X8304592Y-12300650D02*
X8333163Y-12300650D01*
X8333163Y-12300650D02*
X8352211Y-12310174D01*
X8352211Y-12310174D02*
X8361735Y-12329222D01*
X8361735Y-12329222D02*
X8361735Y-12433984D01*
X8361735Y-12329222D02*
X8371258Y-12310174D01*
X8371258Y-12310174D02*
X8390306Y-12300650D01*
X8390306Y-12300650D02*
X8418878Y-12300650D01*
X8418878Y-12300650D02*
X8437925Y-12310174D01*
X8437925Y-12310174D02*
X8447449Y-12329222D01*
X8447449Y-12329222D02*
X8447449Y-12433984D01*
X8837925Y-12224460D02*
X8666497Y-12481603D01*
X9095068Y-12233984D02*
X9114116Y-12233984D01*
X9114116Y-12233984D02*
X9133163Y-12243508D01*
X9133163Y-12243508D02*
X9142687Y-12253031D01*
X9142687Y-12253031D02*
X9152211Y-12272079D01*
X9152211Y-12272079D02*
X9161735Y-12310174D01*
X9161735Y-12310174D02*
X9161735Y-12357793D01*
X9161735Y-12357793D02*
X9152211Y-12395888D01*
X9152211Y-12395888D02*
X9142687Y-12414936D01*
X9142687Y-12414936D02*
X9133163Y-12424460D01*
X9133163Y-12424460D02*
X9114116Y-12433984D01*
X9114116Y-12433984D02*
X9095068Y-12433984D01*
X9095068Y-12433984D02*
X9076021Y-12424460D01*
X9076021Y-12424460D02*
X9066497Y-12414936D01*
X9066497Y-12414936D02*
X9056973Y-12395888D01*
X9056973Y-12395888D02*
X9047449Y-12357793D01*
X9047449Y-12357793D02*
X9047449Y-12310174D01*
X9047449Y-12310174D02*
X9056973Y-12272079D01*
X9056973Y-12272079D02*
X9066497Y-12253031D01*
X9066497Y-12253031D02*
X9076021Y-12243508D01*
X9076021Y-12243508D02*
X9095068Y-12233984D01*
X9247449Y-12414936D02*
X9256973Y-12424460D01*
X9256973Y-12424460D02*
X9247449Y-12433984D01*
X9247449Y-12433984D02*
X9237925Y-12424460D01*
X9237925Y-12424460D02*
X9247449Y-12414936D01*
X9247449Y-12414936D02*
X9247449Y-12433984D01*
X9380782Y-12233984D02*
X9399830Y-12233984D01*
X9399830Y-12233984D02*
X9418878Y-12243508D01*
X9418878Y-12243508D02*
X9428402Y-12253031D01*
X9428402Y-12253031D02*
X9437925Y-12272079D01*
X9437925Y-12272079D02*
X9447449Y-12310174D01*
X9447449Y-12310174D02*
X9447449Y-12357793D01*
X9447449Y-12357793D02*
X9437925Y-12395888D01*
X9437925Y-12395888D02*
X9428402Y-12414936D01*
X9428402Y-12414936D02*
X9418878Y-12424460D01*
X9418878Y-12424460D02*
X9399830Y-12433984D01*
X9399830Y-12433984D02*
X9380782Y-12433984D01*
X9380782Y-12433984D02*
X9361735Y-12424460D01*
X9361735Y-12424460D02*
X9352211Y-12414936D01*
X9352211Y-12414936D02*
X9342687Y-12395888D01*
X9342687Y-12395888D02*
X9333163Y-12357793D01*
X9333163Y-12357793D02*
X9333163Y-12310174D01*
X9333163Y-12310174D02*
X9342687Y-12272079D01*
X9342687Y-12272079D02*
X9352211Y-12253031D01*
X9352211Y-12253031D02*
X9361735Y-12243508D01*
X9361735Y-12243508D02*
X9380782Y-12233984D01*
X9637925Y-12433984D02*
X9523640Y-12433984D01*
X9580782Y-12433984D02*
X9580782Y-12233984D01*
X9580782Y-12233984D02*
X9561735Y-12262555D01*
X9561735Y-12262555D02*
X9542687Y-12281603D01*
X9542687Y-12281603D02*
X9523640Y-12291127D01*
X9828402Y-12433984D02*
X9714116Y-12433984D01*
X9771259Y-12433984D02*
X9771259Y-12233984D01*
X9771259Y-12233984D02*
X9752211Y-12262555D01*
X9752211Y-12262555D02*
X9733163Y-12281603D01*
X9733163Y-12281603D02*
X9714116Y-12291127D01*
X9942687Y-12319698D02*
X9923640Y-12310174D01*
X9923640Y-12310174D02*
X9914116Y-12300650D01*
X9914116Y-12300650D02*
X9904592Y-12281603D01*
X9904592Y-12281603D02*
X9904592Y-12272079D01*
X9904592Y-12272079D02*
X9914116Y-12253031D01*
X9914116Y-12253031D02*
X9923640Y-12243508D01*
X9923640Y-12243508D02*
X9942687Y-12233984D01*
X9942687Y-12233984D02*
X9980783Y-12233984D01*
X9980783Y-12233984D02*
X9999830Y-12243508D01*
X9999830Y-12243508D02*
X10009354Y-12253031D01*
X10009354Y-12253031D02*
X10018878Y-12272079D01*
X10018878Y-12272079D02*
X10018878Y-12281603D01*
X10018878Y-12281603D02*
X10009354Y-12300650D01*
X10009354Y-12300650D02*
X9999830Y-12310174D01*
X9999830Y-12310174D02*
X9980783Y-12319698D01*
X9980783Y-12319698D02*
X9942687Y-12319698D01*
X9942687Y-12319698D02*
X9923640Y-12329222D01*
X9923640Y-12329222D02*
X9914116Y-12338746D01*
X9914116Y-12338746D02*
X9904592Y-12357793D01*
X9904592Y-12357793D02*
X9904592Y-12395888D01*
X9904592Y-12395888D02*
X9914116Y-12414936D01*
X9914116Y-12414936D02*
X9923640Y-12424460D01*
X9923640Y-12424460D02*
X9942687Y-12433984D01*
X9942687Y-12433984D02*
X9980783Y-12433984D01*
X9980783Y-12433984D02*
X9999830Y-12424460D01*
X9999830Y-12424460D02*
X10009354Y-12414936D01*
X10009354Y-12414936D02*
X10018878Y-12395888D01*
X10018878Y-12395888D02*
X10018878Y-12357793D01*
X10018878Y-12357793D02*
X10009354Y-12338746D01*
X10009354Y-12338746D02*
X9999830Y-12329222D01*
X9999830Y-12329222D02*
X9980783Y-12319698D01*
X10095068Y-12233984D02*
X10095068Y-12272079D01*
X10171259Y-12233984D02*
X10171259Y-12272079D01*
X10466497Y-12510174D02*
X10456973Y-12500650D01*
X10456973Y-12500650D02*
X10437925Y-12472079D01*
X10437925Y-12472079D02*
X10428402Y-12453031D01*
X10428402Y-12453031D02*
X10418878Y-12424460D01*
X10418878Y-12424460D02*
X10409354Y-12376841D01*
X10409354Y-12376841D02*
X10409354Y-12338746D01*
X10409354Y-12338746D02*
X10418878Y-12291127D01*
X10418878Y-12291127D02*
X10428402Y-12262555D01*
X10428402Y-12262555D02*
X10437925Y-12243508D01*
X10437925Y-12243508D02*
X10456973Y-12214936D01*
X10456973Y-12214936D02*
X10466497Y-12205412D01*
X10647449Y-12433984D02*
X10533164Y-12433984D01*
X10590306Y-12433984D02*
X10590306Y-12233984D01*
X10590306Y-12233984D02*
X10571259Y-12262555D01*
X10571259Y-12262555D02*
X10552211Y-12281603D01*
X10552211Y-12281603D02*
X10533164Y-12291127D01*
X10771259Y-12233984D02*
X10790306Y-12233984D01*
X10790306Y-12233984D02*
X10809354Y-12243508D01*
X10809354Y-12243508D02*
X10818878Y-12253031D01*
X10818878Y-12253031D02*
X10828402Y-12272079D01*
X10828402Y-12272079D02*
X10837925Y-12310174D01*
X10837925Y-12310174D02*
X10837925Y-12357793D01*
X10837925Y-12357793D02*
X10828402Y-12395888D01*
X10828402Y-12395888D02*
X10818878Y-12414936D01*
X10818878Y-12414936D02*
X10809354Y-12424460D01*
X10809354Y-12424460D02*
X10790306Y-12433984D01*
X10790306Y-12433984D02*
X10771259Y-12433984D01*
X10771259Y-12433984D02*
X10752211Y-12424460D01*
X10752211Y-12424460D02*
X10742687Y-12414936D01*
X10742687Y-12414936D02*
X10733164Y-12395888D01*
X10733164Y-12395888D02*
X10723640Y-12357793D01*
X10723640Y-12357793D02*
X10723640Y-12310174D01*
X10723640Y-12310174D02*
X10733164Y-12272079D01*
X10733164Y-12272079D02*
X10742687Y-12253031D01*
X10742687Y-12253031D02*
X10752211Y-12243508D01*
X10752211Y-12243508D02*
X10771259Y-12233984D01*
X10914116Y-12253031D02*
X10923640Y-12243508D01*
X10923640Y-12243508D02*
X10942687Y-12233984D01*
X10942687Y-12233984D02*
X10990306Y-12233984D01*
X10990306Y-12233984D02*
X11009354Y-12243508D01*
X11009354Y-12243508D02*
X11018878Y-12253031D01*
X11018878Y-12253031D02*
X11028402Y-12272079D01*
X11028402Y-12272079D02*
X11028402Y-12291127D01*
X11028402Y-12291127D02*
X11018878Y-12319698D01*
X11018878Y-12319698D02*
X10904592Y-12433984D01*
X10904592Y-12433984D02*
X11028402Y-12433984D01*
X11266497Y-12433984D02*
X11266497Y-12233984D01*
X11352211Y-12433984D02*
X11352211Y-12329222D01*
X11352211Y-12329222D02*
X11342687Y-12310174D01*
X11342687Y-12310174D02*
X11323640Y-12300650D01*
X11323640Y-12300650D02*
X11295068Y-12300650D01*
X11295068Y-12300650D02*
X11276021Y-12310174D01*
X11276021Y-12310174D02*
X11266497Y-12319698D01*
X11476021Y-12433984D02*
X11456973Y-12424460D01*
X11456973Y-12424460D02*
X11447449Y-12414936D01*
X11447449Y-12414936D02*
X11437925Y-12395888D01*
X11437925Y-12395888D02*
X11437925Y-12338746D01*
X11437925Y-12338746D02*
X11447449Y-12319698D01*
X11447449Y-12319698D02*
X11456973Y-12310174D01*
X11456973Y-12310174D02*
X11476021Y-12300650D01*
X11476021Y-12300650D02*
X11504592Y-12300650D01*
X11504592Y-12300650D02*
X11523640Y-12310174D01*
X11523640Y-12310174D02*
X11533164Y-12319698D01*
X11533164Y-12319698D02*
X11542687Y-12338746D01*
X11542687Y-12338746D02*
X11542687Y-12395888D01*
X11542687Y-12395888D02*
X11533164Y-12414936D01*
X11533164Y-12414936D02*
X11523640Y-12424460D01*
X11523640Y-12424460D02*
X11504592Y-12433984D01*
X11504592Y-12433984D02*
X11476021Y-12433984D01*
X11656973Y-12433984D02*
X11637925Y-12424460D01*
X11637925Y-12424460D02*
X11628402Y-12405412D01*
X11628402Y-12405412D02*
X11628402Y-12233984D01*
X11809354Y-12424460D02*
X11790306Y-12433984D01*
X11790306Y-12433984D02*
X11752211Y-12433984D01*
X11752211Y-12433984D02*
X11733164Y-12424460D01*
X11733164Y-12424460D02*
X11723640Y-12405412D01*
X11723640Y-12405412D02*
X11723640Y-12329222D01*
X11723640Y-12329222D02*
X11733164Y-12310174D01*
X11733164Y-12310174D02*
X11752211Y-12300650D01*
X11752211Y-12300650D02*
X11790306Y-12300650D01*
X11790306Y-12300650D02*
X11809354Y-12310174D01*
X11809354Y-12310174D02*
X11818878Y-12329222D01*
X11818878Y-12329222D02*
X11818878Y-12348269D01*
X11818878Y-12348269D02*
X11723640Y-12367317D01*
X11895068Y-12424460D02*
X11914116Y-12433984D01*
X11914116Y-12433984D02*
X11952211Y-12433984D01*
X11952211Y-12433984D02*
X11971259Y-12424460D01*
X11971259Y-12424460D02*
X11980783Y-12405412D01*
X11980783Y-12405412D02*
X11980783Y-12395888D01*
X11980783Y-12395888D02*
X11971259Y-12376841D01*
X11971259Y-12376841D02*
X11952211Y-12367317D01*
X11952211Y-12367317D02*
X11923640Y-12367317D01*
X11923640Y-12367317D02*
X11904592Y-12357793D01*
X11904592Y-12357793D02*
X11895068Y-12338746D01*
X11895068Y-12338746D02*
X11895068Y-12329222D01*
X11895068Y-12329222D02*
X11904592Y-12310174D01*
X11904592Y-12310174D02*
X11923640Y-12300650D01*
X11923640Y-12300650D02*
X11952211Y-12300650D01*
X11952211Y-12300650D02*
X11971259Y-12310174D01*
X12047449Y-12510174D02*
X12056973Y-12500650D01*
X12056973Y-12500650D02*
X12076021Y-12472079D01*
X12076021Y-12472079D02*
X12085545Y-12453031D01*
X12085545Y-12453031D02*
X12095068Y-12424460D01*
X12095068Y-12424460D02*
X12104592Y-12376841D01*
X12104592Y-12376841D02*
X12104592Y-12338746D01*
X12104592Y-12338746D02*
X12095068Y-12291127D01*
X12095068Y-12291127D02*
X12085545Y-12262555D01*
X12085545Y-12262555D02*
X12076021Y-12243508D01*
X12076021Y-12243508D02*
X12056973Y-12214936D01*
X12056973Y-12214936D02*
X12047449Y-12205412D01*
D12*
X6891434Y-12606500D02*
G75*
G02*
X6841434Y-12606500I-25000J0D01*
G01*
X6841434Y-12606500D02*
G75*
G02*
X6891434Y-12606500I25000J0D01*
G01*
D11*
X7190306Y-12497984D02*
X7209354Y-12497984D01*
X7209354Y-12497984D02*
X7228401Y-12507508D01*
X7228401Y-12507508D02*
X7237925Y-12517031D01*
X7237925Y-12517031D02*
X7247449Y-12536079D01*
X7247449Y-12536079D02*
X7256973Y-12574174D01*
X7256973Y-12574174D02*
X7256973Y-12621793D01*
X7256973Y-12621793D02*
X7247449Y-12659888D01*
X7247449Y-12659888D02*
X7237925Y-12678936D01*
X7237925Y-12678936D02*
X7228401Y-12688460D01*
X7228401Y-12688460D02*
X7209354Y-12697984D01*
X7209354Y-12697984D02*
X7190306Y-12697984D01*
X7190306Y-12697984D02*
X7171258Y-12688460D01*
X7171258Y-12688460D02*
X7161735Y-12678936D01*
X7161735Y-12678936D02*
X7152211Y-12659888D01*
X7152211Y-12659888D02*
X7142687Y-12621793D01*
X7142687Y-12621793D02*
X7142687Y-12574174D01*
X7142687Y-12574174D02*
X7152211Y-12536079D01*
X7152211Y-12536079D02*
X7161735Y-12517031D01*
X7161735Y-12517031D02*
X7171258Y-12507508D01*
X7171258Y-12507508D02*
X7190306Y-12497984D01*
X7342687Y-12678936D02*
X7352211Y-12688460D01*
X7352211Y-12688460D02*
X7342687Y-12697984D01*
X7342687Y-12697984D02*
X7333163Y-12688460D01*
X7333163Y-12688460D02*
X7342687Y-12678936D01*
X7342687Y-12678936D02*
X7342687Y-12697984D01*
X7533163Y-12497984D02*
X7437925Y-12497984D01*
X7437925Y-12497984D02*
X7428401Y-12593222D01*
X7428401Y-12593222D02*
X7437925Y-12583698D01*
X7437925Y-12583698D02*
X7456973Y-12574174D01*
X7456973Y-12574174D02*
X7504592Y-12574174D01*
X7504592Y-12574174D02*
X7523639Y-12583698D01*
X7523639Y-12583698D02*
X7533163Y-12593222D01*
X7533163Y-12593222D02*
X7542687Y-12612269D01*
X7542687Y-12612269D02*
X7542687Y-12659888D01*
X7542687Y-12659888D02*
X7533163Y-12678936D01*
X7533163Y-12678936D02*
X7523639Y-12688460D01*
X7523639Y-12688460D02*
X7504592Y-12697984D01*
X7504592Y-12697984D02*
X7456973Y-12697984D01*
X7456973Y-12697984D02*
X7437925Y-12688460D01*
X7437925Y-12688460D02*
X7428401Y-12678936D01*
X7666496Y-12497984D02*
X7685544Y-12497984D01*
X7685544Y-12497984D02*
X7704592Y-12507508D01*
X7704592Y-12507508D02*
X7714116Y-12517031D01*
X7714116Y-12517031D02*
X7723639Y-12536079D01*
X7723639Y-12536079D02*
X7733163Y-12574174D01*
X7733163Y-12574174D02*
X7733163Y-12621793D01*
X7733163Y-12621793D02*
X7723639Y-12659888D01*
X7723639Y-12659888D02*
X7714116Y-12678936D01*
X7714116Y-12678936D02*
X7704592Y-12688460D01*
X7704592Y-12688460D02*
X7685544Y-12697984D01*
X7685544Y-12697984D02*
X7666496Y-12697984D01*
X7666496Y-12697984D02*
X7647449Y-12688460D01*
X7647449Y-12688460D02*
X7637925Y-12678936D01*
X7637925Y-12678936D02*
X7628401Y-12659888D01*
X7628401Y-12659888D02*
X7618877Y-12621793D01*
X7618877Y-12621793D02*
X7618877Y-12574174D01*
X7618877Y-12574174D02*
X7628401Y-12536079D01*
X7628401Y-12536079D02*
X7637925Y-12517031D01*
X7637925Y-12517031D02*
X7647449Y-12507508D01*
X7647449Y-12507508D02*
X7666496Y-12497984D01*
X7856973Y-12497984D02*
X7876020Y-12497984D01*
X7876020Y-12497984D02*
X7895068Y-12507508D01*
X7895068Y-12507508D02*
X7904592Y-12517031D01*
X7904592Y-12517031D02*
X7914116Y-12536079D01*
X7914116Y-12536079D02*
X7923639Y-12574174D01*
X7923639Y-12574174D02*
X7923639Y-12621793D01*
X7923639Y-12621793D02*
X7914116Y-12659888D01*
X7914116Y-12659888D02*
X7904592Y-12678936D01*
X7904592Y-12678936D02*
X7895068Y-12688460D01*
X7895068Y-12688460D02*
X7876020Y-12697984D01*
X7876020Y-12697984D02*
X7856973Y-12697984D01*
X7856973Y-12697984D02*
X7837925Y-12688460D01*
X7837925Y-12688460D02*
X7828401Y-12678936D01*
X7828401Y-12678936D02*
X7818877Y-12659888D01*
X7818877Y-12659888D02*
X7809354Y-12621793D01*
X7809354Y-12621793D02*
X7809354Y-12574174D01*
X7809354Y-12574174D02*
X7818877Y-12536079D01*
X7818877Y-12536079D02*
X7828401Y-12517031D01*
X7828401Y-12517031D02*
X7837925Y-12507508D01*
X7837925Y-12507508D02*
X7856973Y-12497984D01*
X8009354Y-12697984D02*
X8009354Y-12564650D01*
X8009354Y-12583698D02*
X8018877Y-12574174D01*
X8018877Y-12574174D02*
X8037925Y-12564650D01*
X8037925Y-12564650D02*
X8066497Y-12564650D01*
X8066497Y-12564650D02*
X8085544Y-12574174D01*
X8085544Y-12574174D02*
X8095068Y-12593222D01*
X8095068Y-12593222D02*
X8095068Y-12697984D01*
X8095068Y-12593222D02*
X8104592Y-12574174D01*
X8104592Y-12574174D02*
X8123639Y-12564650D01*
X8123639Y-12564650D02*
X8152211Y-12564650D01*
X8152211Y-12564650D02*
X8171258Y-12574174D01*
X8171258Y-12574174D02*
X8180782Y-12593222D01*
X8180782Y-12593222D02*
X8180782Y-12697984D01*
X8276020Y-12697984D02*
X8276020Y-12564650D01*
X8276020Y-12583698D02*
X8285544Y-12574174D01*
X8285544Y-12574174D02*
X8304592Y-12564650D01*
X8304592Y-12564650D02*
X8333163Y-12564650D01*
X8333163Y-12564650D02*
X8352211Y-12574174D01*
X8352211Y-12574174D02*
X8361735Y-12593222D01*
X8361735Y-12593222D02*
X8361735Y-12697984D01*
X8361735Y-12593222D02*
X8371258Y-12574174D01*
X8371258Y-12574174D02*
X8390306Y-12564650D01*
X8390306Y-12564650D02*
X8418878Y-12564650D01*
X8418878Y-12564650D02*
X8437925Y-12574174D01*
X8437925Y-12574174D02*
X8447449Y-12593222D01*
X8447449Y-12593222D02*
X8447449Y-12697984D01*
X8837925Y-12488460D02*
X8666497Y-12745603D01*
X9095068Y-12497984D02*
X9114116Y-12497984D01*
X9114116Y-12497984D02*
X9133163Y-12507508D01*
X9133163Y-12507508D02*
X9142687Y-12517031D01*
X9142687Y-12517031D02*
X9152211Y-12536079D01*
X9152211Y-12536079D02*
X9161735Y-12574174D01*
X9161735Y-12574174D02*
X9161735Y-12621793D01*
X9161735Y-12621793D02*
X9152211Y-12659888D01*
X9152211Y-12659888D02*
X9142687Y-12678936D01*
X9142687Y-12678936D02*
X9133163Y-12688460D01*
X9133163Y-12688460D02*
X9114116Y-12697984D01*
X9114116Y-12697984D02*
X9095068Y-12697984D01*
X9095068Y-12697984D02*
X9076021Y-12688460D01*
X9076021Y-12688460D02*
X9066497Y-12678936D01*
X9066497Y-12678936D02*
X9056973Y-12659888D01*
X9056973Y-12659888D02*
X9047449Y-12621793D01*
X9047449Y-12621793D02*
X9047449Y-12574174D01*
X9047449Y-12574174D02*
X9056973Y-12536079D01*
X9056973Y-12536079D02*
X9066497Y-12517031D01*
X9066497Y-12517031D02*
X9076021Y-12507508D01*
X9076021Y-12507508D02*
X9095068Y-12497984D01*
X9247449Y-12678936D02*
X9256973Y-12688460D01*
X9256973Y-12688460D02*
X9247449Y-12697984D01*
X9247449Y-12697984D02*
X9237925Y-12688460D01*
X9237925Y-12688460D02*
X9247449Y-12678936D01*
X9247449Y-12678936D02*
X9247449Y-12697984D01*
X9380782Y-12497984D02*
X9399830Y-12497984D01*
X9399830Y-12497984D02*
X9418878Y-12507508D01*
X9418878Y-12507508D02*
X9428402Y-12517031D01*
X9428402Y-12517031D02*
X9437925Y-12536079D01*
X9437925Y-12536079D02*
X9447449Y-12574174D01*
X9447449Y-12574174D02*
X9447449Y-12621793D01*
X9447449Y-12621793D02*
X9437925Y-12659888D01*
X9437925Y-12659888D02*
X9428402Y-12678936D01*
X9428402Y-12678936D02*
X9418878Y-12688460D01*
X9418878Y-12688460D02*
X9399830Y-12697984D01*
X9399830Y-12697984D02*
X9380782Y-12697984D01*
X9380782Y-12697984D02*
X9361735Y-12688460D01*
X9361735Y-12688460D02*
X9352211Y-12678936D01*
X9352211Y-12678936D02*
X9342687Y-12659888D01*
X9342687Y-12659888D02*
X9333163Y-12621793D01*
X9333163Y-12621793D02*
X9333163Y-12574174D01*
X9333163Y-12574174D02*
X9342687Y-12536079D01*
X9342687Y-12536079D02*
X9352211Y-12517031D01*
X9352211Y-12517031D02*
X9361735Y-12507508D01*
X9361735Y-12507508D02*
X9380782Y-12497984D01*
X9637925Y-12697984D02*
X9523640Y-12697984D01*
X9580782Y-12697984D02*
X9580782Y-12497984D01*
X9580782Y-12497984D02*
X9561735Y-12526555D01*
X9561735Y-12526555D02*
X9542687Y-12545603D01*
X9542687Y-12545603D02*
X9523640Y-12555127D01*
X9733163Y-12697984D02*
X9771259Y-12697984D01*
X9771259Y-12697984D02*
X9790306Y-12688460D01*
X9790306Y-12688460D02*
X9799830Y-12678936D01*
X9799830Y-12678936D02*
X9818878Y-12650365D01*
X9818878Y-12650365D02*
X9828402Y-12612269D01*
X9828402Y-12612269D02*
X9828402Y-12536079D01*
X9828402Y-12536079D02*
X9818878Y-12517031D01*
X9818878Y-12517031D02*
X9809354Y-12507508D01*
X9809354Y-12507508D02*
X9790306Y-12497984D01*
X9790306Y-12497984D02*
X9752211Y-12497984D01*
X9752211Y-12497984D02*
X9733163Y-12507508D01*
X9733163Y-12507508D02*
X9723640Y-12517031D01*
X9723640Y-12517031D02*
X9714116Y-12536079D01*
X9714116Y-12536079D02*
X9714116Y-12583698D01*
X9714116Y-12583698D02*
X9723640Y-12602746D01*
X9723640Y-12602746D02*
X9733163Y-12612269D01*
X9733163Y-12612269D02*
X9752211Y-12621793D01*
X9752211Y-12621793D02*
X9790306Y-12621793D01*
X9790306Y-12621793D02*
X9809354Y-12612269D01*
X9809354Y-12612269D02*
X9818878Y-12602746D01*
X9818878Y-12602746D02*
X9828402Y-12583698D01*
X9895068Y-12497984D02*
X10028402Y-12497984D01*
X10028402Y-12497984D02*
X9942687Y-12697984D01*
X10095068Y-12497984D02*
X10095068Y-12536079D01*
X10171259Y-12497984D02*
X10171259Y-12536079D01*
X10466497Y-12774174D02*
X10456973Y-12764650D01*
X10456973Y-12764650D02*
X10437925Y-12736079D01*
X10437925Y-12736079D02*
X10428402Y-12717031D01*
X10428402Y-12717031D02*
X10418878Y-12688460D01*
X10418878Y-12688460D02*
X10409354Y-12640841D01*
X10409354Y-12640841D02*
X10409354Y-12602746D01*
X10409354Y-12602746D02*
X10418878Y-12555127D01*
X10418878Y-12555127D02*
X10428402Y-12526555D01*
X10428402Y-12526555D02*
X10437925Y-12507508D01*
X10437925Y-12507508D02*
X10456973Y-12478936D01*
X10456973Y-12478936D02*
X10466497Y-12469412D01*
X10533164Y-12517031D02*
X10542687Y-12507508D01*
X10542687Y-12507508D02*
X10561735Y-12497984D01*
X10561735Y-12497984D02*
X10609354Y-12497984D01*
X10609354Y-12497984D02*
X10628402Y-12507508D01*
X10628402Y-12507508D02*
X10637925Y-12517031D01*
X10637925Y-12517031D02*
X10647449Y-12536079D01*
X10647449Y-12536079D02*
X10647449Y-12555127D01*
X10647449Y-12555127D02*
X10637925Y-12583698D01*
X10637925Y-12583698D02*
X10523640Y-12697984D01*
X10523640Y-12697984D02*
X10647449Y-12697984D01*
X10885545Y-12697984D02*
X10885545Y-12497984D01*
X10971259Y-12697984D02*
X10971259Y-12593222D01*
X10971259Y-12593222D02*
X10961735Y-12574174D01*
X10961735Y-12574174D02*
X10942687Y-12564650D01*
X10942687Y-12564650D02*
X10914116Y-12564650D01*
X10914116Y-12564650D02*
X10895068Y-12574174D01*
X10895068Y-12574174D02*
X10885545Y-12583698D01*
X11095068Y-12697984D02*
X11076021Y-12688460D01*
X11076021Y-12688460D02*
X11066497Y-12678936D01*
X11066497Y-12678936D02*
X11056973Y-12659888D01*
X11056973Y-12659888D02*
X11056973Y-12602746D01*
X11056973Y-12602746D02*
X11066497Y-12583698D01*
X11066497Y-12583698D02*
X11076021Y-12574174D01*
X11076021Y-12574174D02*
X11095068Y-12564650D01*
X11095068Y-12564650D02*
X11123640Y-12564650D01*
X11123640Y-12564650D02*
X11142687Y-12574174D01*
X11142687Y-12574174D02*
X11152211Y-12583698D01*
X11152211Y-12583698D02*
X11161735Y-12602746D01*
X11161735Y-12602746D02*
X11161735Y-12659888D01*
X11161735Y-12659888D02*
X11152211Y-12678936D01*
X11152211Y-12678936D02*
X11142687Y-12688460D01*
X11142687Y-12688460D02*
X11123640Y-12697984D01*
X11123640Y-12697984D02*
X11095068Y-12697984D01*
X11276021Y-12697984D02*
X11256973Y-12688460D01*
X11256973Y-12688460D02*
X11247449Y-12669412D01*
X11247449Y-12669412D02*
X11247449Y-12497984D01*
X11428402Y-12688460D02*
X11409354Y-12697984D01*
X11409354Y-12697984D02*
X11371259Y-12697984D01*
X11371259Y-12697984D02*
X11352211Y-12688460D01*
X11352211Y-12688460D02*
X11342687Y-12669412D01*
X11342687Y-12669412D02*
X11342687Y-12593222D01*
X11342687Y-12593222D02*
X11352211Y-12574174D01*
X11352211Y-12574174D02*
X11371259Y-12564650D01*
X11371259Y-12564650D02*
X11409354Y-12564650D01*
X11409354Y-12564650D02*
X11428402Y-12574174D01*
X11428402Y-12574174D02*
X11437925Y-12593222D01*
X11437925Y-12593222D02*
X11437925Y-12612269D01*
X11437925Y-12612269D02*
X11342687Y-12631317D01*
X11514116Y-12688460D02*
X11533164Y-12697984D01*
X11533164Y-12697984D02*
X11571259Y-12697984D01*
X11571259Y-12697984D02*
X11590306Y-12688460D01*
X11590306Y-12688460D02*
X11599830Y-12669412D01*
X11599830Y-12669412D02*
X11599830Y-12659888D01*
X11599830Y-12659888D02*
X11590306Y-12640841D01*
X11590306Y-12640841D02*
X11571259Y-12631317D01*
X11571259Y-12631317D02*
X11542687Y-12631317D01*
X11542687Y-12631317D02*
X11523640Y-12621793D01*
X11523640Y-12621793D02*
X11514116Y-12602746D01*
X11514116Y-12602746D02*
X11514116Y-12593222D01*
X11514116Y-12593222D02*
X11523640Y-12574174D01*
X11523640Y-12574174D02*
X11542687Y-12564650D01*
X11542687Y-12564650D02*
X11571259Y-12564650D01*
X11571259Y-12564650D02*
X11590306Y-12574174D01*
X11666497Y-12774174D02*
X11676021Y-12764650D01*
X11676021Y-12764650D02*
X11695068Y-12736079D01*
X11695068Y-12736079D02*
X11704592Y-12717031D01*
X11704592Y-12717031D02*
X11714116Y-12688460D01*
X11714116Y-12688460D02*
X11723640Y-12640841D01*
X11723640Y-12640841D02*
X11723640Y-12602746D01*
X11723640Y-12602746D02*
X11714116Y-12555127D01*
X11714116Y-12555127D02*
X11704592Y-12526555D01*
X11704592Y-12526555D02*
X11695068Y-12507508D01*
X11695068Y-12507508D02*
X11676021Y-12478936D01*
X11676021Y-12478936D02*
X11666497Y-12469412D01*
D12*
X6858934Y-12838000D02*
X6858934Y-12903000D01*
X6826434Y-12870500D02*
X6891434Y-12870500D01*
D11*
X7190306Y-12761984D02*
X7209354Y-12761984D01*
X7209354Y-12761984D02*
X7228401Y-12771508D01*
X7228401Y-12771508D02*
X7237925Y-12781031D01*
X7237925Y-12781031D02*
X7247449Y-12800079D01*
X7247449Y-12800079D02*
X7256973Y-12838174D01*
X7256973Y-12838174D02*
X7256973Y-12885793D01*
X7256973Y-12885793D02*
X7247449Y-12923888D01*
X7247449Y-12923888D02*
X7237925Y-12942936D01*
X7237925Y-12942936D02*
X7228401Y-12952460D01*
X7228401Y-12952460D02*
X7209354Y-12961984D01*
X7209354Y-12961984D02*
X7190306Y-12961984D01*
X7190306Y-12961984D02*
X7171258Y-12952460D01*
X7171258Y-12952460D02*
X7161735Y-12942936D01*
X7161735Y-12942936D02*
X7152211Y-12923888D01*
X7152211Y-12923888D02*
X7142687Y-12885793D01*
X7142687Y-12885793D02*
X7142687Y-12838174D01*
X7142687Y-12838174D02*
X7152211Y-12800079D01*
X7152211Y-12800079D02*
X7161735Y-12781031D01*
X7161735Y-12781031D02*
X7171258Y-12771508D01*
X7171258Y-12771508D02*
X7190306Y-12761984D01*
X7342687Y-12942936D02*
X7352211Y-12952460D01*
X7352211Y-12952460D02*
X7342687Y-12961984D01*
X7342687Y-12961984D02*
X7333163Y-12952460D01*
X7333163Y-12952460D02*
X7342687Y-12942936D01*
X7342687Y-12942936D02*
X7342687Y-12961984D01*
X7523639Y-12761984D02*
X7485544Y-12761984D01*
X7485544Y-12761984D02*
X7466496Y-12771508D01*
X7466496Y-12771508D02*
X7456973Y-12781031D01*
X7456973Y-12781031D02*
X7437925Y-12809603D01*
X7437925Y-12809603D02*
X7428401Y-12847698D01*
X7428401Y-12847698D02*
X7428401Y-12923888D01*
X7428401Y-12923888D02*
X7437925Y-12942936D01*
X7437925Y-12942936D02*
X7447449Y-12952460D01*
X7447449Y-12952460D02*
X7466496Y-12961984D01*
X7466496Y-12961984D02*
X7504592Y-12961984D01*
X7504592Y-12961984D02*
X7523639Y-12952460D01*
X7523639Y-12952460D02*
X7533163Y-12942936D01*
X7533163Y-12942936D02*
X7542687Y-12923888D01*
X7542687Y-12923888D02*
X7542687Y-12876269D01*
X7542687Y-12876269D02*
X7533163Y-12857222D01*
X7533163Y-12857222D02*
X7523639Y-12847698D01*
X7523639Y-12847698D02*
X7504592Y-12838174D01*
X7504592Y-12838174D02*
X7466496Y-12838174D01*
X7466496Y-12838174D02*
X7447449Y-12847698D01*
X7447449Y-12847698D02*
X7437925Y-12857222D01*
X7437925Y-12857222D02*
X7428401Y-12876269D01*
X7723639Y-12761984D02*
X7628401Y-12761984D01*
X7628401Y-12761984D02*
X7618877Y-12857222D01*
X7618877Y-12857222D02*
X7628401Y-12847698D01*
X7628401Y-12847698D02*
X7647449Y-12838174D01*
X7647449Y-12838174D02*
X7695068Y-12838174D01*
X7695068Y-12838174D02*
X7714116Y-12847698D01*
X7714116Y-12847698D02*
X7723639Y-12857222D01*
X7723639Y-12857222D02*
X7733163Y-12876269D01*
X7733163Y-12876269D02*
X7733163Y-12923888D01*
X7733163Y-12923888D02*
X7723639Y-12942936D01*
X7723639Y-12942936D02*
X7714116Y-12952460D01*
X7714116Y-12952460D02*
X7695068Y-12961984D01*
X7695068Y-12961984D02*
X7647449Y-12961984D01*
X7647449Y-12961984D02*
X7628401Y-12952460D01*
X7628401Y-12952460D02*
X7618877Y-12942936D01*
X7856973Y-12761984D02*
X7876020Y-12761984D01*
X7876020Y-12761984D02*
X7895068Y-12771508D01*
X7895068Y-12771508D02*
X7904592Y-12781031D01*
X7904592Y-12781031D02*
X7914116Y-12800079D01*
X7914116Y-12800079D02*
X7923639Y-12838174D01*
X7923639Y-12838174D02*
X7923639Y-12885793D01*
X7923639Y-12885793D02*
X7914116Y-12923888D01*
X7914116Y-12923888D02*
X7904592Y-12942936D01*
X7904592Y-12942936D02*
X7895068Y-12952460D01*
X7895068Y-12952460D02*
X7876020Y-12961984D01*
X7876020Y-12961984D02*
X7856973Y-12961984D01*
X7856973Y-12961984D02*
X7837925Y-12952460D01*
X7837925Y-12952460D02*
X7828401Y-12942936D01*
X7828401Y-12942936D02*
X7818877Y-12923888D01*
X7818877Y-12923888D02*
X7809354Y-12885793D01*
X7809354Y-12885793D02*
X7809354Y-12838174D01*
X7809354Y-12838174D02*
X7818877Y-12800079D01*
X7818877Y-12800079D02*
X7828401Y-12781031D01*
X7828401Y-12781031D02*
X7837925Y-12771508D01*
X7837925Y-12771508D02*
X7856973Y-12761984D01*
X8009354Y-12961984D02*
X8009354Y-12828650D01*
X8009354Y-12847698D02*
X8018877Y-12838174D01*
X8018877Y-12838174D02*
X8037925Y-12828650D01*
X8037925Y-12828650D02*
X8066497Y-12828650D01*
X8066497Y-12828650D02*
X8085544Y-12838174D01*
X8085544Y-12838174D02*
X8095068Y-12857222D01*
X8095068Y-12857222D02*
X8095068Y-12961984D01*
X8095068Y-12857222D02*
X8104592Y-12838174D01*
X8104592Y-12838174D02*
X8123639Y-12828650D01*
X8123639Y-12828650D02*
X8152211Y-12828650D01*
X8152211Y-12828650D02*
X8171258Y-12838174D01*
X8171258Y-12838174D02*
X8180782Y-12857222D01*
X8180782Y-12857222D02*
X8180782Y-12961984D01*
X8276020Y-12961984D02*
X8276020Y-12828650D01*
X8276020Y-12847698D02*
X8285544Y-12838174D01*
X8285544Y-12838174D02*
X8304592Y-12828650D01*
X8304592Y-12828650D02*
X8333163Y-12828650D01*
X8333163Y-12828650D02*
X8352211Y-12838174D01*
X8352211Y-12838174D02*
X8361735Y-12857222D01*
X8361735Y-12857222D02*
X8361735Y-12961984D01*
X8361735Y-12857222D02*
X8371258Y-12838174D01*
X8371258Y-12838174D02*
X8390306Y-12828650D01*
X8390306Y-12828650D02*
X8418878Y-12828650D01*
X8418878Y-12828650D02*
X8437925Y-12838174D01*
X8437925Y-12838174D02*
X8447449Y-12857222D01*
X8447449Y-12857222D02*
X8447449Y-12961984D01*
X8837925Y-12752460D02*
X8666497Y-13009603D01*
X9095068Y-12761984D02*
X9114116Y-12761984D01*
X9114116Y-12761984D02*
X9133163Y-12771508D01*
X9133163Y-12771508D02*
X9142687Y-12781031D01*
X9142687Y-12781031D02*
X9152211Y-12800079D01*
X9152211Y-12800079D02*
X9161735Y-12838174D01*
X9161735Y-12838174D02*
X9161735Y-12885793D01*
X9161735Y-12885793D02*
X9152211Y-12923888D01*
X9152211Y-12923888D02*
X9142687Y-12942936D01*
X9142687Y-12942936D02*
X9133163Y-12952460D01*
X9133163Y-12952460D02*
X9114116Y-12961984D01*
X9114116Y-12961984D02*
X9095068Y-12961984D01*
X9095068Y-12961984D02*
X9076021Y-12952460D01*
X9076021Y-12952460D02*
X9066497Y-12942936D01*
X9066497Y-12942936D02*
X9056973Y-12923888D01*
X9056973Y-12923888D02*
X9047449Y-12885793D01*
X9047449Y-12885793D02*
X9047449Y-12838174D01*
X9047449Y-12838174D02*
X9056973Y-12800079D01*
X9056973Y-12800079D02*
X9066497Y-12781031D01*
X9066497Y-12781031D02*
X9076021Y-12771508D01*
X9076021Y-12771508D02*
X9095068Y-12761984D01*
X9247449Y-12942936D02*
X9256973Y-12952460D01*
X9256973Y-12952460D02*
X9247449Y-12961984D01*
X9247449Y-12961984D02*
X9237925Y-12952460D01*
X9237925Y-12952460D02*
X9247449Y-12942936D01*
X9247449Y-12942936D02*
X9247449Y-12961984D01*
X9380782Y-12761984D02*
X9399830Y-12761984D01*
X9399830Y-12761984D02*
X9418878Y-12771508D01*
X9418878Y-12771508D02*
X9428402Y-12781031D01*
X9428402Y-12781031D02*
X9437925Y-12800079D01*
X9437925Y-12800079D02*
X9447449Y-12838174D01*
X9447449Y-12838174D02*
X9447449Y-12885793D01*
X9447449Y-12885793D02*
X9437925Y-12923888D01*
X9437925Y-12923888D02*
X9428402Y-12942936D01*
X9428402Y-12942936D02*
X9418878Y-12952460D01*
X9418878Y-12952460D02*
X9399830Y-12961984D01*
X9399830Y-12961984D02*
X9380782Y-12961984D01*
X9380782Y-12961984D02*
X9361735Y-12952460D01*
X9361735Y-12952460D02*
X9352211Y-12942936D01*
X9352211Y-12942936D02*
X9342687Y-12923888D01*
X9342687Y-12923888D02*
X9333163Y-12885793D01*
X9333163Y-12885793D02*
X9333163Y-12838174D01*
X9333163Y-12838174D02*
X9342687Y-12800079D01*
X9342687Y-12800079D02*
X9352211Y-12781031D01*
X9352211Y-12781031D02*
X9361735Y-12771508D01*
X9361735Y-12771508D02*
X9380782Y-12761984D01*
X9523640Y-12781031D02*
X9533163Y-12771508D01*
X9533163Y-12771508D02*
X9552211Y-12761984D01*
X9552211Y-12761984D02*
X9599830Y-12761984D01*
X9599830Y-12761984D02*
X9618878Y-12771508D01*
X9618878Y-12771508D02*
X9628402Y-12781031D01*
X9628402Y-12781031D02*
X9637925Y-12800079D01*
X9637925Y-12800079D02*
X9637925Y-12819127D01*
X9637925Y-12819127D02*
X9628402Y-12847698D01*
X9628402Y-12847698D02*
X9514116Y-12961984D01*
X9514116Y-12961984D02*
X9637925Y-12961984D01*
X9818878Y-12761984D02*
X9723640Y-12761984D01*
X9723640Y-12761984D02*
X9714116Y-12857222D01*
X9714116Y-12857222D02*
X9723640Y-12847698D01*
X9723640Y-12847698D02*
X9742687Y-12838174D01*
X9742687Y-12838174D02*
X9790306Y-12838174D01*
X9790306Y-12838174D02*
X9809354Y-12847698D01*
X9809354Y-12847698D02*
X9818878Y-12857222D01*
X9818878Y-12857222D02*
X9828402Y-12876269D01*
X9828402Y-12876269D02*
X9828402Y-12923888D01*
X9828402Y-12923888D02*
X9818878Y-12942936D01*
X9818878Y-12942936D02*
X9809354Y-12952460D01*
X9809354Y-12952460D02*
X9790306Y-12961984D01*
X9790306Y-12961984D02*
X9742687Y-12961984D01*
X9742687Y-12961984D02*
X9723640Y-12952460D01*
X9723640Y-12952460D02*
X9714116Y-12942936D01*
X9999830Y-12761984D02*
X9961735Y-12761984D01*
X9961735Y-12761984D02*
X9942687Y-12771508D01*
X9942687Y-12771508D02*
X9933163Y-12781031D01*
X9933163Y-12781031D02*
X9914116Y-12809603D01*
X9914116Y-12809603D02*
X9904592Y-12847698D01*
X9904592Y-12847698D02*
X9904592Y-12923888D01*
X9904592Y-12923888D02*
X9914116Y-12942936D01*
X9914116Y-12942936D02*
X9923640Y-12952460D01*
X9923640Y-12952460D02*
X9942687Y-12961984D01*
X9942687Y-12961984D02*
X9980783Y-12961984D01*
X9980783Y-12961984D02*
X9999830Y-12952460D01*
X9999830Y-12952460D02*
X10009354Y-12942936D01*
X10009354Y-12942936D02*
X10018878Y-12923888D01*
X10018878Y-12923888D02*
X10018878Y-12876269D01*
X10018878Y-12876269D02*
X10009354Y-12857222D01*
X10009354Y-12857222D02*
X9999830Y-12847698D01*
X9999830Y-12847698D02*
X9980783Y-12838174D01*
X9980783Y-12838174D02*
X9942687Y-12838174D01*
X9942687Y-12838174D02*
X9923640Y-12847698D01*
X9923640Y-12847698D02*
X9914116Y-12857222D01*
X9914116Y-12857222D02*
X9904592Y-12876269D01*
X10095068Y-12761984D02*
X10095068Y-12800079D01*
X10171259Y-12761984D02*
X10171259Y-12800079D01*
X10466497Y-13038174D02*
X10456973Y-13028650D01*
X10456973Y-13028650D02*
X10437925Y-13000079D01*
X10437925Y-13000079D02*
X10428402Y-12981031D01*
X10428402Y-12981031D02*
X10418878Y-12952460D01*
X10418878Y-12952460D02*
X10409354Y-12904841D01*
X10409354Y-12904841D02*
X10409354Y-12866746D01*
X10409354Y-12866746D02*
X10418878Y-12819127D01*
X10418878Y-12819127D02*
X10428402Y-12790555D01*
X10428402Y-12790555D02*
X10437925Y-12771508D01*
X10437925Y-12771508D02*
X10456973Y-12742936D01*
X10456973Y-12742936D02*
X10466497Y-12733412D01*
X10628402Y-12761984D02*
X10590306Y-12761984D01*
X10590306Y-12761984D02*
X10571259Y-12771508D01*
X10571259Y-12771508D02*
X10561735Y-12781031D01*
X10561735Y-12781031D02*
X10542687Y-12809603D01*
X10542687Y-12809603D02*
X10533164Y-12847698D01*
X10533164Y-12847698D02*
X10533164Y-12923888D01*
X10533164Y-12923888D02*
X10542687Y-12942936D01*
X10542687Y-12942936D02*
X10552211Y-12952460D01*
X10552211Y-12952460D02*
X10571259Y-12961984D01*
X10571259Y-12961984D02*
X10609354Y-12961984D01*
X10609354Y-12961984D02*
X10628402Y-12952460D01*
X10628402Y-12952460D02*
X10637925Y-12942936D01*
X10637925Y-12942936D02*
X10647449Y-12923888D01*
X10647449Y-12923888D02*
X10647449Y-12876269D01*
X10647449Y-12876269D02*
X10637925Y-12857222D01*
X10637925Y-12857222D02*
X10628402Y-12847698D01*
X10628402Y-12847698D02*
X10609354Y-12838174D01*
X10609354Y-12838174D02*
X10571259Y-12838174D01*
X10571259Y-12838174D02*
X10552211Y-12847698D01*
X10552211Y-12847698D02*
X10542687Y-12857222D01*
X10542687Y-12857222D02*
X10533164Y-12876269D01*
X10885545Y-12961984D02*
X10885545Y-12761984D01*
X10971259Y-12961984D02*
X10971259Y-12857222D01*
X10971259Y-12857222D02*
X10961735Y-12838174D01*
X10961735Y-12838174D02*
X10942687Y-12828650D01*
X10942687Y-12828650D02*
X10914116Y-12828650D01*
X10914116Y-12828650D02*
X10895068Y-12838174D01*
X10895068Y-12838174D02*
X10885545Y-12847698D01*
X11095068Y-12961984D02*
X11076021Y-12952460D01*
X11076021Y-12952460D02*
X11066497Y-12942936D01*
X11066497Y-12942936D02*
X11056973Y-12923888D01*
X11056973Y-12923888D02*
X11056973Y-12866746D01*
X11056973Y-12866746D02*
X11066497Y-12847698D01*
X11066497Y-12847698D02*
X11076021Y-12838174D01*
X11076021Y-12838174D02*
X11095068Y-12828650D01*
X11095068Y-12828650D02*
X11123640Y-12828650D01*
X11123640Y-12828650D02*
X11142687Y-12838174D01*
X11142687Y-12838174D02*
X11152211Y-12847698D01*
X11152211Y-12847698D02*
X11161735Y-12866746D01*
X11161735Y-12866746D02*
X11161735Y-12923888D01*
X11161735Y-12923888D02*
X11152211Y-12942936D01*
X11152211Y-12942936D02*
X11142687Y-12952460D01*
X11142687Y-12952460D02*
X11123640Y-12961984D01*
X11123640Y-12961984D02*
X11095068Y-12961984D01*
X11276021Y-12961984D02*
X11256973Y-12952460D01*
X11256973Y-12952460D02*
X11247449Y-12933412D01*
X11247449Y-12933412D02*
X11247449Y-12761984D01*
X11428402Y-12952460D02*
X11409354Y-12961984D01*
X11409354Y-12961984D02*
X11371259Y-12961984D01*
X11371259Y-12961984D02*
X11352211Y-12952460D01*
X11352211Y-12952460D02*
X11342687Y-12933412D01*
X11342687Y-12933412D02*
X11342687Y-12857222D01*
X11342687Y-12857222D02*
X11352211Y-12838174D01*
X11352211Y-12838174D02*
X11371259Y-12828650D01*
X11371259Y-12828650D02*
X11409354Y-12828650D01*
X11409354Y-12828650D02*
X11428402Y-12838174D01*
X11428402Y-12838174D02*
X11437925Y-12857222D01*
X11437925Y-12857222D02*
X11437925Y-12876269D01*
X11437925Y-12876269D02*
X11342687Y-12895317D01*
X11514116Y-12952460D02*
X11533164Y-12961984D01*
X11533164Y-12961984D02*
X11571259Y-12961984D01*
X11571259Y-12961984D02*
X11590306Y-12952460D01*
X11590306Y-12952460D02*
X11599830Y-12933412D01*
X11599830Y-12933412D02*
X11599830Y-12923888D01*
X11599830Y-12923888D02*
X11590306Y-12904841D01*
X11590306Y-12904841D02*
X11571259Y-12895317D01*
X11571259Y-12895317D02*
X11542687Y-12895317D01*
X11542687Y-12895317D02*
X11523640Y-12885793D01*
X11523640Y-12885793D02*
X11514116Y-12866746D01*
X11514116Y-12866746D02*
X11514116Y-12857222D01*
X11514116Y-12857222D02*
X11523640Y-12838174D01*
X11523640Y-12838174D02*
X11542687Y-12828650D01*
X11542687Y-12828650D02*
X11571259Y-12828650D01*
X11571259Y-12828650D02*
X11590306Y-12838174D01*
X11666497Y-13038174D02*
X11676021Y-13028650D01*
X11676021Y-13028650D02*
X11695068Y-13000079D01*
X11695068Y-13000079D02*
X11704592Y-12981031D01*
X11704592Y-12981031D02*
X11714116Y-12952460D01*
X11714116Y-12952460D02*
X11723640Y-12904841D01*
X11723640Y-12904841D02*
X11723640Y-12866746D01*
X11723640Y-12866746D02*
X11714116Y-12819127D01*
X11714116Y-12819127D02*
X11704592Y-12790555D01*
X11704592Y-12790555D02*
X11695068Y-12771508D01*
X11695068Y-12771508D02*
X11676021Y-12742936D01*
X11676021Y-12742936D02*
X11666497Y-12733412D01*
D12*
X6879718Y-13162784D02*
X6879718Y-13106215D01*
X6823149Y-13106215D01*
X6823149Y-13162784D01*
X6879718Y-13162784D01*
D11*
X7190306Y-13025984D02*
X7209354Y-13025984D01*
X7209354Y-13025984D02*
X7228401Y-13035508D01*
X7228401Y-13035508D02*
X7237925Y-13045031D01*
X7237925Y-13045031D02*
X7247449Y-13064079D01*
X7247449Y-13064079D02*
X7256973Y-13102174D01*
X7256973Y-13102174D02*
X7256973Y-13149793D01*
X7256973Y-13149793D02*
X7247449Y-13187888D01*
X7247449Y-13187888D02*
X7237925Y-13206936D01*
X7237925Y-13206936D02*
X7228401Y-13216460D01*
X7228401Y-13216460D02*
X7209354Y-13225984D01*
X7209354Y-13225984D02*
X7190306Y-13225984D01*
X7190306Y-13225984D02*
X7171258Y-13216460D01*
X7171258Y-13216460D02*
X7161735Y-13206936D01*
X7161735Y-13206936D02*
X7152211Y-13187888D01*
X7152211Y-13187888D02*
X7142687Y-13149793D01*
X7142687Y-13149793D02*
X7142687Y-13102174D01*
X7142687Y-13102174D02*
X7152211Y-13064079D01*
X7152211Y-13064079D02*
X7161735Y-13045031D01*
X7161735Y-13045031D02*
X7171258Y-13035508D01*
X7171258Y-13035508D02*
X7190306Y-13025984D01*
X7342687Y-13206936D02*
X7352211Y-13216460D01*
X7352211Y-13216460D02*
X7342687Y-13225984D01*
X7342687Y-13225984D02*
X7333163Y-13216460D01*
X7333163Y-13216460D02*
X7342687Y-13206936D01*
X7342687Y-13206936D02*
X7342687Y-13225984D01*
X7466496Y-13111698D02*
X7447449Y-13102174D01*
X7447449Y-13102174D02*
X7437925Y-13092650D01*
X7437925Y-13092650D02*
X7428401Y-13073603D01*
X7428401Y-13073603D02*
X7428401Y-13064079D01*
X7428401Y-13064079D02*
X7437925Y-13045031D01*
X7437925Y-13045031D02*
X7447449Y-13035508D01*
X7447449Y-13035508D02*
X7466496Y-13025984D01*
X7466496Y-13025984D02*
X7504592Y-13025984D01*
X7504592Y-13025984D02*
X7523639Y-13035508D01*
X7523639Y-13035508D02*
X7533163Y-13045031D01*
X7533163Y-13045031D02*
X7542687Y-13064079D01*
X7542687Y-13064079D02*
X7542687Y-13073603D01*
X7542687Y-13073603D02*
X7533163Y-13092650D01*
X7533163Y-13092650D02*
X7523639Y-13102174D01*
X7523639Y-13102174D02*
X7504592Y-13111698D01*
X7504592Y-13111698D02*
X7466496Y-13111698D01*
X7466496Y-13111698D02*
X7447449Y-13121222D01*
X7447449Y-13121222D02*
X7437925Y-13130746D01*
X7437925Y-13130746D02*
X7428401Y-13149793D01*
X7428401Y-13149793D02*
X7428401Y-13187888D01*
X7428401Y-13187888D02*
X7437925Y-13206936D01*
X7437925Y-13206936D02*
X7447449Y-13216460D01*
X7447449Y-13216460D02*
X7466496Y-13225984D01*
X7466496Y-13225984D02*
X7504592Y-13225984D01*
X7504592Y-13225984D02*
X7523639Y-13216460D01*
X7523639Y-13216460D02*
X7533163Y-13206936D01*
X7533163Y-13206936D02*
X7542687Y-13187888D01*
X7542687Y-13187888D02*
X7542687Y-13149793D01*
X7542687Y-13149793D02*
X7533163Y-13130746D01*
X7533163Y-13130746D02*
X7523639Y-13121222D01*
X7523639Y-13121222D02*
X7504592Y-13111698D01*
X7666496Y-13025984D02*
X7685544Y-13025984D01*
X7685544Y-13025984D02*
X7704592Y-13035508D01*
X7704592Y-13035508D02*
X7714116Y-13045031D01*
X7714116Y-13045031D02*
X7723639Y-13064079D01*
X7723639Y-13064079D02*
X7733163Y-13102174D01*
X7733163Y-13102174D02*
X7733163Y-13149793D01*
X7733163Y-13149793D02*
X7723639Y-13187888D01*
X7723639Y-13187888D02*
X7714116Y-13206936D01*
X7714116Y-13206936D02*
X7704592Y-13216460D01*
X7704592Y-13216460D02*
X7685544Y-13225984D01*
X7685544Y-13225984D02*
X7666496Y-13225984D01*
X7666496Y-13225984D02*
X7647449Y-13216460D01*
X7647449Y-13216460D02*
X7637925Y-13206936D01*
X7637925Y-13206936D02*
X7628401Y-13187888D01*
X7628401Y-13187888D02*
X7618877Y-13149793D01*
X7618877Y-13149793D02*
X7618877Y-13102174D01*
X7618877Y-13102174D02*
X7628401Y-13064079D01*
X7628401Y-13064079D02*
X7637925Y-13045031D01*
X7637925Y-13045031D02*
X7647449Y-13035508D01*
X7647449Y-13035508D02*
X7666496Y-13025984D01*
X7856973Y-13025984D02*
X7876020Y-13025984D01*
X7876020Y-13025984D02*
X7895068Y-13035508D01*
X7895068Y-13035508D02*
X7904592Y-13045031D01*
X7904592Y-13045031D02*
X7914116Y-13064079D01*
X7914116Y-13064079D02*
X7923639Y-13102174D01*
X7923639Y-13102174D02*
X7923639Y-13149793D01*
X7923639Y-13149793D02*
X7914116Y-13187888D01*
X7914116Y-13187888D02*
X7904592Y-13206936D01*
X7904592Y-13206936D02*
X7895068Y-13216460D01*
X7895068Y-13216460D02*
X7876020Y-13225984D01*
X7876020Y-13225984D02*
X7856973Y-13225984D01*
X7856973Y-13225984D02*
X7837925Y-13216460D01*
X7837925Y-13216460D02*
X7828401Y-13206936D01*
X7828401Y-13206936D02*
X7818877Y-13187888D01*
X7818877Y-13187888D02*
X7809354Y-13149793D01*
X7809354Y-13149793D02*
X7809354Y-13102174D01*
X7809354Y-13102174D02*
X7818877Y-13064079D01*
X7818877Y-13064079D02*
X7828401Y-13045031D01*
X7828401Y-13045031D02*
X7837925Y-13035508D01*
X7837925Y-13035508D02*
X7856973Y-13025984D01*
X8009354Y-13225984D02*
X8009354Y-13092650D01*
X8009354Y-13111698D02*
X8018877Y-13102174D01*
X8018877Y-13102174D02*
X8037925Y-13092650D01*
X8037925Y-13092650D02*
X8066497Y-13092650D01*
X8066497Y-13092650D02*
X8085544Y-13102174D01*
X8085544Y-13102174D02*
X8095068Y-13121222D01*
X8095068Y-13121222D02*
X8095068Y-13225984D01*
X8095068Y-13121222D02*
X8104592Y-13102174D01*
X8104592Y-13102174D02*
X8123639Y-13092650D01*
X8123639Y-13092650D02*
X8152211Y-13092650D01*
X8152211Y-13092650D02*
X8171258Y-13102174D01*
X8171258Y-13102174D02*
X8180782Y-13121222D01*
X8180782Y-13121222D02*
X8180782Y-13225984D01*
X8276020Y-13225984D02*
X8276020Y-13092650D01*
X8276020Y-13111698D02*
X8285544Y-13102174D01*
X8285544Y-13102174D02*
X8304592Y-13092650D01*
X8304592Y-13092650D02*
X8333163Y-13092650D01*
X8333163Y-13092650D02*
X8352211Y-13102174D01*
X8352211Y-13102174D02*
X8361735Y-13121222D01*
X8361735Y-13121222D02*
X8361735Y-13225984D01*
X8361735Y-13121222D02*
X8371258Y-13102174D01*
X8371258Y-13102174D02*
X8390306Y-13092650D01*
X8390306Y-13092650D02*
X8418878Y-13092650D01*
X8418878Y-13092650D02*
X8437925Y-13102174D01*
X8437925Y-13102174D02*
X8447449Y-13121222D01*
X8447449Y-13121222D02*
X8447449Y-13225984D01*
X8837925Y-13016460D02*
X8666497Y-13273603D01*
X9095068Y-13025984D02*
X9114116Y-13025984D01*
X9114116Y-13025984D02*
X9133163Y-13035508D01*
X9133163Y-13035508D02*
X9142687Y-13045031D01*
X9142687Y-13045031D02*
X9152211Y-13064079D01*
X9152211Y-13064079D02*
X9161735Y-13102174D01*
X9161735Y-13102174D02*
X9161735Y-13149793D01*
X9161735Y-13149793D02*
X9152211Y-13187888D01*
X9152211Y-13187888D02*
X9142687Y-13206936D01*
X9142687Y-13206936D02*
X9133163Y-13216460D01*
X9133163Y-13216460D02*
X9114116Y-13225984D01*
X9114116Y-13225984D02*
X9095068Y-13225984D01*
X9095068Y-13225984D02*
X9076021Y-13216460D01*
X9076021Y-13216460D02*
X9066497Y-13206936D01*
X9066497Y-13206936D02*
X9056973Y-13187888D01*
X9056973Y-13187888D02*
X9047449Y-13149793D01*
X9047449Y-13149793D02*
X9047449Y-13102174D01*
X9047449Y-13102174D02*
X9056973Y-13064079D01*
X9056973Y-13064079D02*
X9066497Y-13045031D01*
X9066497Y-13045031D02*
X9076021Y-13035508D01*
X9076021Y-13035508D02*
X9095068Y-13025984D01*
X9247449Y-13206936D02*
X9256973Y-13216460D01*
X9256973Y-13216460D02*
X9247449Y-13225984D01*
X9247449Y-13225984D02*
X9237925Y-13216460D01*
X9237925Y-13216460D02*
X9247449Y-13206936D01*
X9247449Y-13206936D02*
X9247449Y-13225984D01*
X9380782Y-13025984D02*
X9399830Y-13025984D01*
X9399830Y-13025984D02*
X9418878Y-13035508D01*
X9418878Y-13035508D02*
X9428402Y-13045031D01*
X9428402Y-13045031D02*
X9437925Y-13064079D01*
X9437925Y-13064079D02*
X9447449Y-13102174D01*
X9447449Y-13102174D02*
X9447449Y-13149793D01*
X9447449Y-13149793D02*
X9437925Y-13187888D01*
X9437925Y-13187888D02*
X9428402Y-13206936D01*
X9428402Y-13206936D02*
X9418878Y-13216460D01*
X9418878Y-13216460D02*
X9399830Y-13225984D01*
X9399830Y-13225984D02*
X9380782Y-13225984D01*
X9380782Y-13225984D02*
X9361735Y-13216460D01*
X9361735Y-13216460D02*
X9352211Y-13206936D01*
X9352211Y-13206936D02*
X9342687Y-13187888D01*
X9342687Y-13187888D02*
X9333163Y-13149793D01*
X9333163Y-13149793D02*
X9333163Y-13102174D01*
X9333163Y-13102174D02*
X9342687Y-13064079D01*
X9342687Y-13064079D02*
X9352211Y-13045031D01*
X9352211Y-13045031D02*
X9361735Y-13035508D01*
X9361735Y-13035508D02*
X9380782Y-13025984D01*
X9514116Y-13025984D02*
X9637925Y-13025984D01*
X9637925Y-13025984D02*
X9571259Y-13102174D01*
X9571259Y-13102174D02*
X9599830Y-13102174D01*
X9599830Y-13102174D02*
X9618878Y-13111698D01*
X9618878Y-13111698D02*
X9628402Y-13121222D01*
X9628402Y-13121222D02*
X9637925Y-13140269D01*
X9637925Y-13140269D02*
X9637925Y-13187888D01*
X9637925Y-13187888D02*
X9628402Y-13206936D01*
X9628402Y-13206936D02*
X9618878Y-13216460D01*
X9618878Y-13216460D02*
X9599830Y-13225984D01*
X9599830Y-13225984D02*
X9542687Y-13225984D01*
X9542687Y-13225984D02*
X9523640Y-13216460D01*
X9523640Y-13216460D02*
X9514116Y-13206936D01*
X9828402Y-13225984D02*
X9714116Y-13225984D01*
X9771259Y-13225984D02*
X9771259Y-13025984D01*
X9771259Y-13025984D02*
X9752211Y-13054555D01*
X9752211Y-13054555D02*
X9733163Y-13073603D01*
X9733163Y-13073603D02*
X9714116Y-13083127D01*
X10009354Y-13025984D02*
X9914116Y-13025984D01*
X9914116Y-13025984D02*
X9904592Y-13121222D01*
X9904592Y-13121222D02*
X9914116Y-13111698D01*
X9914116Y-13111698D02*
X9933163Y-13102174D01*
X9933163Y-13102174D02*
X9980783Y-13102174D01*
X9980783Y-13102174D02*
X9999830Y-13111698D01*
X9999830Y-13111698D02*
X10009354Y-13121222D01*
X10009354Y-13121222D02*
X10018878Y-13140269D01*
X10018878Y-13140269D02*
X10018878Y-13187888D01*
X10018878Y-13187888D02*
X10009354Y-13206936D01*
X10009354Y-13206936D02*
X9999830Y-13216460D01*
X9999830Y-13216460D02*
X9980783Y-13225984D01*
X9980783Y-13225984D02*
X9933163Y-13225984D01*
X9933163Y-13225984D02*
X9914116Y-13216460D01*
X9914116Y-13216460D02*
X9904592Y-13206936D01*
X10095068Y-13025984D02*
X10095068Y-13064079D01*
X10171259Y-13025984D02*
X10171259Y-13064079D01*
X10466497Y-13302174D02*
X10456973Y-13292650D01*
X10456973Y-13292650D02*
X10437925Y-13264079D01*
X10437925Y-13264079D02*
X10428402Y-13245031D01*
X10428402Y-13245031D02*
X10418878Y-13216460D01*
X10418878Y-13216460D02*
X10409354Y-13168841D01*
X10409354Y-13168841D02*
X10409354Y-13130746D01*
X10409354Y-13130746D02*
X10418878Y-13083127D01*
X10418878Y-13083127D02*
X10428402Y-13054555D01*
X10428402Y-13054555D02*
X10437925Y-13035508D01*
X10437925Y-13035508D02*
X10456973Y-13006936D01*
X10456973Y-13006936D02*
X10466497Y-12997412D01*
X10628402Y-13025984D02*
X10590306Y-13025984D01*
X10590306Y-13025984D02*
X10571259Y-13035508D01*
X10571259Y-13035508D02*
X10561735Y-13045031D01*
X10561735Y-13045031D02*
X10542687Y-13073603D01*
X10542687Y-13073603D02*
X10533164Y-13111698D01*
X10533164Y-13111698D02*
X10533164Y-13187888D01*
X10533164Y-13187888D02*
X10542687Y-13206936D01*
X10542687Y-13206936D02*
X10552211Y-13216460D01*
X10552211Y-13216460D02*
X10571259Y-13225984D01*
X10571259Y-13225984D02*
X10609354Y-13225984D01*
X10609354Y-13225984D02*
X10628402Y-13216460D01*
X10628402Y-13216460D02*
X10637925Y-13206936D01*
X10637925Y-13206936D02*
X10647449Y-13187888D01*
X10647449Y-13187888D02*
X10647449Y-13140269D01*
X10647449Y-13140269D02*
X10637925Y-13121222D01*
X10637925Y-13121222D02*
X10628402Y-13111698D01*
X10628402Y-13111698D02*
X10609354Y-13102174D01*
X10609354Y-13102174D02*
X10571259Y-13102174D01*
X10571259Y-13102174D02*
X10552211Y-13111698D01*
X10552211Y-13111698D02*
X10542687Y-13121222D01*
X10542687Y-13121222D02*
X10533164Y-13140269D01*
X10885545Y-13225984D02*
X10885545Y-13025984D01*
X10971259Y-13225984D02*
X10971259Y-13121222D01*
X10971259Y-13121222D02*
X10961735Y-13102174D01*
X10961735Y-13102174D02*
X10942687Y-13092650D01*
X10942687Y-13092650D02*
X10914116Y-13092650D01*
X10914116Y-13092650D02*
X10895068Y-13102174D01*
X10895068Y-13102174D02*
X10885545Y-13111698D01*
X11095068Y-13225984D02*
X11076021Y-13216460D01*
X11076021Y-13216460D02*
X11066497Y-13206936D01*
X11066497Y-13206936D02*
X11056973Y-13187888D01*
X11056973Y-13187888D02*
X11056973Y-13130746D01*
X11056973Y-13130746D02*
X11066497Y-13111698D01*
X11066497Y-13111698D02*
X11076021Y-13102174D01*
X11076021Y-13102174D02*
X11095068Y-13092650D01*
X11095068Y-13092650D02*
X11123640Y-13092650D01*
X11123640Y-13092650D02*
X11142687Y-13102174D01*
X11142687Y-13102174D02*
X11152211Y-13111698D01*
X11152211Y-13111698D02*
X11161735Y-13130746D01*
X11161735Y-13130746D02*
X11161735Y-13187888D01*
X11161735Y-13187888D02*
X11152211Y-13206936D01*
X11152211Y-13206936D02*
X11142687Y-13216460D01*
X11142687Y-13216460D02*
X11123640Y-13225984D01*
X11123640Y-13225984D02*
X11095068Y-13225984D01*
X11276021Y-13225984D02*
X11256973Y-13216460D01*
X11256973Y-13216460D02*
X11247449Y-13197412D01*
X11247449Y-13197412D02*
X11247449Y-13025984D01*
X11428402Y-13216460D02*
X11409354Y-13225984D01*
X11409354Y-13225984D02*
X11371259Y-13225984D01*
X11371259Y-13225984D02*
X11352211Y-13216460D01*
X11352211Y-13216460D02*
X11342687Y-13197412D01*
X11342687Y-13197412D02*
X11342687Y-13121222D01*
X11342687Y-13121222D02*
X11352211Y-13102174D01*
X11352211Y-13102174D02*
X11371259Y-13092650D01*
X11371259Y-13092650D02*
X11409354Y-13092650D01*
X11409354Y-13092650D02*
X11428402Y-13102174D01*
X11428402Y-13102174D02*
X11437925Y-13121222D01*
X11437925Y-13121222D02*
X11437925Y-13140269D01*
X11437925Y-13140269D02*
X11342687Y-13159317D01*
X11514116Y-13216460D02*
X11533164Y-13225984D01*
X11533164Y-13225984D02*
X11571259Y-13225984D01*
X11571259Y-13225984D02*
X11590306Y-13216460D01*
X11590306Y-13216460D02*
X11599830Y-13197412D01*
X11599830Y-13197412D02*
X11599830Y-13187888D01*
X11599830Y-13187888D02*
X11590306Y-13168841D01*
X11590306Y-13168841D02*
X11571259Y-13159317D01*
X11571259Y-13159317D02*
X11542687Y-13159317D01*
X11542687Y-13159317D02*
X11523640Y-13149793D01*
X11523640Y-13149793D02*
X11514116Y-13130746D01*
X11514116Y-13130746D02*
X11514116Y-13121222D01*
X11514116Y-13121222D02*
X11523640Y-13102174D01*
X11523640Y-13102174D02*
X11542687Y-13092650D01*
X11542687Y-13092650D02*
X11571259Y-13092650D01*
X11571259Y-13092650D02*
X11590306Y-13102174D01*
X11666497Y-13302174D02*
X11676021Y-13292650D01*
X11676021Y-13292650D02*
X11695068Y-13264079D01*
X11695068Y-13264079D02*
X11704592Y-13245031D01*
X11704592Y-13245031D02*
X11714116Y-13216460D01*
X11714116Y-13216460D02*
X11723640Y-13168841D01*
X11723640Y-13168841D02*
X11723640Y-13130746D01*
X11723640Y-13130746D02*
X11714116Y-13083127D01*
X11714116Y-13083127D02*
X11704592Y-13054555D01*
X11704592Y-13054555D02*
X11695068Y-13035508D01*
X11695068Y-13035508D02*
X11676021Y-13006936D01*
X11676021Y-13006936D02*
X11666497Y-12997412D01*
M02*
