%TF.GenerationSoftware,KiCad,Pcbnew,9.0.7*%
%TF.CreationDate,2026-04-13T20:32:34-04:00*%
%TF.ProjectId,ESProbeScope3300,45535072-6f62-4655-9363-6f7065333330,rev?*%
%TF.SameCoordinates,Original*%
%TF.FileFunction,Soldermask,Bot*%
%TF.FilePolarity,Negative*%
%FSLAX46Y46*%
G04 Gerber Fmt 4.6, Leading zero omitted, Abs format (unit mm)*
G04 Created by KiCad (PCBNEW 9.0.7) date 2026-04-13 20:32:34*
%MOMM*%
%LPD*%
G01*
G04 APERTURE LIST*
G04 Aperture macros list*
%AMRoundRect*
0 Rectangle with rounded corners*
0 $1 Rounding radius*
0 $2 $3 $4 $5 $6 $7 $8 $9 X,Y pos of 4 corners*
0 Add a 4 corners polygon primitive as box body*
4,1,4,$2,$3,$4,$5,$6,$7,$8,$9,$2,$3,0*
0 Add four circle primitives for the rounded corners*
1,1,$1+$1,$2,$3*
1,1,$1+$1,$4,$5*
1,1,$1+$1,$6,$7*
1,1,$1+$1,$8,$9*
0 Add four rect primitives between the rounded corners*
20,1,$1+$1,$2,$3,$4,$5,0*
20,1,$1+$1,$4,$5,$6,$7,0*
20,1,$1+$1,$6,$7,$8,$9,0*
20,1,$1+$1,$8,$9,$2,$3,0*%
%AMFreePoly0*
4,1,32,-0.526964,2.003693,-0.517984,1.999973,-0.490927,1.972916,-0.487207,1.963936,-0.483400,1.944800,-0.483400,1.167597,0.546100,1.167597,0.565236,1.163790,0.574216,1.160070,0.601273,1.133013,0.604993,1.124033,0.608800,1.104897,0.608800,-1.104900,0.604993,-1.124036,0.601273,-1.133016,0.574216,-1.160073,0.565236,-1.163793,0.546100,-1.167600,-1.841500,-1.167600,-1.860636,-1.163793,
-1.869616,-1.160073,-1.896673,-1.133016,-1.900393,-1.124036,-1.904200,-1.104900,-1.904200,1.944800,-1.900393,1.963936,-1.896673,1.972916,-1.869616,1.999973,-1.860636,2.003693,-1.841500,2.007500,-0.546100,2.007500,-0.526964,2.003693,-0.526964,2.003693,$1*%
%AMFreePoly1*
4,1,32,1.860636,2.003693,1.869616,1.999973,1.896673,1.972916,1.900393,1.963936,1.904200,1.944800,1.904200,-1.104900,1.900393,-1.124036,1.896673,-1.133016,1.869616,-1.160073,1.860636,-1.163793,1.841500,-1.167600,-0.546100,-1.167600,-0.565236,-1.163793,-0.574216,-1.160073,-0.601273,-1.133016,-0.604993,-1.124036,-0.608800,-1.104900,-0.608800,1.104897,-0.604993,1.124033,-0.601273,1.133013,
-0.574216,1.160070,-0.565236,1.163790,-0.546100,1.167597,0.483400,1.167597,0.483400,1.944800,0.487207,1.963936,0.490927,1.972916,0.517984,1.999973,0.526964,2.003693,0.546100,2.007500,1.841500,2.007500,1.860636,2.003693,1.860636,2.003693,$1*%
G04 Aperture macros list end*
%ADD10C,0.025400*%
%ADD11C,0.501200*%
%ADD12C,0.010000*%
%ADD13C,0.650000*%
%ADD14FreePoly0,90.000000*%
%ADD15FreePoly1,90.000000*%
%ADD16RoundRect,0.050000X0.406400X-0.152400X0.406400X0.152400X-0.406400X0.152400X-0.406400X-0.152400X0*%
%ADD17C,1.000000*%
%ADD18R,1.350000X1.350000*%
%ADD19O,1.350000X1.350000*%
%ADD20R,1.000000X1.000000*%
%ADD21O,1.000000X1.000000*%
G04 APERTURE END LIST*
D10*
%TO.C,LCD1*%
X134549700Y-102896100D02*
X132339903Y-102896100D01*
X132339903Y-101803900D01*
X131500000Y-101803900D01*
X131500000Y-100508500D01*
X134549700Y-100508500D01*
X134549700Y-102896100D01*
G36*
X134549700Y-102896100D02*
G01*
X132339903Y-102896100D01*
X132339903Y-101803900D01*
X131500000Y-101803900D01*
X131500000Y-100508500D01*
X134549700Y-100508500D01*
X134549700Y-102896100D01*
G37*
X134549700Y-94491500D02*
X131500000Y-94491500D01*
X131500000Y-93196100D01*
X132339903Y-93196100D01*
X132339903Y-92103900D01*
X134549700Y-92103900D01*
X134549700Y-94491500D01*
G36*
X134549700Y-94491500D02*
G01*
X131500000Y-94491500D01*
X131500000Y-93196100D01*
X132339903Y-93196100D01*
X132339903Y-92103900D01*
X134549700Y-92103900D01*
X134549700Y-94491500D01*
G37*
D11*
%TO.C,J2*%
X187225600Y-112750000D02*
G75*
G02*
X186724400Y-112750000I-250600J0D01*
G01*
X186724400Y-112750000D02*
G75*
G02*
X187225600Y-112750000I250600J0D01*
G01*
D12*
X188726200Y-113251200D02*
X187723800Y-113251200D01*
X187723800Y-112248800D01*
X188726200Y-112248800D01*
X188726200Y-113251200D01*
G36*
X188726200Y-113251200D02*
G01*
X187723800Y-113251200D01*
X187723800Y-112248800D01*
X188726200Y-112248800D01*
X188726200Y-113251200D01*
G37*
%TD*%
D13*
%TO.C,J1*%
X215812500Y-101899000D03*
X215812500Y-96110000D03*
%TD*%
D14*
%TO.C,LCD1*%
X133444800Y-92650000D03*
D15*
X133444800Y-102350000D03*
D16*
X134944800Y-95750000D03*
X134944800Y-96250000D03*
X134944800Y-96750000D03*
X134944800Y-97250000D03*
X134944800Y-97750000D03*
X134944800Y-98250000D03*
X134944800Y-98750000D03*
X134944800Y-99250000D03*
%TD*%
D17*
%TO.C,SW1*%
X214350000Y-115100000D03*
X207550000Y-115100000D03*
%TD*%
D18*
%TO.C,X2*%
X90950000Y-115250000D03*
D19*
X88950000Y-115250000D03*
X90950000Y-113250000D03*
X88950000Y-113250000D03*
%TD*%
D18*
%TO.C,X4*%
X194800000Y-112000000D03*
D19*
X196800000Y-112000000D03*
%TD*%
D20*
%TO.C,X3*%
X71010000Y-99635000D03*
D21*
X71010000Y-98365000D03*
X72280000Y-99635000D03*
X72280000Y-98365000D03*
X73550000Y-99635000D03*
X73550000Y-98365000D03*
%TD*%
M02*
