%TF.GenerationSoftware,KiCad,Pcbnew,9.0.7*%
%TF.CreationDate,2026-04-13T20:32:34-04:00*%
%TF.ProjectId,ESProbeScope3300,45535072-6f62-4655-9363-6f7065333330,rev?*%
%TF.SameCoordinates,Original*%
%TF.FileFunction,Soldermask,Top*%
%TF.FilePolarity,Negative*%
%FSLAX46Y46*%
G04 Gerber Fmt 4.6, Leading zero omitted, Abs format (unit mm)*
G04 Created by KiCad (PCBNEW 9.0.7) date 2026-04-13 20:32:34*
%MOMM*%
%LPD*%
G01*
G04 APERTURE LIST*
G04 Aperture macros list*
%AMRoundRect*
0 Rectangle with rounded corners*
0 $1 Rounding radius*
0 $2 $3 $4 $5 $6 $7 $8 $9 X,Y pos of 4 corners*
0 Add a 4 corners polygon primitive as box body*
4,1,4,$2,$3,$4,$5,$6,$7,$8,$9,$2,$3,0*
0 Add four circle primitives for the rounded corners*
1,1,$1+$1,$2,$3*
1,1,$1+$1,$4,$5*
1,1,$1+$1,$6,$7*
1,1,$1+$1,$8,$9*
0 Add four rect primitives between the rounded corners*
20,1,$1+$1,$2,$3,$4,$5,0*
20,1,$1+$1,$4,$5,$6,$7,0*
20,1,$1+$1,$6,$7,$8,$9,0*
20,1,$1+$1,$8,$9,$2,$3,0*%
G04 Aperture macros list end*
%ADD10C,0.501200*%
%ADD11C,0.010000*%
%ADD12C,0.650000*%
%ADD13R,1.150000X0.600000*%
%ADD14R,1.150000X0.300000*%
%ADD15R,2.000000X2.180000*%
%ADD16RoundRect,0.225000X-0.250000X0.225000X-0.250000X-0.225000X0.250000X-0.225000X0.250000X0.225000X0*%
%ADD17RoundRect,0.225000X0.250000X-0.225000X0.250000X0.225000X-0.250000X0.225000X-0.250000X-0.225000X0*%
%ADD18RoundRect,0.225000X0.225000X0.250000X-0.225000X0.250000X-0.225000X-0.250000X0.225000X-0.250000X0*%
%ADD19RoundRect,0.100000X-0.130000X-0.100000X0.130000X-0.100000X0.130000X0.100000X-0.130000X0.100000X0*%
%ADD20RoundRect,0.102000X-0.600000X-1.250000X0.600000X-1.250000X0.600000X1.250000X-0.600000X1.250000X0*%
%ADD21C,1.000000*%
%ADD22R,4.600000X4.600000*%
%ADD23O,0.200000X0.400000*%
%ADD24O,0.400000X0.200000*%
%ADD25RoundRect,0.102000X-0.525000X-0.325000X0.525000X-0.325000X0.525000X0.325000X-0.525000X0.325000X0*%
%ADD26RoundRect,0.124250X-0.442750X0.372750X-0.442750X-0.372750X0.442750X-0.372750X0.442750X0.372750X0*%
%ADD27R,1.168400X2.209800*%
%ADD28R,2.794000X1.066800*%
%ADD29R,0.939800X0.914400*%
%ADD30R,1.000000X0.700000*%
%ADD31R,1.350000X1.350000*%
%ADD32O,1.350000X1.350000*%
%ADD33RoundRect,0.250000X-0.450000X-0.350000X0.450000X-0.350000X0.450000X0.350000X-0.450000X0.350000X0*%
%ADD34R,1.028700X0.508000*%
%ADD35RoundRect,0.225000X-0.375000X0.225000X-0.375000X-0.225000X0.375000X-0.225000X0.375000X0.225000X0*%
%ADD36RoundRect,0.124250X0.442750X-0.372750X0.442750X0.372750X-0.442750X0.372750X-0.442750X-0.372750X0*%
%ADD37RoundRect,0.102000X-0.465000X0.475000X-0.465000X-0.475000X0.465000X-0.475000X0.465000X0.475000X0*%
%ADD38RoundRect,0.102000X-0.520000X-0.510000X0.520000X-0.510000X0.520000X0.510000X-0.520000X0.510000X0*%
%ADD39RoundRect,0.102000X0.525000X0.325000X-0.525000X0.325000X-0.525000X-0.325000X0.525000X-0.325000X0*%
%ADD40R,0.889000X0.914400*%
%ADD41RoundRect,0.059250X-0.437750X-0.177750X0.437750X-0.177750X0.437750X0.177750X-0.437750X0.177750X0*%
%ADD42RoundRect,0.059250X-0.177750X-0.437750X0.177750X-0.437750X0.177750X0.437750X-0.177750X0.437750X0*%
%ADD43RoundRect,0.102000X-0.510000X0.520000X-0.510000X-0.520000X0.510000X-0.520000X0.510000X0.520000X0*%
%ADD44RoundRect,0.102000X0.520000X0.510000X-0.520000X0.510000X-0.520000X-0.510000X0.520000X-0.510000X0*%
%ADD45RoundRect,0.250000X0.475000X-0.250000X0.475000X0.250000X-0.475000X0.250000X-0.475000X-0.250000X0*%
%ADD46R,0.800000X0.500000*%
%ADD47RoundRect,0.102000X-0.325000X0.525000X-0.325000X-0.525000X0.325000X-0.525000X0.325000X0.525000X0*%
%ADD48R,0.914400X0.939800*%
%ADD49RoundRect,0.250000X-0.250000X-0.475000X0.250000X-0.475000X0.250000X0.475000X-0.250000X0.475000X0*%
%ADD50R,0.700000X1.000000*%
%ADD51R,0.558800X0.330200*%
%ADD52RoundRect,0.150000X-0.512500X-0.150000X0.512500X-0.150000X0.512500X0.150000X-0.512500X0.150000X0*%
%ADD53RoundRect,0.102000X0.510000X-0.520000X0.510000X0.520000X-0.510000X0.520000X-0.510000X-0.520000X0*%
%ADD54R,1.447800X1.117600*%
%ADD55R,0.609600X0.685800*%
%ADD56R,1.000000X1.000000*%
%ADD57O,1.000000X1.000000*%
%ADD58R,1.117600X1.447800*%
G04 APERTURE END LIST*
D10*
%TO.C,J2*%
X187225600Y-112750000D02*
G75*
G02*
X186724400Y-112750000I-250600J0D01*
G01*
X186724400Y-112750000D02*
G75*
G02*
X187225600Y-112750000I250600J0D01*
G01*
D11*
X188726200Y-113251200D02*
X187723800Y-113251200D01*
X187723800Y-112248800D01*
X188726200Y-112248800D01*
X188726200Y-113251200D01*
G36*
X188726200Y-113251200D02*
G01*
X187723800Y-113251200D01*
X187723800Y-112248800D01*
X188726200Y-112248800D01*
X188726200Y-113251200D01*
G37*
%TD*%
D12*
%TO.C,J1*%
X215812500Y-101899000D03*
X215812500Y-96110000D03*
D13*
X214737500Y-102200000D03*
X214737500Y-101400000D03*
D14*
X214737500Y-100250000D03*
X214737500Y-99250000D03*
X214737500Y-98750000D03*
X214737500Y-97750000D03*
D13*
X214737500Y-95800000D03*
X214737500Y-96600000D03*
D14*
X214737500Y-97250000D03*
X214737500Y-98250000D03*
X214737500Y-99750000D03*
X214737500Y-100750000D03*
D15*
X215312500Y-104110000D03*
X219242500Y-104110000D03*
X219242500Y-93890000D03*
X215312500Y-93890000D03*
%TD*%
D16*
%TO.C,C25*%
X159500000Y-109575000D03*
X159500000Y-108025000D03*
%TD*%
D17*
%TO.C,C11*%
X126750000Y-90175000D03*
X126750000Y-91725000D03*
%TD*%
D16*
%TO.C,C26*%
X166600000Y-108375000D03*
X166600000Y-109925000D03*
%TD*%
D17*
%TO.C,C9*%
X137300000Y-102025000D03*
X137300000Y-100475000D03*
%TD*%
D18*
%TO.C,C6*%
X120875000Y-96350000D03*
X119325000Y-96350000D03*
%TD*%
D17*
%TO.C,C8*%
X129250000Y-91725000D03*
X129250000Y-90175000D03*
%TD*%
D19*
%TO.C,L2*%
X90725000Y-83600000D03*
X90085000Y-83600000D03*
%TD*%
D20*
%TO.C,SW1*%
X213450000Y-112350000D03*
X210950000Y-112350000D03*
X208450000Y-112350000D03*
D21*
X214350000Y-115100000D03*
X207550000Y-115100000D03*
%TD*%
D22*
%TO.C,U1*%
X128925000Y-98075000D03*
D23*
X126325000Y-94425000D03*
X126725000Y-94425000D03*
X127125000Y-94425000D03*
X127525000Y-94425000D03*
X127925000Y-94425000D03*
X128325000Y-94425000D03*
X128725000Y-94425000D03*
X129125000Y-94425000D03*
X129525000Y-94425000D03*
X129925000Y-94425000D03*
X130325000Y-94425000D03*
X130725000Y-94425000D03*
X131125000Y-94425000D03*
X131525000Y-94425000D03*
D24*
X132575000Y-95475000D03*
X132575000Y-95875000D03*
X132575000Y-96275000D03*
X132575000Y-96675000D03*
X132575000Y-97075000D03*
X132575000Y-97475000D03*
X132575000Y-97875000D03*
X132575000Y-98275000D03*
X132575000Y-98675000D03*
X132575000Y-99075000D03*
X132575000Y-99475000D03*
X132575000Y-99875000D03*
X132575000Y-100275000D03*
X132575000Y-100675000D03*
D23*
X131525000Y-101725000D03*
X131125000Y-101725000D03*
X130725000Y-101725000D03*
X130325000Y-101725000D03*
X129925000Y-101725000D03*
X129525000Y-101725000D03*
X129125000Y-101725000D03*
X128725000Y-101725000D03*
X128325000Y-101725000D03*
X127925000Y-101725000D03*
X127525000Y-101725000D03*
X127125000Y-101725000D03*
X126725000Y-101725000D03*
X126325000Y-101725000D03*
D24*
X125275000Y-100675000D03*
X125275000Y-100275000D03*
X125275000Y-99875000D03*
X125275000Y-99475000D03*
X125275000Y-99075000D03*
X125275000Y-98675000D03*
X125275000Y-98275000D03*
X125275000Y-97875000D03*
X125275000Y-97475000D03*
X125275000Y-97075000D03*
X125275000Y-96675000D03*
X125275000Y-96275000D03*
X125275000Y-95875000D03*
X125275000Y-95475000D03*
%TD*%
D25*
%TO.C,S7*%
X193125000Y-94675000D03*
X197275000Y-94675000D03*
X193125000Y-96825000D03*
X197275000Y-96825000D03*
%TD*%
D26*
%TO.C,R21*%
X117000000Y-85180000D03*
X117000000Y-86820000D03*
%TD*%
D27*
%TO.C,ANT1*%
X87374900Y-82977100D03*
X82625100Y-82977100D03*
D28*
X85000000Y-83904200D03*
X85000000Y-82050000D03*
%TD*%
D29*
%TO.C,C22*%
X190778500Y-88925300D03*
X190778500Y-90474700D03*
%TD*%
D30*
%TO.C,IC2*%
X138350000Y-91750000D03*
X138350000Y-92700000D03*
X138350000Y-93650000D03*
X140750000Y-93650000D03*
X140750000Y-91750000D03*
%TD*%
D31*
%TO.C,X2*%
X90950000Y-115250000D03*
D32*
X88950000Y-115250000D03*
X90950000Y-113250000D03*
X88950000Y-113250000D03*
%TD*%
D33*
%TO.C,XTAL1*%
X128300000Y-87300000D03*
X130500000Y-87300000D03*
X130500000Y-85600000D03*
X128300000Y-85600000D03*
%TD*%
D29*
%TO.C,C18*%
X170462500Y-112024700D03*
X170462500Y-110475300D03*
%TD*%
D34*
%TO.C,VR1*%
X161910150Y-108299999D03*
X161910150Y-109250000D03*
X161910150Y-110200001D03*
X164589850Y-110200001D03*
X164589850Y-108299999D03*
%TD*%
D31*
%TO.C,X4*%
X194800000Y-112000000D03*
D32*
X196800000Y-112000000D03*
%TD*%
D35*
%TO.C,D1*%
X108635000Y-110935000D03*
X108635000Y-114235000D03*
%TD*%
D36*
%TO.C,R17*%
X118225300Y-113320000D03*
X118225300Y-111680000D03*
%TD*%
D37*
%TO.C,C20*%
X126900000Y-112362000D03*
X126900000Y-113838000D03*
%TD*%
D38*
%TO.C,R22*%
X170680000Y-103600000D03*
X172150000Y-103600000D03*
%TD*%
D39*
%TO.C,S6*%
X197303500Y-90775000D03*
X193153500Y-90775000D03*
X197303500Y-88625000D03*
X193153500Y-88625000D03*
%TD*%
D40*
%TO.C,C4*%
X132700000Y-85750000D03*
X132700000Y-87248600D03*
%TD*%
D29*
%TO.C,C1*%
X128200000Y-105425300D03*
X128200000Y-106974700D03*
%TD*%
D38*
%TO.C,R13*%
X210165000Y-101500000D03*
X211635000Y-101500000D03*
%TD*%
D41*
%TO.C,IC3*%
X122530000Y-112350000D03*
X122530000Y-112850000D03*
X122530000Y-113350000D03*
X122530000Y-113850000D03*
D42*
X123500000Y-114070000D03*
D41*
X124470000Y-113850000D03*
X124470000Y-113350000D03*
X124470000Y-112850000D03*
X124470000Y-112350000D03*
D42*
X123500000Y-112130000D03*
%TD*%
D43*
%TO.C,R3*%
X143500000Y-94115000D03*
X143500000Y-95585000D03*
%TD*%
D44*
%TO.C,R15*%
X173897500Y-111950000D03*
X172427500Y-111950000D03*
%TD*%
D43*
%TO.C,R6*%
X104435000Y-111015000D03*
X104435000Y-112485000D03*
%TD*%
D38*
%TO.C,R5*%
X104500000Y-114585000D03*
X105970000Y-114585000D03*
%TD*%
D44*
%TO.C,R20*%
X131635000Y-105475300D03*
X130165000Y-105475300D03*
%TD*%
D29*
%TO.C,C10*%
X135350000Y-101974700D03*
X135350000Y-100425300D03*
%TD*%
D45*
%TO.C,C2*%
X135100000Y-93050000D03*
X135100000Y-91150000D03*
%TD*%
D38*
%TO.C,R4*%
X100600000Y-114585000D03*
X102070000Y-114585000D03*
%TD*%
D46*
%TO.C,LED1*%
X151980000Y-90350000D03*
X151980000Y-91250000D03*
X153580000Y-91250000D03*
X153580000Y-90350000D03*
%TD*%
%TO.C,LED2*%
X151935000Y-106525000D03*
X151935000Y-107425000D03*
X153535000Y-107425000D03*
X153535000Y-106525000D03*
%TD*%
D29*
%TO.C,C3*%
X133050000Y-92774700D03*
X133050000Y-91225300D03*
%TD*%
D38*
%TO.C,R9*%
X148365000Y-105200000D03*
X149835000Y-105200000D03*
%TD*%
D29*
%TO.C,C13*%
X131150000Y-92750000D03*
X131150000Y-91200600D03*
%TD*%
D47*
%TO.C,S1*%
X100525000Y-104696500D03*
X100525000Y-108846500D03*
X98375000Y-104696500D03*
X98375000Y-108846500D03*
%TD*%
D43*
%TO.C,R18*%
X116225300Y-110865000D03*
X116225300Y-112335000D03*
%TD*%
D47*
%TO.C,S3*%
X100525000Y-88675000D03*
X100525000Y-92825000D03*
X98375000Y-88675000D03*
X98375000Y-92825000D03*
%TD*%
D40*
%TO.C,C15*%
X126100000Y-87249300D03*
X126100000Y-85750700D03*
%TD*%
D38*
%TO.C,R11*%
X148280000Y-96700000D03*
X149750000Y-96700000D03*
%TD*%
D29*
%TO.C,C21*%
X120100000Y-113025300D03*
X120100000Y-114574700D03*
%TD*%
D48*
%TO.C,C14*%
X124774700Y-90050000D03*
X123225300Y-90050000D03*
%TD*%
D25*
%TO.C,S2*%
X97375000Y-97925000D03*
X101525000Y-97925000D03*
X97375000Y-100075000D03*
X101525000Y-100075000D03*
%TD*%
D29*
%TO.C,C12*%
X133500000Y-104700600D03*
X133500000Y-106250000D03*
%TD*%
D49*
%TO.C,C19*%
X122550000Y-110070000D03*
X124450000Y-110070000D03*
%TD*%
D38*
%TO.C,R10*%
X148280000Y-94200000D03*
X149750000Y-94200000D03*
%TD*%
D50*
%TO.C,IC1*%
X166650000Y-103900000D03*
X167600000Y-103900000D03*
X168550000Y-103900000D03*
X168550000Y-101500000D03*
X166650000Y-101500000D03*
%TD*%
D38*
%TO.C,R1*%
X120265000Y-103000000D03*
X121735000Y-103000000D03*
%TD*%
D25*
%TO.C,S5*%
X89125000Y-97925000D03*
X93275000Y-97925000D03*
X89125000Y-100075000D03*
X93275000Y-100075000D03*
%TD*%
D51*
%TO.C,C23*%
X124650000Y-93100000D03*
X125437400Y-93100000D03*
%TD*%
D25*
%TO.C,S4*%
X105725000Y-97925000D03*
X109875000Y-97925000D03*
X105725000Y-100075000D03*
X109875000Y-100075000D03*
%TD*%
D52*
%TO.C,IC4*%
X173925000Y-108200000D03*
X173925000Y-109150000D03*
X173925000Y-110100000D03*
X176200000Y-110100000D03*
X176200000Y-109150000D03*
X176200000Y-108200000D03*
%TD*%
D53*
%TO.C,R19*%
X199778500Y-90435000D03*
X199778500Y-88965000D03*
%TD*%
D38*
%TO.C,R23*%
X170680000Y-101750000D03*
X172150000Y-101750000D03*
%TD*%
D54*
%TO.C,C16*%
X180350000Y-107997500D03*
X180350000Y-109902500D03*
%TD*%
D38*
%TO.C,R2*%
X120265000Y-105700000D03*
X121735000Y-105700000D03*
%TD*%
D55*
%TO.C,L1*%
X92200000Y-83682400D03*
X92200000Y-84800000D03*
%TD*%
D56*
%TO.C,X3*%
X71010000Y-99635000D03*
D57*
X71010000Y-98365000D03*
X72280000Y-99635000D03*
X72280000Y-98365000D03*
X73550000Y-99635000D03*
X73550000Y-98365000D03*
%TD*%
D38*
%TO.C,R12*%
X148230000Y-91700000D03*
X149700000Y-91700000D03*
%TD*%
%TO.C,R14*%
X210165000Y-96100000D03*
X211635000Y-96100000D03*
%TD*%
D29*
%TO.C,C17*%
X178150000Y-108425300D03*
X178150000Y-109974700D03*
%TD*%
D58*
%TO.C,C7*%
X120752500Y-98600000D03*
X118847500Y-98600000D03*
%TD*%
D53*
%TO.C,R16*%
X114075300Y-112315000D03*
X114075300Y-110845000D03*
%TD*%
D38*
%TO.C,R7*%
X148265000Y-102500000D03*
X149735000Y-102500000D03*
%TD*%
D48*
%TO.C,C5*%
X120874700Y-94350000D03*
X119325300Y-94350000D03*
%TD*%
D25*
%TO.C,S8*%
X89125000Y-105125000D03*
X93275000Y-105125000D03*
X89125000Y-107275000D03*
X93275000Y-107275000D03*
%TD*%
D18*
%TO.C,C24*%
X119550000Y-89500000D03*
X118000000Y-89500000D03*
%TD*%
D38*
%TO.C,R8*%
X148265000Y-107600000D03*
X149735000Y-107600000D03*
%TD*%
M02*
