%TF.GenerationSoftware,KiCad,Pcbnew,9.0.7*%
%TF.CreationDate,2026-04-13T20:32:34-04:00*%
%TF.ProjectId,ESProbeScope3300,45535072-6f62-4655-9363-6f7065333330,rev?*%
%TF.SameCoordinates,Original*%
%TF.FileFunction,Copper,L2,Bot*%
%TF.FilePolarity,Positive*%
%FSLAX46Y46*%
G04 Gerber Fmt 4.6, Leading zero omitted, Abs format (unit mm)*
G04 Created by KiCad (PCBNEW 9.0.7) date 2026-04-13 20:32:34*
%MOMM*%
%LPD*%
G01*
G04 APERTURE LIST*
G04 Aperture macros list*
%AMFreePoly0*
4,1,17,-0.537120,1.953780,-0.533400,1.944800,-0.533400,1.117597,0.546100,1.117597,0.555080,1.113877,0.558800,1.104897,0.558800,-1.104900,0.555080,-1.113880,0.546100,-1.117600,-1.841500,-1.117600,-1.850480,-1.113880,-1.854200,-1.104900,-1.854200,1.944800,-1.850480,1.953780,-1.841500,1.957500,-0.546100,1.957500,-0.537120,1.953780,-0.537120,1.953780,$1*%
%AMFreePoly1*
4,1,17,1.850480,1.953780,1.854200,1.944800,1.854200,-1.104900,1.850480,-1.113880,1.841500,-1.117600,-0.546100,-1.117600,-0.555080,-1.113880,-0.558800,-1.104900,-0.558800,1.104897,-0.555080,1.113877,-0.546100,1.117597,0.533400,1.117597,0.533400,1.944800,0.537120,1.953780,0.546100,1.957500,1.841500,1.957500,1.850480,1.953780,1.850480,1.953780,$1*%
G04 Aperture macros list end*
%TA.AperFunction,SMDPad,CuDef*%
%ADD10FreePoly0,90.000000*%
%TD*%
%TA.AperFunction,SMDPad,CuDef*%
%ADD11FreePoly1,90.000000*%
%TD*%
%TA.AperFunction,SMDPad,CuDef*%
%ADD12R,0.812800X0.304800*%
%TD*%
%TA.AperFunction,ComponentPad*%
%ADD13R,1.350000X1.350000*%
%TD*%
%TA.AperFunction,ComponentPad*%
%ADD14O,1.350000X1.350000*%
%TD*%
%TA.AperFunction,ComponentPad*%
%ADD15R,0.850000X0.850000*%
%TD*%
%TA.AperFunction,ComponentPad*%
%ADD16C,0.850000*%
%TD*%
%TA.AperFunction,ComponentPad*%
%ADD17R,1.000000X1.000000*%
%TD*%
%TA.AperFunction,ComponentPad*%
%ADD18O,1.000000X1.000000*%
%TD*%
%TA.AperFunction,ViaPad*%
%ADD19C,0.600000*%
%TD*%
%TA.AperFunction,Conductor*%
%ADD20C,0.152400*%
%TD*%
G04 APERTURE END LIST*
D10*
%TO.P,LCD1,10*%
%TO.N,N/C*%
X133444800Y-92650000D03*
D11*
%TO.P,LCD1,9*%
X133444800Y-102350000D03*
D12*
%TO.P,LCD1,8,CS*%
%TO.N,IO35*%
X134944800Y-95750000D03*
%TO.P,LCD1,7,VDD*%
%TO.N,DCP_1*%
X134944800Y-96250000D03*
%TO.P,LCD1,6,SCL*%
%TO.N,IO34*%
X134944800Y-96750000D03*
%TO.P,LCD1,5,SDA*%
%TO.N,IO33*%
X134944800Y-97250000D03*
%TO.P,LCD1,4,RS*%
%TO.N,IO36*%
X134944800Y-97750000D03*
%TO.P,LCD1,3,RESET*%
%TO.N,IO37*%
X134944800Y-98250000D03*
%TO.P,LCD1,2,GND*%
%TO.N,GND*%
X134944800Y-98750000D03*
%TO.P,LCD1,1,LEDA*%
%TO.N,Net-(LCD1-LEDA)*%
X134944800Y-99250000D03*
%TD*%
D13*
%TO.P,X2,1,Pin_1*%
%TO.N,GND*%
X90950000Y-115250000D03*
D14*
%TO.P,X2,2,Pin_2*%
X88950000Y-115250000D03*
%TO.P,X2,3,Pin_3*%
X90950000Y-113250000D03*
%TO.P,X2,4,Pin_4*%
X88950000Y-113250000D03*
%TD*%
D13*
%TO.P,X4,1,Pin_1*%
%TO.N,VBAT*%
X194800000Y-112000000D03*
D14*
%TO.P,X4,2,Pin_2*%
%TO.N,GND*%
X196800000Y-112000000D03*
%TD*%
D15*
%TO.P,J2,1,Pin_1*%
%TO.N,Net-(IC4-OUT+)*%
X188225000Y-112750000D03*
D16*
%TO.P,J2,2,Pin_2*%
%TO.N,Net-(IC4-OUT-)*%
X186975000Y-112750000D03*
%TD*%
D17*
%TO.P,X3,1,Pin_1*%
%TO.N,Net-(X3-Pin_1)*%
X71010000Y-99635000D03*
D18*
%TO.P,X3,2,Pin_2*%
X71010000Y-98365000D03*
%TO.P,X3,3,Pin_3*%
X72280000Y-99635000D03*
%TO.P,X3,4,Pin_4*%
X72280000Y-98365000D03*
%TO.P,X3,5,Pin_5*%
X73550000Y-99635000D03*
%TO.P,X3,6,Pin_6*%
X73550000Y-98365000D03*
%TD*%
D19*
%TO.N,DCP_1*%
X165450000Y-106150000D03*
X136600000Y-93050000D03*
X155600000Y-106171400D03*
X207250000Y-89650000D03*
%TO.N,GND*%
X120000000Y-88000000D03*
X119800000Y-107800000D03*
X107750000Y-84750000D03*
X90000000Y-82250000D03*
X94000000Y-82250000D03*
X123950000Y-104600000D03*
X103750000Y-84750000D03*
X97750000Y-84750000D03*
X115800000Y-113800000D03*
X95750000Y-84750000D03*
X112000000Y-82250000D03*
X96000000Y-82250000D03*
X108000000Y-82250000D03*
X121400000Y-107200000D03*
X109750000Y-84750000D03*
X123900000Y-106100000D03*
X104000000Y-82250000D03*
X113750000Y-84750000D03*
X118500000Y-86500000D03*
X105750000Y-84750000D03*
X99750000Y-84750000D03*
X102000000Y-82250000D03*
X125600000Y-113000000D03*
X98000000Y-82250000D03*
X128300000Y-113500000D03*
X123900000Y-107400000D03*
X101750000Y-84750000D03*
X115500000Y-87000000D03*
X90500000Y-84750000D03*
X93750000Y-84750000D03*
X118000000Y-83000000D03*
X100000000Y-82250000D03*
X114000000Y-82250000D03*
X139050000Y-98000000D03*
X116000000Y-82250000D03*
X111750000Y-84750000D03*
X116700000Y-113800000D03*
X116500000Y-88500000D03*
X92000000Y-82250000D03*
X110000000Y-82250000D03*
X117900000Y-107800000D03*
X115500000Y-84800000D03*
X118500000Y-84500000D03*
X121000000Y-90000000D03*
X106000000Y-82250000D03*
X129800000Y-95400000D03*
%TO.N,VSYS*%
X183800000Y-105700000D03*
X182662500Y-107950000D03*
X121400000Y-108700000D03*
X157800000Y-109900000D03*
X213400000Y-109100000D03*
%TO.N,IO17*%
X129828600Y-103090317D03*
X169200000Y-106700000D03*
%TO.N,VBAT*%
X128262000Y-112362000D03*
X155500000Y-114300000D03*
%TO.N,EN*%
X188600000Y-88900000D03*
X125525000Y-94425000D03*
%TO.N,IO1*%
X112100000Y-90200000D03*
X122900000Y-96800000D03*
%TO.N,VUSB*%
X121400000Y-110550000D03*
X212950000Y-89650000D03*
X200094200Y-115305800D03*
%TO.N,Net-(IC3-INT)*%
X105100000Y-107900000D03*
X117700000Y-110400000D03*
%TO.N,IO16*%
X129344982Y-103731488D03*
X176200000Y-112500000D03*
%TO.N,IO34*%
X136474480Y-96690619D03*
%TO.N,IO36*%
X137003080Y-98002297D03*
%TO.N,IO33*%
X136474480Y-97443022D03*
%TO.N,IO35*%
X135978156Y-95706756D03*
%TO.N,IO37*%
X137150000Y-98750000D03*
%TO.N,Net-(LCD1-LEDA)*%
X141900000Y-98500000D03*
%TO.N,Net-(X3-Pin_1)*%
X99900000Y-111700000D03*
X85750000Y-108906000D03*
%TO.N,IO13*%
X126851997Y-104324704D03*
X145076223Y-110476223D03*
%TO.N,IO15*%
X128728600Y-103300000D03*
X146500000Y-107800000D03*
%TO.N,IO14*%
X127661551Y-104234361D03*
X144100000Y-111771400D03*
%TO.N,IO11*%
X125300000Y-103700000D03*
X146700000Y-94200000D03*
%TO.N,IO12*%
X126100000Y-104300000D03*
X146720000Y-96700000D03*
%TO.N,IO10*%
X142000000Y-90500000D03*
X126000000Y-102750000D03*
%TO.N,IO7*%
X122400000Y-101700000D03*
X104100000Y-106800000D03*
%TO.N,IO6*%
X121600000Y-101400000D03*
X103700000Y-105200000D03*
%TO.N,IO3*%
X123000000Y-98100000D03*
X103300000Y-88700000D03*
%TO.N,IO5*%
X120800000Y-101000000D03*
X104200000Y-101600000D03*
%TO.N,IO4*%
X124000000Y-98675000D03*
X94900000Y-96200000D03*
%TO.N,IO0*%
X124200000Y-96946400D03*
X188800000Y-92700000D03*
%TD*%
D20*
%TO.N,IO16*%
X176200000Y-113500000D02*
X176200000Y-112500000D01*
X175200000Y-114500000D02*
X176200000Y-113500000D01*
X168100000Y-114500000D02*
X175200000Y-114500000D01*
X160700000Y-107100000D02*
X168100000Y-114500000D01*
X129344982Y-103744982D02*
X132700000Y-107100000D01*
X132700000Y-107100000D02*
X160700000Y-107100000D01*
X129344982Y-103731488D02*
X129344982Y-103744982D01*
%TO.N,IO15*%
X128746400Y-103300000D02*
X128728600Y-103300000D01*
X128728600Y-103317800D02*
X128746400Y-103300000D01*
X146300000Y-107600000D02*
X132000000Y-107600000D01*
X146500000Y-107800000D02*
X146300000Y-107600000D01*
X132000000Y-107600000D02*
X128728600Y-104328600D01*
X128728600Y-104328600D02*
X128728600Y-103317800D01*
%TO.N,Net-(LCD1-LEDA)*%
X140500000Y-99900000D02*
X135594800Y-99900000D01*
X141900000Y-98500000D02*
X140500000Y-99900000D01*
X135594800Y-99900000D02*
X134944800Y-99250000D01*
%TO.N,GND*%
X135355800Y-98750000D02*
X134944800Y-98750000D01*
X135905800Y-99300000D02*
X135355800Y-98750000D01*
X137750000Y-99300000D02*
X135905800Y-99300000D01*
X139050000Y-98000000D02*
X137750000Y-99300000D01*
%TO.N,DCP_1*%
X136182466Y-96250000D02*
X134944800Y-96250000D01*
X136600000Y-95832466D02*
X136182466Y-96250000D01*
X136600000Y-93050000D02*
X136600000Y-95832466D01*
X155600000Y-106171400D02*
X165428600Y-106171400D01*
X165428600Y-106171400D02*
X165450000Y-106150000D01*
%TO.N,VSYS*%
X183800000Y-107000000D02*
X183800000Y-105700000D01*
X125900000Y-108000000D02*
X126100000Y-108200000D01*
X122200000Y-108000000D02*
X125900000Y-108000000D01*
X122100000Y-108000000D02*
X122200000Y-108000000D01*
X126100000Y-108200000D02*
X130505800Y-112605800D01*
X130505800Y-112605800D02*
X155094200Y-112605800D01*
X182662500Y-107937500D02*
X182662500Y-107950000D01*
X155094200Y-112605800D02*
X157800000Y-109900000D01*
X182662500Y-107950000D02*
X212250000Y-107950000D01*
X121400000Y-108700000D02*
X122100000Y-108000000D01*
X182850000Y-107950000D02*
X183800000Y-107000000D01*
X212250000Y-107950000D02*
X213400000Y-109100000D01*
X182662500Y-107950000D02*
X182850000Y-107950000D01*
%TO.N,IO17*%
X129900000Y-103700000D02*
X129900000Y-103161717D01*
X129900000Y-103161717D02*
X129828600Y-103090317D01*
X169200000Y-106700000D02*
X132900000Y-106700000D01*
X132900000Y-106700000D02*
X129900000Y-103700000D01*
%TO.N,VBAT*%
X155500000Y-114300000D02*
X130200000Y-114300000D01*
X130200000Y-114300000D02*
X128262000Y-112362000D01*
%TO.N,EN*%
X188600000Y-88900000D02*
X131050000Y-88900000D01*
X131050000Y-88900000D02*
X125525000Y-94425000D01*
%TO.N,IO1*%
X122900000Y-95500000D02*
X117600000Y-90200000D01*
X112100000Y-90200000D02*
X112000000Y-90200000D01*
X117600000Y-90200000D02*
X112100000Y-90200000D01*
X122900000Y-96800000D02*
X122900000Y-95500000D01*
%TO.N,VUSB*%
X167105800Y-115305800D02*
X200094200Y-115305800D01*
X121400000Y-110100000D02*
X121700000Y-109800000D01*
X121400000Y-110550000D02*
X121400000Y-110100000D01*
X165570400Y-113770400D02*
X167105800Y-115305800D01*
X127200000Y-109800000D02*
X131170400Y-113770400D01*
X121700000Y-109800000D02*
X127200000Y-109800000D01*
X131170400Y-113770400D02*
X165570400Y-113770400D01*
%TO.N,Net-(IC3-INT)*%
X117700000Y-109900000D02*
X115700000Y-107900000D01*
X117700000Y-110400000D02*
X117700000Y-109900000D01*
X115700000Y-107900000D02*
X105100000Y-107900000D01*
%TO.N,IO34*%
X136474480Y-96690619D02*
X136409381Y-96690619D01*
X136409381Y-96690619D02*
X136350000Y-96750000D01*
X136350000Y-96750000D02*
X134944800Y-96750000D01*
%TO.N,IO36*%
X137003080Y-98002297D02*
X136705377Y-98300000D01*
X136705377Y-98300000D02*
X136300000Y-98300000D01*
X136300000Y-98300000D02*
X135750000Y-97750000D01*
X135750000Y-97750000D02*
X134944800Y-97750000D01*
%TO.N,IO33*%
X136050000Y-97250000D02*
X134944800Y-97250000D01*
X136352403Y-97552403D02*
X136050000Y-97250000D01*
X136365099Y-97552403D02*
X136352403Y-97552403D01*
X136474480Y-97443022D02*
X136365099Y-97552403D01*
%TO.N,IO35*%
X135978156Y-95706756D02*
X135393244Y-95706756D01*
X135350000Y-95750000D02*
X134944800Y-95750000D01*
X135393244Y-95706756D02*
X135350000Y-95750000D01*
%TO.N,IO37*%
X135503600Y-98250000D02*
X134944800Y-98250000D01*
X137150000Y-98750000D02*
X136992800Y-98750000D01*
X135953600Y-98700000D02*
X135503600Y-98250000D01*
X136942800Y-98700000D02*
X135953600Y-98700000D01*
X136992800Y-98750000D02*
X136942800Y-98700000D01*
%TO.N,Net-(X3-Pin_1)*%
X99700000Y-111500000D02*
X99900000Y-111700000D01*
X85750000Y-108906000D02*
X88344000Y-111500000D01*
X88344000Y-111500000D02*
X99700000Y-111500000D01*
%TO.N,IO13*%
X145076223Y-111723777D02*
X145076223Y-110476223D01*
X125700000Y-107000000D02*
X131000000Y-112300000D01*
X126851997Y-104324704D02*
X125700000Y-105476701D01*
X125700000Y-105476701D02*
X125700000Y-107000000D01*
X131000000Y-112300000D02*
X144500000Y-112300000D01*
X144500000Y-112300000D02*
X145076223Y-111723777D01*
%TO.N,IO14*%
X132700000Y-111800000D02*
X144071400Y-111800000D01*
X127600000Y-104295912D02*
X127600000Y-106767534D01*
X132666233Y-111833767D02*
X132700000Y-111800000D01*
X144071400Y-111800000D02*
X144100000Y-111771400D01*
X127661551Y-104234361D02*
X127600000Y-104295912D01*
X127600000Y-106767534D02*
X132666233Y-111833767D01*
%TO.N,IO11*%
X125300000Y-103700000D02*
X124729600Y-103129600D01*
X124729600Y-103129600D02*
X124729600Y-97870400D01*
X124729600Y-97870400D02*
X132700000Y-89900000D01*
X142200000Y-89900000D02*
X146500000Y-94200000D01*
X146500000Y-94200000D02*
X146700000Y-94200000D01*
X132700000Y-89900000D02*
X142200000Y-89900000D01*
%TO.N,IO12*%
X141400000Y-91000000D02*
X146720000Y-96320000D01*
X146720000Y-96320000D02*
X146720000Y-96700000D01*
X126100000Y-104300000D02*
X126700000Y-103700000D01*
X125700000Y-97850000D02*
X132550000Y-91000000D01*
X125700000Y-101167534D02*
X125700000Y-97850000D01*
X132550000Y-91000000D02*
X141400000Y-91000000D01*
X126700000Y-102167534D02*
X125700000Y-101167534D01*
X126700000Y-103700000D02*
X126700000Y-102167534D01*
%TO.N,IO10*%
X126000000Y-102750000D02*
X126000000Y-101900000D01*
X125300000Y-101200000D02*
X125300000Y-97800000D01*
X132600000Y-90500000D02*
X142000000Y-90500000D01*
X125300000Y-97800000D02*
X132600000Y-90500000D01*
X126000000Y-101900000D02*
X125300000Y-101200000D01*
%TO.N,IO7*%
X104100000Y-106800000D02*
X117300000Y-106800000D01*
X117300000Y-106800000D02*
X122400000Y-101700000D01*
%TO.N,IO6*%
X104600000Y-106100000D02*
X116900000Y-106100000D01*
X116900000Y-106100000D02*
X121600000Y-101400000D01*
X103700000Y-105200000D02*
X104600000Y-106100000D01*
%TO.N,IO3*%
X123000000Y-98100000D02*
X122200000Y-97300000D01*
X115200000Y-90900000D02*
X105400000Y-90900000D01*
X117216284Y-90900000D02*
X115200000Y-90900000D01*
X122200000Y-95883716D02*
X117216284Y-90900000D01*
X105400000Y-90900000D02*
X103200000Y-88700000D01*
X122200000Y-97300000D02*
X122200000Y-95883716D01*
%TO.N,IO5*%
X106000000Y-105300000D02*
X104200000Y-103500000D01*
X104200000Y-103500000D02*
X104200000Y-101600000D01*
X116500000Y-105300000D02*
X106000000Y-105300000D01*
X120800000Y-101000000D02*
X116500000Y-105300000D01*
%TO.N,IO4*%
X107426168Y-104077200D02*
X99548968Y-96200000D01*
X124000000Y-98675000D02*
X122325000Y-98675000D01*
X117239084Y-104077200D02*
X117577200Y-103739084D01*
X117577200Y-103422800D02*
X117577200Y-103739084D01*
X117239084Y-104077200D02*
X107426168Y-104077200D01*
X122325000Y-98675000D02*
X117577200Y-103422800D01*
X99548968Y-96200000D02*
X94900000Y-96200000D01*
X94900000Y-96200000D02*
X94800000Y-96200000D01*
%TO.N,IO0*%
X132400000Y-89500000D02*
X124953600Y-96946400D01*
X185600000Y-89500000D02*
X132400000Y-89500000D01*
X188800000Y-92700000D02*
X185600000Y-89500000D01*
X124953600Y-96946400D02*
X124200000Y-96946400D01*
%TD*%
%TA.AperFunction,Conductor*%
%TO.N,GND*%
G36*
X220442539Y-81520185D02*
G01*
X220488294Y-81572989D01*
X220499500Y-81624500D01*
X220499500Y-116375500D01*
X220479815Y-116442539D01*
X220427011Y-116488294D01*
X220375500Y-116499500D01*
X92064240Y-116499500D01*
X91997201Y-116479815D01*
X91951446Y-116427011D01*
X91941502Y-116357853D01*
X91970527Y-116294297D01*
X91976559Y-116287819D01*
X91982190Y-116282187D01*
X92068350Y-116167093D01*
X92068354Y-116167086D01*
X92118596Y-116032379D01*
X92118598Y-116032372D01*
X92124999Y-115972844D01*
X92125000Y-115972827D01*
X92125000Y-115500000D01*
X91265686Y-115500000D01*
X91270080Y-115495606D01*
X91322741Y-115404394D01*
X91350000Y-115302661D01*
X91350000Y-115197339D01*
X91322741Y-115095606D01*
X91270080Y-115004394D01*
X91265686Y-115000000D01*
X92125000Y-115000000D01*
X92125000Y-114527172D01*
X92124999Y-114527155D01*
X92118598Y-114467627D01*
X92118596Y-114467620D01*
X92068354Y-114332913D01*
X92068350Y-114332906D01*
X91982190Y-114217812D01*
X91896766Y-114153863D01*
X91854896Y-114097929D01*
X91849912Y-114028238D01*
X91870760Y-113981711D01*
X91954949Y-113865834D01*
X92038915Y-113701043D01*
X92038917Y-113701037D01*
X92096067Y-113525144D01*
X92100049Y-113500000D01*
X91265686Y-113500000D01*
X91270080Y-113495606D01*
X91322741Y-113404394D01*
X91350000Y-113302661D01*
X91350000Y-113197339D01*
X91322741Y-113095606D01*
X91270080Y-113004394D01*
X91265686Y-113000000D01*
X92100050Y-113000000D01*
X92100049Y-112999999D01*
X92096067Y-112974855D01*
X92038917Y-112798962D01*
X92038915Y-112798956D01*
X91954947Y-112634162D01*
X91846245Y-112484545D01*
X91846241Y-112484540D01*
X91715459Y-112353758D01*
X91715454Y-112353754D01*
X91565837Y-112245052D01*
X91401043Y-112161084D01*
X91401037Y-112161082D01*
X91225144Y-112103932D01*
X91200000Y-112099950D01*
X91200000Y-112934314D01*
X91195606Y-112929920D01*
X91104394Y-112877259D01*
X91002661Y-112850000D01*
X90897339Y-112850000D01*
X90795606Y-112877259D01*
X90704394Y-112929920D01*
X90700000Y-112934314D01*
X90700000Y-112099950D01*
X90699999Y-112099950D01*
X90674855Y-112103932D01*
X90498962Y-112161082D01*
X90498956Y-112161084D01*
X90334162Y-112245052D01*
X90184545Y-112353754D01*
X90184540Y-112353758D01*
X90053762Y-112484536D01*
X90053757Y-112484542D01*
X90050316Y-112489279D01*
X89994985Y-112531943D01*
X89925372Y-112537921D01*
X89863577Y-112505313D01*
X89849684Y-112489279D01*
X89846242Y-112484542D01*
X89846237Y-112484536D01*
X89715459Y-112353758D01*
X89715454Y-112353754D01*
X89565837Y-112245052D01*
X89401043Y-112161084D01*
X89401037Y-112161082D01*
X89225144Y-112103932D01*
X89200000Y-112099950D01*
X89200000Y-112934314D01*
X89195606Y-112929920D01*
X89104394Y-112877259D01*
X89002661Y-112850000D01*
X88897339Y-112850000D01*
X88795606Y-112877259D01*
X88704394Y-112929920D01*
X88700000Y-112934314D01*
X88700000Y-112099950D01*
X88699999Y-112099950D01*
X88674855Y-112103932D01*
X88498962Y-112161082D01*
X88498956Y-112161084D01*
X88334162Y-112245052D01*
X88184545Y-112353754D01*
X88184540Y-112353758D01*
X88053758Y-112484540D01*
X88053754Y-112484545D01*
X87945052Y-112634162D01*
X87861084Y-112798956D01*
X87861082Y-112798962D01*
X87803932Y-112974855D01*
X87799950Y-112999999D01*
X87799950Y-113000000D01*
X88634314Y-113000000D01*
X88629920Y-113004394D01*
X88577259Y-113095606D01*
X88550000Y-113197339D01*
X88550000Y-113302661D01*
X88577259Y-113404394D01*
X88629920Y-113495606D01*
X88634314Y-113500000D01*
X87799950Y-113500000D01*
X87803932Y-113525144D01*
X87861082Y-113701037D01*
X87861084Y-113701043D01*
X87945052Y-113865837D01*
X88053754Y-114015454D01*
X88053758Y-114015459D01*
X88184536Y-114146237D01*
X88184542Y-114146242D01*
X88189279Y-114149684D01*
X88231943Y-114205015D01*
X88237921Y-114274628D01*
X88205313Y-114336423D01*
X88189279Y-114350316D01*
X88184542Y-114353757D01*
X88184536Y-114353762D01*
X88053758Y-114484540D01*
X88053754Y-114484545D01*
X87945052Y-114634162D01*
X87861084Y-114798956D01*
X87861082Y-114798962D01*
X87803932Y-114974855D01*
X87799950Y-114999999D01*
X87799950Y-115000000D01*
X88634314Y-115000000D01*
X88629920Y-115004394D01*
X88577259Y-115095606D01*
X88550000Y-115197339D01*
X88550000Y-115302661D01*
X88577259Y-115404394D01*
X88629920Y-115495606D01*
X88634314Y-115500000D01*
X87799950Y-115500000D01*
X87803932Y-115525144D01*
X87861082Y-115701037D01*
X87861084Y-115701043D01*
X87945052Y-115865837D01*
X88053754Y-116015454D01*
X88053758Y-116015459D01*
X88184540Y-116146241D01*
X88184545Y-116146245D01*
X88334162Y-116254947D01*
X88353920Y-116265015D01*
X88404716Y-116312989D01*
X88421511Y-116380810D01*
X88398974Y-116446945D01*
X88344259Y-116490397D01*
X88297625Y-116499500D01*
X81624500Y-116499500D01*
X81557461Y-116479815D01*
X81511706Y-116427011D01*
X81500500Y-116375500D01*
X81500500Y-108846375D01*
X85297100Y-108846375D01*
X85297100Y-108965625D01*
X85300440Y-108978089D01*
X85327964Y-109080814D01*
X85351764Y-109122035D01*
X85387590Y-109184087D01*
X85471913Y-109268410D01*
X85519119Y-109295664D01*
X85535016Y-109306429D01*
X85545189Y-109310716D01*
X85575187Y-109328036D01*
X85575191Y-109328037D01*
X85575193Y-109328038D01*
X85585439Y-109330782D01*
X85597428Y-109333995D01*
X85613486Y-109339500D01*
X86016363Y-109509296D01*
X86055884Y-109535881D01*
X88214225Y-111694222D01*
X88214230Y-111694224D01*
X88256604Y-111711776D01*
X88256605Y-111711776D01*
X88298426Y-111729099D01*
X88298427Y-111729099D01*
X88298429Y-111729100D01*
X88298430Y-111729100D01*
X88389570Y-111729100D01*
X99255417Y-111729100D01*
X99322456Y-111748785D01*
X99346760Y-111769240D01*
X99525139Y-111963540D01*
X99529280Y-111968050D01*
X99536302Y-111976410D01*
X99537586Y-111978083D01*
X99537589Y-111978086D01*
X99537590Y-111978087D01*
X99621913Y-112062410D01*
X99725187Y-112122036D01*
X99840375Y-112152900D01*
X99840377Y-112152900D01*
X99959623Y-112152900D01*
X99959625Y-112152900D01*
X100074813Y-112122036D01*
X100178087Y-112062410D01*
X100262410Y-111978087D01*
X100322036Y-111874813D01*
X100352900Y-111759625D01*
X100352900Y-111640375D01*
X100322036Y-111525187D01*
X100262410Y-111421913D01*
X100178087Y-111337590D01*
X100126450Y-111307777D01*
X100074814Y-111277964D01*
X100017219Y-111262532D01*
X99959625Y-111247100D01*
X99840375Y-111247100D01*
X99840373Y-111247100D01*
X99838571Y-111247337D01*
X99827283Y-111248300D01*
X99388912Y-111265579D01*
X99388908Y-111265580D01*
X99379462Y-111267750D01*
X99351696Y-111270900D01*
X88490259Y-111270900D01*
X88423220Y-111251215D01*
X88402578Y-111234581D01*
X86379881Y-109211884D01*
X86353296Y-109172362D01*
X86347928Y-109159625D01*
X86180198Y-108761650D01*
X86172036Y-108731187D01*
X86154718Y-108701193D01*
X86151710Y-108694055D01*
X86151707Y-108694049D01*
X86150594Y-108691408D01*
X86150429Y-108691016D01*
X86147355Y-108684584D01*
X86144044Y-108677653D01*
X86144038Y-108677642D01*
X86143007Y-108675722D01*
X86139627Y-108670928D01*
X86128142Y-108655161D01*
X86112411Y-108627915D01*
X86112410Y-108627913D01*
X86028086Y-108543589D01*
X85924814Y-108483964D01*
X85867219Y-108468532D01*
X85809625Y-108453100D01*
X85690375Y-108453100D01*
X85575185Y-108483964D01*
X85471913Y-108543590D01*
X85471910Y-108543592D01*
X85387592Y-108627910D01*
X85387590Y-108627913D01*
X85327964Y-108731185D01*
X85306505Y-108811273D01*
X85297100Y-108846375D01*
X81500500Y-108846375D01*
X81500500Y-107840375D01*
X104647100Y-107840375D01*
X104647100Y-107959624D01*
X104677964Y-108074814D01*
X104706832Y-108124813D01*
X104737590Y-108178087D01*
X104821913Y-108262410D01*
X104911348Y-108314046D01*
X104924944Y-108321896D01*
X104925187Y-108322036D01*
X105040375Y-108352900D01*
X105040377Y-108352900D01*
X105159622Y-108352900D01*
X105159625Y-108352900D01*
X105212273Y-108338793D01*
X105231130Y-108335163D01*
X105241358Y-108330999D01*
X105274813Y-108322036D01*
X105294747Y-108310526D01*
X105309996Y-108303063D01*
X105714946Y-108138247D01*
X105761691Y-108129100D01*
X115553741Y-108129100D01*
X115620780Y-108148785D01*
X115641422Y-108165419D01*
X117340512Y-109864509D01*
X117349297Y-109880598D01*
X117362152Y-109893668D01*
X117365694Y-109910626D01*
X117373997Y-109925832D01*
X117372689Y-109944117D01*
X117376437Y-109962061D01*
X117369080Y-109994576D01*
X117369013Y-109995524D01*
X117368649Y-109996485D01*
X117291011Y-110199484D01*
X117282584Y-110217183D01*
X117277963Y-110225187D01*
X117277962Y-110225190D01*
X117272089Y-110247105D01*
X117268139Y-110259290D01*
X117263220Y-110272153D01*
X117259035Y-110284637D01*
X117258490Y-110286517D01*
X117258477Y-110286600D01*
X117254384Y-110313187D01*
X117247100Y-110340372D01*
X117247100Y-110340375D01*
X117247100Y-110459625D01*
X117255339Y-110490375D01*
X117277964Y-110574814D01*
X117296751Y-110607353D01*
X117337590Y-110678087D01*
X117421913Y-110762410D01*
X117525187Y-110822036D01*
X117640375Y-110852900D01*
X117640377Y-110852900D01*
X117759623Y-110852900D01*
X117759625Y-110852900D01*
X117874813Y-110822036D01*
X117978087Y-110762410D01*
X118062410Y-110678087D01*
X118122036Y-110574813D01*
X118152900Y-110459625D01*
X118152900Y-110340375D01*
X118122036Y-110225187D01*
X118122035Y-110225186D01*
X118122035Y-110225184D01*
X118093987Y-110176606D01*
X118083962Y-110154487D01*
X118080698Y-110144878D01*
X117945730Y-109911254D01*
X117935433Y-109888346D01*
X117929100Y-109869297D01*
X117929100Y-109854429D01*
X117905754Y-109798067D01*
X117894222Y-109770225D01*
X117818774Y-109694777D01*
X117818269Y-109694119D01*
X117817611Y-109693614D01*
X115829775Y-107705778D01*
X115770233Y-107681115D01*
X115770232Y-107681114D01*
X115745571Y-107670900D01*
X105761694Y-107670900D01*
X105714949Y-107661752D01*
X105309998Y-107496935D01*
X105302112Y-107493725D01*
X105274813Y-107477964D01*
X105241365Y-107469001D01*
X105237689Y-107467505D01*
X105234190Y-107466081D01*
X105234189Y-107466080D01*
X105231140Y-107464840D01*
X105231138Y-107464839D01*
X105231130Y-107464836D01*
X105217223Y-107459920D01*
X105217210Y-107459916D01*
X105215134Y-107459289D01*
X105209492Y-107458312D01*
X105190086Y-107455261D01*
X105159630Y-107447100D01*
X105159625Y-107447100D01*
X105040375Y-107447100D01*
X104925185Y-107477964D01*
X104821913Y-107537590D01*
X104821910Y-107537592D01*
X104737592Y-107621910D01*
X104737590Y-107621913D01*
X104677964Y-107725185D01*
X104647100Y-107840375D01*
X81500500Y-107840375D01*
X81500500Y-105131902D01*
X81999500Y-105131902D01*
X81999500Y-105368097D01*
X82036446Y-105601368D01*
X82109433Y-105825996D01*
X82196353Y-105996585D01*
X82216657Y-106036433D01*
X82355483Y-106227510D01*
X82522490Y-106394517D01*
X82713567Y-106533343D01*
X82748643Y-106551215D01*
X82924003Y-106640566D01*
X82924005Y-106640566D01*
X82924008Y-106640568D01*
X83022706Y-106672637D01*
X83148631Y-106713553D01*
X83381903Y-106750500D01*
X83381908Y-106750500D01*
X83618097Y-106750500D01*
X83851368Y-106713553D01*
X83865516Y-106708956D01*
X84075992Y-106640568D01*
X84286433Y-106533343D01*
X84477510Y-106394517D01*
X84644517Y-106227510D01*
X84783343Y-106036433D01*
X84890568Y-105825992D01*
X84963553Y-105601368D01*
X84980523Y-105494222D01*
X85000500Y-105368097D01*
X85000500Y-105131902D01*
X84963553Y-104898631D01*
X84924345Y-104777964D01*
X84890568Y-104674008D01*
X84890566Y-104674005D01*
X84890566Y-104674003D01*
X84811068Y-104517981D01*
X84783343Y-104463567D01*
X84644517Y-104272490D01*
X84477510Y-104105483D01*
X84286433Y-103966657D01*
X84266055Y-103956274D01*
X84075996Y-103859433D01*
X83851368Y-103786446D01*
X83618097Y-103749500D01*
X83618092Y-103749500D01*
X83381908Y-103749500D01*
X83381903Y-103749500D01*
X83148631Y-103786446D01*
X82924003Y-103859433D01*
X82713566Y-103966657D01*
X82637514Y-104021913D01*
X82522490Y-104105483D01*
X82522488Y-104105485D01*
X82522487Y-104105485D01*
X82355485Y-104272487D01*
X82355485Y-104272488D01*
X82355483Y-104272490D01*
X82305639Y-104341094D01*
X82216657Y-104463566D01*
X82109433Y-104674003D01*
X82036446Y-104898631D01*
X81999500Y-105131902D01*
X81500500Y-105131902D01*
X81500500Y-103684110D01*
X81500500Y-103684108D01*
X81466392Y-103556814D01*
X81463947Y-103552580D01*
X81448131Y-103525185D01*
X81400500Y-103442686D01*
X81307314Y-103349500D01*
X79557314Y-101599500D01*
X79500250Y-101566554D01*
X79443187Y-101533608D01*
X79367316Y-101513279D01*
X79315892Y-101499500D01*
X79315891Y-101499500D01*
X70258676Y-101499500D01*
X70191637Y-101479815D01*
X70170995Y-101463181D01*
X69476159Y-100768345D01*
X69442674Y-100707022D01*
X69439840Y-100680664D01*
X69439840Y-98429307D01*
X70357099Y-98429307D01*
X70382189Y-98555438D01*
X70382191Y-98555444D01*
X70431406Y-98674261D01*
X70431411Y-98674270D01*
X70502859Y-98781198D01*
X70502862Y-98781202D01*
X70505075Y-98783415D01*
X70505863Y-98784859D01*
X70506725Y-98785909D01*
X70506526Y-98786072D01*
X70538560Y-98844738D01*
X70533576Y-98914430D01*
X70491704Y-98970363D01*
X70460742Y-98984173D01*
X70461623Y-98986300D01*
X70450338Y-98990973D01*
X70399766Y-99024765D01*
X70365971Y-99075343D01*
X70365970Y-99075345D01*
X70357100Y-99119940D01*
X70357100Y-100150054D01*
X70365972Y-100194658D01*
X70365973Y-100194661D01*
X70399765Y-100245233D01*
X70399766Y-100245234D01*
X70450342Y-100279028D01*
X70450343Y-100279028D01*
X70450345Y-100279029D01*
X70472642Y-100283464D01*
X70494943Y-100287900D01*
X71525056Y-100287899D01*
X71569658Y-100279028D01*
X71620234Y-100245234D01*
X71654028Y-100194658D01*
X71654028Y-100194654D01*
X71658703Y-100183372D01*
X71662049Y-100184758D01*
X71684643Y-100141532D01*
X71745347Y-100106938D01*
X71815118Y-100110655D01*
X71859048Y-100138326D01*
X71859091Y-100138275D01*
X71859503Y-100138613D01*
X71861584Y-100139924D01*
X71863797Y-100142137D01*
X71863801Y-100142140D01*
X71970729Y-100213588D01*
X71970735Y-100213591D01*
X71970736Y-100213592D01*
X72089556Y-100262809D01*
X72089560Y-100262809D01*
X72089561Y-100262810D01*
X72215692Y-100287900D01*
X72215695Y-100287900D01*
X72344307Y-100287900D01*
X72429165Y-100271019D01*
X72470444Y-100262809D01*
X72589264Y-100213592D01*
X72696199Y-100142140D01*
X72787140Y-100051199D01*
X72811898Y-100014146D01*
X72865509Y-99969341D01*
X72934834Y-99960634D01*
X72997862Y-99990788D01*
X73018103Y-100014147D01*
X73042861Y-100051201D01*
X73133797Y-100142137D01*
X73133801Y-100142140D01*
X73240729Y-100213588D01*
X73240735Y-100213591D01*
X73240736Y-100213592D01*
X73359556Y-100262809D01*
X73359560Y-100262809D01*
X73359561Y-100262810D01*
X73485692Y-100287900D01*
X73485695Y-100287900D01*
X73614307Y-100287900D01*
X73699165Y-100271019D01*
X73740444Y-100262809D01*
X73859264Y-100213592D01*
X73966199Y-100142140D01*
X74057140Y-100051199D01*
X74128592Y-99944264D01*
X74177809Y-99825444D01*
X74186019Y-99784165D01*
X74202900Y-99699307D01*
X74202900Y-99570692D01*
X74177810Y-99444561D01*
X74177809Y-99444560D01*
X74177809Y-99444556D01*
X74139742Y-99352654D01*
X74128593Y-99325738D01*
X74128588Y-99325729D01*
X74057140Y-99218801D01*
X74057137Y-99218797D01*
X73966201Y-99127861D01*
X73943540Y-99112720D01*
X73929146Y-99103101D01*
X73884341Y-99049491D01*
X73875634Y-98980166D01*
X73905788Y-98917138D01*
X73929146Y-98896898D01*
X73966199Y-98872140D01*
X74057140Y-98781199D01*
X74128592Y-98674264D01*
X74177809Y-98555444D01*
X74186325Y-98512634D01*
X74202900Y-98429307D01*
X74202900Y-98300692D01*
X74177810Y-98174561D01*
X74177809Y-98174560D01*
X74177809Y-98174556D01*
X74129376Y-98057629D01*
X74128593Y-98055738D01*
X74128588Y-98055729D01*
X74057140Y-97948801D01*
X74057137Y-97948797D01*
X73966202Y-97857862D01*
X73966198Y-97857859D01*
X73859270Y-97786411D01*
X73859261Y-97786406D01*
X73740444Y-97737191D01*
X73740438Y-97737189D01*
X73614307Y-97712100D01*
X73614305Y-97712100D01*
X73485695Y-97712100D01*
X73485693Y-97712100D01*
X73359561Y-97737189D01*
X73359555Y-97737191D01*
X73240738Y-97786406D01*
X73240729Y-97786411D01*
X73133801Y-97857859D01*
X73133797Y-97857862D01*
X73042862Y-97948797D01*
X73042859Y-97948801D01*
X73018102Y-97985853D01*
X72964489Y-98030658D01*
X72895164Y-98039365D01*
X72832137Y-98009210D01*
X72811898Y-97985853D01*
X72787140Y-97948801D01*
X72787137Y-97948797D01*
X72696202Y-97857862D01*
X72696198Y-97857859D01*
X72589270Y-97786411D01*
X72589261Y-97786406D01*
X72470444Y-97737191D01*
X72470438Y-97737189D01*
X72344307Y-97712100D01*
X72344305Y-97712100D01*
X72215695Y-97712100D01*
X72215693Y-97712100D01*
X72089561Y-97737189D01*
X72089555Y-97737191D01*
X71970738Y-97786406D01*
X71970729Y-97786411D01*
X71863801Y-97857859D01*
X71863797Y-97857862D01*
X71772862Y-97948797D01*
X71772859Y-97948801D01*
X71748102Y-97985853D01*
X71694489Y-98030658D01*
X71625164Y-98039365D01*
X71562137Y-98009210D01*
X71541898Y-97985853D01*
X71517140Y-97948801D01*
X71517137Y-97948797D01*
X71426202Y-97857862D01*
X71426198Y-97857859D01*
X71319270Y-97786411D01*
X71319261Y-97786406D01*
X71200444Y-97737191D01*
X71200438Y-97737189D01*
X71074307Y-97712100D01*
X71074305Y-97712100D01*
X70945695Y-97712100D01*
X70945693Y-97712100D01*
X70819561Y-97737189D01*
X70819555Y-97737191D01*
X70700738Y-97786406D01*
X70700729Y-97786411D01*
X70593801Y-97857859D01*
X70593797Y-97857862D01*
X70502862Y-97948797D01*
X70502859Y-97948801D01*
X70431411Y-98055729D01*
X70431406Y-98055738D01*
X70382191Y-98174555D01*
X70382189Y-98174561D01*
X70357100Y-98300692D01*
X70357100Y-98300695D01*
X70357100Y-98429305D01*
X70357100Y-98429307D01*
X70357099Y-98429307D01*
X69439840Y-98429307D01*
X69439840Y-97319336D01*
X69459525Y-97252297D01*
X69476159Y-97231655D01*
X70170995Y-96536819D01*
X70232318Y-96503334D01*
X70258676Y-96500500D01*
X79315890Y-96500500D01*
X79315892Y-96500500D01*
X79443186Y-96466392D01*
X79557314Y-96400500D01*
X79817439Y-96140375D01*
X94447100Y-96140375D01*
X94447100Y-96259625D01*
X94462532Y-96317219D01*
X94477964Y-96374814D01*
X94507777Y-96426450D01*
X94537590Y-96478087D01*
X94621913Y-96562410D01*
X94725187Y-96622036D01*
X94840375Y-96652900D01*
X94840377Y-96652900D01*
X94959622Y-96652900D01*
X94959625Y-96652900D01*
X95012273Y-96638793D01*
X95031130Y-96635163D01*
X95041358Y-96630999D01*
X95074813Y-96622036D01*
X95094747Y-96610526D01*
X95109996Y-96603063D01*
X95514946Y-96438247D01*
X95561691Y-96429100D01*
X99402709Y-96429100D01*
X99469748Y-96448785D01*
X99490390Y-96465419D01*
X104023606Y-100998635D01*
X104057091Y-101059958D01*
X104052107Y-101129650D01*
X104010235Y-101185583D01*
X103997926Y-101193702D01*
X103921919Y-101237585D01*
X103921910Y-101237592D01*
X103837592Y-101321910D01*
X103837590Y-101321913D01*
X103777964Y-101425185D01*
X103747100Y-101540375D01*
X103747100Y-101659628D01*
X103758674Y-101702822D01*
X103761203Y-101712260D01*
X103764836Y-101731130D01*
X103768999Y-101741362D01*
X103771003Y-101748839D01*
X103777962Y-101774808D01*
X103777962Y-101774810D01*
X103789472Y-101794746D01*
X103796935Y-101809998D01*
X103893094Y-102046258D01*
X103961751Y-102214947D01*
X103961752Y-102214948D01*
X103970900Y-102261693D01*
X103970900Y-103545572D01*
X103973803Y-103552580D01*
X103973802Y-103552580D01*
X104005775Y-103629771D01*
X104005777Y-103629774D01*
X104005778Y-103629775D01*
X105805779Y-105429775D01*
X105870225Y-105494221D01*
X105954429Y-105529100D01*
X105954430Y-105529100D01*
X116545569Y-105529100D01*
X116545570Y-105529100D01*
X116545571Y-105529100D01*
X116570233Y-105518884D01*
X116629775Y-105494222D01*
X120494119Y-101629876D01*
X120533635Y-101603296D01*
X120848297Y-101470679D01*
X120871030Y-101468093D01*
X120892790Y-101461000D01*
X120905087Y-101464219D01*
X120917716Y-101462783D01*
X120938241Y-101472899D01*
X120960381Y-101478696D01*
X120968985Y-101488052D01*
X120980386Y-101493672D01*
X120992183Y-101513279D01*
X121007676Y-101530126D01*
X121009855Y-101542649D01*
X121016409Y-101553540D01*
X121015733Y-101576413D01*
X121019658Y-101598960D01*
X121014483Y-101618724D01*
X121014346Y-101623379D01*
X121010720Y-101633099D01*
X120996700Y-101666365D01*
X120970116Y-101705886D01*
X116841422Y-105834581D01*
X116780099Y-105868066D01*
X116753741Y-105870900D01*
X104746259Y-105870900D01*
X104679220Y-105851215D01*
X104658578Y-105834581D01*
X104329881Y-105505884D01*
X104303296Y-105466362D01*
X104130198Y-105055650D01*
X104122036Y-105025187D01*
X104104718Y-104995193D01*
X104101710Y-104988055D01*
X104101707Y-104988049D01*
X104100429Y-104985016D01*
X104097355Y-104978584D01*
X104094044Y-104971653D01*
X104094038Y-104971642D01*
X104093007Y-104969722D01*
X104089627Y-104964928D01*
X104078142Y-104949161D01*
X104062411Y-104921915D01*
X104062410Y-104921913D01*
X103978086Y-104837589D01*
X103874814Y-104777964D01*
X103801081Y-104758208D01*
X103759625Y-104747100D01*
X103640375Y-104747100D01*
X103525185Y-104777964D01*
X103421913Y-104837590D01*
X103421910Y-104837592D01*
X103337592Y-104921910D01*
X103337590Y-104921913D01*
X103277964Y-105025185D01*
X103247100Y-105140375D01*
X103247100Y-105259624D01*
X103277964Y-105374814D01*
X103307777Y-105426450D01*
X103337590Y-105478087D01*
X103421913Y-105562410D01*
X103421914Y-105562411D01*
X103421916Y-105562412D01*
X103455382Y-105581733D01*
X103469119Y-105589664D01*
X103485016Y-105600429D01*
X103495189Y-105604716D01*
X103525187Y-105622036D01*
X103525191Y-105622037D01*
X103525193Y-105622038D01*
X103535439Y-105624782D01*
X103547428Y-105627995D01*
X103563486Y-105633500D01*
X103966363Y-105803296D01*
X104005884Y-105829881D01*
X104325735Y-106149732D01*
X104339812Y-106175512D01*
X104356233Y-106199868D01*
X104356364Y-106205824D01*
X104359220Y-106211055D01*
X104357124Y-106240357D01*
X104357771Y-106269721D01*
X104354661Y-106274802D01*
X104354236Y-106280747D01*
X104336633Y-106304261D01*
X104321300Y-106329316D01*
X104315934Y-106331910D01*
X104312364Y-106336680D01*
X104284845Y-106346943D01*
X104258398Y-106359733D01*
X104250626Y-106359706D01*
X104246900Y-106361097D01*
X104223113Y-106360510D01*
X104216530Y-106359711D01*
X104215132Y-106359289D01*
X104211596Y-106359112D01*
X104207237Y-106358583D01*
X104204947Y-106357597D01*
X104190086Y-106355261D01*
X104159630Y-106347100D01*
X104159625Y-106347100D01*
X104040375Y-106347100D01*
X103925185Y-106377964D01*
X103821913Y-106437590D01*
X103821910Y-106437592D01*
X103737592Y-106521910D01*
X103737590Y-106521913D01*
X103677964Y-106625185D01*
X103647100Y-106740375D01*
X103647100Y-106859624D01*
X103677964Y-106974814D01*
X103679854Y-106978087D01*
X103737590Y-107078087D01*
X103821913Y-107162410D01*
X103925187Y-107222036D01*
X104040375Y-107252900D01*
X104040377Y-107252900D01*
X104159622Y-107252900D01*
X104159625Y-107252900D01*
X104212273Y-107238793D01*
X104231130Y-107235163D01*
X104241358Y-107230999D01*
X104274813Y-107222036D01*
X104294747Y-107210526D01*
X104309996Y-107203063D01*
X104714946Y-107038247D01*
X104761691Y-107029100D01*
X117345570Y-107029100D01*
X117345571Y-107029100D01*
X117387564Y-107011706D01*
X117387565Y-107011706D01*
X117410649Y-107002143D01*
X117429775Y-106994222D01*
X122094119Y-102329876D01*
X122133635Y-102303296D01*
X122544346Y-102130199D01*
X122574813Y-102122036D01*
X122604813Y-102104715D01*
X122614983Y-102100429D01*
X122628351Y-102094041D01*
X122630275Y-102093008D01*
X122630280Y-102093003D01*
X122635165Y-102089559D01*
X122650835Y-102078143D01*
X122678087Y-102062410D01*
X122762410Y-101978087D01*
X122822036Y-101874813D01*
X122852900Y-101759625D01*
X122852900Y-101640375D01*
X122822036Y-101525187D01*
X122762410Y-101421913D01*
X122678087Y-101337590D01*
X122598665Y-101291735D01*
X122574814Y-101277964D01*
X122517219Y-101262532D01*
X122459625Y-101247100D01*
X122340375Y-101247100D01*
X122225184Y-101277964D01*
X122201334Y-101291735D01*
X122133434Y-101308206D01*
X122067407Y-101285354D01*
X122024770Y-101231789D01*
X122022036Y-101225187D01*
X121994771Y-101177964D01*
X121962410Y-101121913D01*
X121878087Y-101037590D01*
X121803875Y-100994743D01*
X121774814Y-100977964D01*
X121717219Y-100962532D01*
X121659625Y-100947100D01*
X121540375Y-100947100D01*
X121425184Y-100977964D01*
X121424653Y-100978272D01*
X121424146Y-100978394D01*
X121417673Y-100981076D01*
X121417254Y-100980066D01*
X121356752Y-100994743D01*
X121290726Y-100971891D01*
X121247536Y-100916969D01*
X121242879Y-100902977D01*
X121222035Y-100825185D01*
X121214046Y-100811348D01*
X121162410Y-100721913D01*
X121078087Y-100637590D01*
X120974813Y-100577964D01*
X120974811Y-100577963D01*
X120969720Y-100575024D01*
X120921505Y-100524456D01*
X120908283Y-100455849D01*
X120934251Y-100390985D01*
X120944032Y-100379964D01*
X122383578Y-98940419D01*
X122444901Y-98906934D01*
X122471259Y-98904100D01*
X123338308Y-98904100D01*
X123385053Y-98913248D01*
X123434824Y-98933505D01*
X123797880Y-99081270D01*
X123825187Y-99097036D01*
X123858638Y-99105999D01*
X123867315Y-99109530D01*
X123868861Y-99110160D01*
X123868909Y-99110178D01*
X123882746Y-99115069D01*
X123882758Y-99115072D01*
X123882776Y-99115079D01*
X123884867Y-99115710D01*
X123884873Y-99115710D01*
X123890624Y-99116707D01*
X123909904Y-99119735D01*
X123940375Y-99127900D01*
X123940379Y-99127900D01*
X124059623Y-99127900D01*
X124059625Y-99127900D01*
X124174813Y-99097036D01*
X124278087Y-99037410D01*
X124288819Y-99026678D01*
X124350142Y-98993193D01*
X124419834Y-98998177D01*
X124475767Y-99040049D01*
X124500184Y-99105513D01*
X124500500Y-99114359D01*
X124500500Y-103175169D01*
X124500501Y-103175175D01*
X124507754Y-103192685D01*
X124507756Y-103192688D01*
X124535377Y-103259374D01*
X124670117Y-103394114D01*
X124696701Y-103433634D01*
X124869802Y-103844353D01*
X124877964Y-103874813D01*
X124895276Y-103904797D01*
X124898280Y-103911925D01*
X124898283Y-103911930D01*
X124899555Y-103914948D01*
X124899558Y-103914957D01*
X124905961Y-103928357D01*
X124906989Y-103930272D01*
X124910408Y-103935120D01*
X124921856Y-103950835D01*
X124937590Y-103978087D01*
X125021913Y-104062410D01*
X125125187Y-104122036D01*
X125240375Y-104152900D01*
X125240377Y-104152900D01*
X125359623Y-104152900D01*
X125359625Y-104152900D01*
X125474813Y-104122036D01*
X125474819Y-104122032D01*
X125475645Y-104121691D01*
X125476403Y-104121609D01*
X125482664Y-104119932D01*
X125482925Y-104120908D01*
X125545114Y-104114221D01*
X125607594Y-104145494D01*
X125643248Y-104205582D01*
X125647100Y-104236251D01*
X125647100Y-104359624D01*
X125677964Y-104474814D01*
X125699147Y-104511503D01*
X125737590Y-104578087D01*
X125821913Y-104662410D01*
X125903376Y-104709443D01*
X125915507Y-104716447D01*
X125963723Y-104767014D01*
X125976945Y-104835621D01*
X125950977Y-104900486D01*
X125941188Y-104911515D01*
X125505779Y-105346924D01*
X125505777Y-105346927D01*
X125481113Y-105406470D01*
X125470900Y-105431129D01*
X125470900Y-107045568D01*
X125470901Y-107045573D01*
X125505775Y-107129769D01*
X125505776Y-107129771D01*
X125505778Y-107129775D01*
X125505780Y-107129777D01*
X125935222Y-107559219D01*
X125968707Y-107620542D01*
X125963723Y-107690234D01*
X125921851Y-107746167D01*
X125856387Y-107770584D01*
X125847541Y-107770900D01*
X122054428Y-107770900D01*
X122044084Y-107775185D01*
X121983206Y-107800401D01*
X121970226Y-107805778D01*
X121705887Y-108070116D01*
X121666364Y-108096700D01*
X121263481Y-108266498D01*
X121255632Y-108269805D01*
X121225187Y-108277964D01*
X121195211Y-108295270D01*
X121188094Y-108298270D01*
X121188085Y-108298275D01*
X121185017Y-108299568D01*
X121171572Y-108305997D01*
X121171557Y-108306005D01*
X121169657Y-108307026D01*
X121164728Y-108310504D01*
X121149092Y-108321896D01*
X121121919Y-108337585D01*
X121121910Y-108337592D01*
X121037592Y-108421910D01*
X121037590Y-108421913D01*
X120977964Y-108525185D01*
X120947100Y-108640375D01*
X120947100Y-108759624D01*
X120977964Y-108874814D01*
X121001156Y-108914983D01*
X121037590Y-108978087D01*
X121121913Y-109062410D01*
X121225187Y-109122036D01*
X121340375Y-109152900D01*
X121340377Y-109152900D01*
X121459623Y-109152900D01*
X121459625Y-109152900D01*
X121574813Y-109122036D01*
X121678087Y-109062410D01*
X121762410Y-108978087D01*
X121789668Y-108930873D01*
X121800429Y-108914983D01*
X121804715Y-108904813D01*
X121822036Y-108874813D01*
X121827994Y-108852572D01*
X121833501Y-108836509D01*
X122003297Y-108433633D01*
X122007704Y-108427081D01*
X122008730Y-108422368D01*
X122029875Y-108394120D01*
X122158579Y-108265416D01*
X122219900Y-108231934D01*
X122246258Y-108229100D01*
X125753740Y-108229100D01*
X125820779Y-108248785D01*
X125841421Y-108265418D01*
X125905777Y-108329773D01*
X125905777Y-108329774D01*
X126935222Y-109359219D01*
X126968707Y-109420542D01*
X126963723Y-109490234D01*
X126921851Y-109546167D01*
X126856387Y-109570584D01*
X126847541Y-109570900D01*
X121654426Y-109570900D01*
X121633618Y-109579520D01*
X121633617Y-109579520D01*
X121570230Y-109605775D01*
X121570222Y-109605780D01*
X121205780Y-109970222D01*
X121205778Y-109970224D01*
X121205778Y-109970225D01*
X121190456Y-110007217D01*
X121170900Y-110054429D01*
X121170900Y-110059166D01*
X121165289Y-110074022D01*
X121159498Y-110081691D01*
X121151947Y-110099757D01*
X121026398Y-110285075D01*
X121026390Y-110285089D01*
X121019842Y-110300684D01*
X121012901Y-110314674D01*
X120977964Y-110375186D01*
X120977964Y-110375187D01*
X120947100Y-110490375D01*
X120947100Y-110609625D01*
X120947310Y-110610408D01*
X120977964Y-110724814D01*
X120999669Y-110762407D01*
X121037590Y-110828087D01*
X121121913Y-110912410D01*
X121225187Y-110972036D01*
X121340375Y-111002900D01*
X121340377Y-111002900D01*
X121459623Y-111002900D01*
X121459625Y-111002900D01*
X121574813Y-110972036D01*
X121678087Y-110912410D01*
X121762410Y-110828087D01*
X121822036Y-110724813D01*
X121852900Y-110609625D01*
X121852900Y-110490375D01*
X121845992Y-110464593D01*
X121842500Y-110445947D01*
X121840942Y-110431650D01*
X121840941Y-110431648D01*
X121840941Y-110431644D01*
X121764982Y-110190328D01*
X121763631Y-110120474D01*
X121800261Y-110060976D01*
X121863243Y-110030727D01*
X121883262Y-110029100D01*
X127053741Y-110029100D01*
X127120780Y-110048785D01*
X127141422Y-110065419D01*
X130935222Y-113859219D01*
X130968707Y-113920542D01*
X130963723Y-113990234D01*
X130921851Y-114046167D01*
X130856387Y-114070584D01*
X130847541Y-114070900D01*
X130346259Y-114070900D01*
X130279220Y-114051215D01*
X130258578Y-114034581D01*
X128891881Y-112667884D01*
X128865296Y-112628362D01*
X128692198Y-112217650D01*
X128684036Y-112187187D01*
X128666718Y-112157193D01*
X128663710Y-112150055D01*
X128663707Y-112150049D01*
X128662429Y-112147016D01*
X128657925Y-112137590D01*
X128656044Y-112133653D01*
X128656038Y-112133642D01*
X128655007Y-112131722D01*
X128651627Y-112126928D01*
X128640142Y-112111161D01*
X128624411Y-112083915D01*
X128624410Y-112083913D01*
X128540086Y-111999589D01*
X128436814Y-111939964D01*
X128364328Y-111920542D01*
X128321625Y-111909100D01*
X128202375Y-111909100D01*
X128087185Y-111939964D01*
X127983913Y-111999590D01*
X127983910Y-111999592D01*
X127899592Y-112083910D01*
X127899590Y-112083913D01*
X127839964Y-112187185D01*
X127819022Y-112265345D01*
X127809100Y-112302375D01*
X127809100Y-112421625D01*
X127824532Y-112479219D01*
X127839964Y-112536814D01*
X127853136Y-112559627D01*
X127899590Y-112640087D01*
X127983913Y-112724410D01*
X127983914Y-112724411D01*
X127983916Y-112724412D01*
X128017382Y-112743733D01*
X128031119Y-112751664D01*
X128047016Y-112762429D01*
X128057189Y-112766716D01*
X128087187Y-112784036D01*
X128087191Y-112784037D01*
X128087193Y-112784038D01*
X128097439Y-112786782D01*
X128109428Y-112789995D01*
X128125486Y-112795500D01*
X128528363Y-112965296D01*
X128567884Y-112991881D01*
X130070225Y-114494222D01*
X130125334Y-114517048D01*
X130125335Y-114517049D01*
X130154426Y-114529099D01*
X130154427Y-114529099D01*
X130154429Y-114529100D01*
X130154430Y-114529100D01*
X130245570Y-114529100D01*
X154838308Y-114529100D01*
X154885053Y-114538248D01*
X155297880Y-114706270D01*
X155325187Y-114722036D01*
X155358638Y-114730999D01*
X155367315Y-114734530D01*
X155368861Y-114735160D01*
X155368909Y-114735178D01*
X155382746Y-114740069D01*
X155382758Y-114740072D01*
X155382776Y-114740079D01*
X155384867Y-114740710D01*
X155384873Y-114740710D01*
X155390624Y-114741707D01*
X155409904Y-114744735D01*
X155440375Y-114752900D01*
X155440379Y-114752900D01*
X155559623Y-114752900D01*
X155559625Y-114752900D01*
X155674813Y-114722036D01*
X155778087Y-114662410D01*
X155862410Y-114578087D01*
X155922036Y-114474813D01*
X155952900Y-114359625D01*
X155952900Y-114240375D01*
X155930183Y-114155592D01*
X155931846Y-114085743D01*
X155971009Y-114027881D01*
X156035238Y-114000377D01*
X156049958Y-113999500D01*
X165424141Y-113999500D01*
X165491180Y-114019185D01*
X165511822Y-114035819D01*
X166976023Y-115500020D01*
X166976024Y-115500020D01*
X166976026Y-115500022D01*
X167025346Y-115520450D01*
X167025349Y-115520452D01*
X167025350Y-115520452D01*
X167039798Y-115526436D01*
X167060229Y-115534900D01*
X167060230Y-115534900D01*
X167151371Y-115534900D01*
X199432508Y-115534900D01*
X199479253Y-115544048D01*
X199556059Y-115575308D01*
X199892080Y-115712070D01*
X199919387Y-115727836D01*
X199952838Y-115736799D01*
X199961515Y-115740330D01*
X199963061Y-115740960D01*
X199963109Y-115740978D01*
X199976946Y-115745869D01*
X199976958Y-115745872D01*
X199976976Y-115745879D01*
X199979067Y-115746510D01*
X199979073Y-115746510D01*
X199984824Y-115747507D01*
X200004104Y-115750535D01*
X200034575Y-115758700D01*
X200034579Y-115758700D01*
X200153823Y-115758700D01*
X200153825Y-115758700D01*
X200269013Y-115727836D01*
X200372287Y-115668210D01*
X200456610Y-115583887D01*
X200516236Y-115480613D01*
X200547100Y-115365425D01*
X200547100Y-115246175D01*
X200527740Y-115173920D01*
X206799499Y-115173920D01*
X206828340Y-115318907D01*
X206828343Y-115318917D01*
X206884912Y-115455488D01*
X206884919Y-115455501D01*
X206967048Y-115578415D01*
X206967051Y-115578419D01*
X207071580Y-115682948D01*
X207071584Y-115682951D01*
X207194498Y-115765080D01*
X207194511Y-115765087D01*
X207331082Y-115821656D01*
X207331087Y-115821658D01*
X207331091Y-115821658D01*
X207331092Y-115821659D01*
X207476079Y-115850500D01*
X207476082Y-115850500D01*
X207623920Y-115850500D01*
X207721462Y-115831096D01*
X207768913Y-115821658D01*
X207905495Y-115765084D01*
X208028416Y-115682951D01*
X208132951Y-115578416D01*
X208215084Y-115455495D01*
X208271658Y-115318913D01*
X208281096Y-115271462D01*
X208300500Y-115173920D01*
X213599499Y-115173920D01*
X213628340Y-115318907D01*
X213628343Y-115318917D01*
X213684912Y-115455488D01*
X213684919Y-115455501D01*
X213767048Y-115578415D01*
X213767051Y-115578419D01*
X213871580Y-115682948D01*
X213871584Y-115682951D01*
X213994498Y-115765080D01*
X213994511Y-115765087D01*
X214131082Y-115821656D01*
X214131087Y-115821658D01*
X214131091Y-115821658D01*
X214131092Y-115821659D01*
X214276079Y-115850500D01*
X214276082Y-115850500D01*
X214423920Y-115850500D01*
X214521462Y-115831096D01*
X214568913Y-115821658D01*
X214705495Y-115765084D01*
X214828416Y-115682951D01*
X214932951Y-115578416D01*
X215015084Y-115455495D01*
X215071658Y-115318913D01*
X215081096Y-115271462D01*
X215100500Y-115173920D01*
X215100500Y-115026079D01*
X215071659Y-114881092D01*
X215071658Y-114881091D01*
X215071658Y-114881087D01*
X215065824Y-114867003D01*
X215015087Y-114744511D01*
X215015080Y-114744498D01*
X214932951Y-114621584D01*
X214932948Y-114621580D01*
X214828419Y-114517051D01*
X214828411Y-114517045D01*
X214773225Y-114480171D01*
X214773175Y-114480138D01*
X214705501Y-114434919D01*
X214705488Y-114434912D01*
X214577509Y-114381902D01*
X216999500Y-114381902D01*
X216999500Y-114618097D01*
X217036446Y-114851368D01*
X217109433Y-115075996D01*
X217216657Y-115286433D01*
X217355483Y-115477510D01*
X217522490Y-115644517D01*
X217713567Y-115783343D01*
X217812991Y-115834002D01*
X217924003Y-115890566D01*
X217924005Y-115890566D01*
X217924008Y-115890568D01*
X218044412Y-115929689D01*
X218148631Y-115963553D01*
X218381903Y-116000500D01*
X218381908Y-116000500D01*
X218618097Y-116000500D01*
X218851368Y-115963553D01*
X219075992Y-115890568D01*
X219286433Y-115783343D01*
X219477510Y-115644517D01*
X219644517Y-115477510D01*
X219783343Y-115286433D01*
X219890568Y-115075992D01*
X219963553Y-114851368D01*
X219980442Y-114744737D01*
X220000500Y-114618097D01*
X220000500Y-114381902D01*
X219963553Y-114148631D01*
X219890566Y-113924003D01*
X219783342Y-113713566D01*
X219644517Y-113522490D01*
X219477510Y-113355483D01*
X219286433Y-113216657D01*
X219278143Y-113212433D01*
X219075996Y-113109433D01*
X218851368Y-113036446D01*
X218618097Y-112999500D01*
X218618092Y-112999500D01*
X218381908Y-112999500D01*
X218381903Y-112999500D01*
X218148631Y-113036446D01*
X217924003Y-113109433D01*
X217713566Y-113216657D01*
X217604550Y-113295862D01*
X217522490Y-113355483D01*
X217522488Y-113355485D01*
X217522487Y-113355485D01*
X217355485Y-113522487D01*
X217355485Y-113522488D01*
X217355483Y-113522490D01*
X217313370Y-113580453D01*
X217216657Y-113713566D01*
X217109433Y-113924003D01*
X217036446Y-114148631D01*
X216999500Y-114381902D01*
X214577509Y-114381902D01*
X214568917Y-114378343D01*
X214568907Y-114378340D01*
X214423920Y-114349500D01*
X214423918Y-114349500D01*
X214276082Y-114349500D01*
X214276080Y-114349500D01*
X214131092Y-114378340D01*
X214131082Y-114378343D01*
X213994511Y-114434912D01*
X213994498Y-114434919D01*
X213871586Y-114517047D01*
X213871580Y-114517051D01*
X213767051Y-114621580D01*
X213767048Y-114621584D01*
X213684919Y-114744498D01*
X213684912Y-114744511D01*
X213628343Y-114881082D01*
X213628340Y-114881092D01*
X213599500Y-115026079D01*
X213599500Y-115026082D01*
X213599500Y-115173918D01*
X213599500Y-115173920D01*
X213599499Y-115173920D01*
X208300500Y-115173920D01*
X208300500Y-115026079D01*
X208271659Y-114881092D01*
X208271658Y-114881091D01*
X208271658Y-114881087D01*
X208265824Y-114867003D01*
X208215087Y-114744511D01*
X208215080Y-114744498D01*
X208132951Y-114621584D01*
X208132948Y-114621580D01*
X208028419Y-114517051D01*
X208028414Y-114517047D01*
X207905501Y-114434919D01*
X207905488Y-114434912D01*
X207768917Y-114378343D01*
X207768907Y-114378340D01*
X207623920Y-114349500D01*
X207623918Y-114349500D01*
X207476082Y-114349500D01*
X207476080Y-114349500D01*
X207331092Y-114378340D01*
X207331082Y-114378343D01*
X207194511Y-114434912D01*
X207194498Y-114434919D01*
X207071586Y-114517047D01*
X207071580Y-114517051D01*
X206967051Y-114621580D01*
X206967048Y-114621584D01*
X206884919Y-114744498D01*
X206884912Y-114744511D01*
X206828343Y-114881082D01*
X206828340Y-114881092D01*
X206799500Y-115026079D01*
X206799500Y-115026082D01*
X206799500Y-115173918D01*
X206799500Y-115173920D01*
X206799499Y-115173920D01*
X200527740Y-115173920D01*
X200516236Y-115130987D01*
X200495809Y-115095606D01*
X200487948Y-115081990D01*
X200463924Y-115040381D01*
X200456610Y-115027713D01*
X200372287Y-114943390D01*
X200296315Y-114899527D01*
X200269014Y-114883764D01*
X200202163Y-114865852D01*
X200153825Y-114852900D01*
X200034575Y-114852900D01*
X200027112Y-114854899D01*
X199986234Y-114865851D01*
X199986235Y-114865852D01*
X199981940Y-114867003D01*
X199963070Y-114870636D01*
X199952834Y-114874801D01*
X199945355Y-114876806D01*
X199945353Y-114876805D01*
X199919390Y-114883763D01*
X199919385Y-114883765D01*
X199899451Y-114895273D01*
X199884202Y-114902734D01*
X199479250Y-115067552D01*
X199432505Y-115076700D01*
X167252058Y-115076700D01*
X167185019Y-115057015D01*
X167164377Y-115040381D01*
X166432846Y-114308850D01*
X165700175Y-113576178D01*
X165640633Y-113551515D01*
X165640632Y-113551514D01*
X165615971Y-113541300D01*
X131316658Y-113541300D01*
X131249619Y-113521615D01*
X131228977Y-113504981D01*
X130770577Y-113046581D01*
X130737092Y-112985258D01*
X130742076Y-112915566D01*
X130783948Y-112859633D01*
X130849412Y-112835216D01*
X130858258Y-112834900D01*
X155139770Y-112834900D01*
X155139771Y-112834900D01*
X155172831Y-112821206D01*
X155223975Y-112800022D01*
X157494119Y-110529876D01*
X157533635Y-110503296D01*
X157944346Y-110330199D01*
X157974813Y-110322036D01*
X158004813Y-110304715D01*
X158014983Y-110300429D01*
X158028351Y-110294041D01*
X158030275Y-110293008D01*
X158030280Y-110293003D01*
X158035165Y-110289559D01*
X158050835Y-110278143D01*
X158078087Y-110262410D01*
X158162410Y-110178087D01*
X158222036Y-110074813D01*
X158252900Y-109959625D01*
X158252900Y-109840375D01*
X158222036Y-109725187D01*
X158162410Y-109621913D01*
X158078087Y-109537590D01*
X158026450Y-109507777D01*
X157974814Y-109477964D01*
X157916752Y-109462407D01*
X157859625Y-109447100D01*
X157740375Y-109447100D01*
X157625185Y-109477964D01*
X157521913Y-109537589D01*
X157437589Y-109621913D01*
X157412558Y-109665264D01*
X157412559Y-109665265D01*
X157410335Y-109669116D01*
X157399570Y-109685015D01*
X157395281Y-109695190D01*
X157391408Y-109701899D01*
X157377965Y-109725183D01*
X157372004Y-109747426D01*
X157366497Y-109763484D01*
X157196701Y-110166362D01*
X157170116Y-110205885D01*
X155035622Y-112340381D01*
X154974299Y-112373866D01*
X154947941Y-112376700D01*
X145046659Y-112376700D01*
X144979620Y-112357015D01*
X144933865Y-112304211D01*
X144923921Y-112235053D01*
X144952946Y-112171497D01*
X144958978Y-112165019D01*
X145270442Y-111853554D01*
X145270441Y-111853554D01*
X145270444Y-111853552D01*
X145273747Y-111845576D01*
X145273752Y-111845570D01*
X145273750Y-111845570D01*
X145305323Y-111769348D01*
X145305323Y-111137915D01*
X145314471Y-111091170D01*
X145350397Y-111002900D01*
X145482491Y-110678346D01*
X145498259Y-110651036D01*
X145507223Y-110617578D01*
X145511386Y-110607352D01*
X145516302Y-110593446D01*
X145516933Y-110591355D01*
X145516933Y-110591348D01*
X145517933Y-110585578D01*
X145520961Y-110566308D01*
X145529122Y-110535850D01*
X145529123Y-110535847D01*
X145529123Y-110416600D01*
X145529123Y-110416598D01*
X145498259Y-110301410D01*
X145494004Y-110294041D01*
X145475742Y-110262410D01*
X145438633Y-110198136D01*
X145354310Y-110113813D01*
X145281511Y-110071782D01*
X145251037Y-110054187D01*
X145193442Y-110038755D01*
X145135848Y-110023323D01*
X145016598Y-110023323D01*
X144901408Y-110054187D01*
X144798136Y-110113813D01*
X144798133Y-110113815D01*
X144713815Y-110198133D01*
X144713813Y-110198136D01*
X144654187Y-110301408D01*
X144623323Y-110416598D01*
X144623323Y-110535851D01*
X144634897Y-110579045D01*
X144637426Y-110588483D01*
X144641059Y-110607353D01*
X144645222Y-110617585D01*
X144647226Y-110625062D01*
X144654185Y-110651031D01*
X144654185Y-110651033D01*
X144665695Y-110670969D01*
X144673158Y-110686221D01*
X144730898Y-110828086D01*
X144837974Y-111091170D01*
X144837975Y-111091171D01*
X144847123Y-111137916D01*
X144847123Y-111577518D01*
X144838478Y-111606955D01*
X144831955Y-111636946D01*
X144828199Y-111641962D01*
X144827438Y-111644557D01*
X144810808Y-111665194D01*
X144764228Y-111711775D01*
X144749426Y-111726577D01*
X144688102Y-111760061D01*
X144618410Y-111755076D01*
X144562477Y-111713205D01*
X144541972Y-111670991D01*
X144522036Y-111596587D01*
X144462410Y-111493313D01*
X144378087Y-111408990D01*
X144296952Y-111362146D01*
X144274814Y-111349364D01*
X144163282Y-111319480D01*
X144159625Y-111318500D01*
X144040375Y-111318500D01*
X143925187Y-111349364D01*
X143925186Y-111349364D01*
X143888287Y-111370668D01*
X143862462Y-111381107D01*
X143862571Y-111381412D01*
X143856826Y-111383462D01*
X143484912Y-111559033D01*
X143431977Y-111570900D01*
X132778724Y-111570900D01*
X132711685Y-111551215D01*
X132691043Y-111534581D01*
X127865419Y-106708956D01*
X127831934Y-106647633D01*
X127829100Y-106621275D01*
X127829100Y-104908916D01*
X127844483Y-104849097D01*
X128044136Y-104486587D01*
X128047820Y-104475798D01*
X128048251Y-104475188D01*
X128048293Y-104474438D01*
X128057776Y-104453877D01*
X128083587Y-104409174D01*
X128114451Y-104293986D01*
X128114451Y-104174736D01*
X128083587Y-104059548D01*
X128023961Y-103956274D01*
X127939638Y-103871951D01*
X127866588Y-103829775D01*
X127836365Y-103812325D01*
X127739784Y-103786447D01*
X127721176Y-103781461D01*
X127601926Y-103781461D01*
X127486736Y-103812325D01*
X127383464Y-103871950D01*
X127299228Y-103956187D01*
X127237904Y-103989671D01*
X127168213Y-103984687D01*
X127152424Y-103977502D01*
X127136837Y-103969047D01*
X127130084Y-103962294D01*
X127026810Y-103902668D01*
X127002410Y-103896130D01*
X126989529Y-103889143D01*
X126974724Y-103874420D01*
X126956896Y-103863553D01*
X126950449Y-103850280D01*
X126939986Y-103839876D01*
X126935490Y-103819486D01*
X126926368Y-103800705D01*
X126926683Y-103779535D01*
X126924944Y-103771645D01*
X126926879Y-103766412D01*
X126927035Y-103755955D01*
X126929100Y-103745573D01*
X126929100Y-103240375D01*
X128275700Y-103240375D01*
X128275700Y-103359625D01*
X128289803Y-103412260D01*
X128291904Y-103423177D01*
X128291905Y-103423179D01*
X128293436Y-103431133D01*
X128294684Y-103434199D01*
X128299603Y-103448839D01*
X128306562Y-103474808D01*
X128306562Y-103474810D01*
X128318072Y-103494746D01*
X128325535Y-103509998D01*
X128374285Y-103629774D01*
X128489123Y-103911930D01*
X128490352Y-103914948D01*
X128499500Y-103961693D01*
X128499500Y-104374169D01*
X128499499Y-104374169D01*
X128499500Y-104374171D01*
X128502410Y-104381196D01*
X128502411Y-104381198D01*
X128502411Y-104381199D01*
X128534375Y-104458369D01*
X128534376Y-104458371D01*
X128534378Y-104458375D01*
X131870225Y-107794222D01*
X131870230Y-107794224D01*
X131929766Y-107818885D01*
X131929767Y-107818885D01*
X131954426Y-107829099D01*
X131954427Y-107829099D01*
X131954429Y-107829100D01*
X131954430Y-107829100D01*
X132045570Y-107829100D01*
X145855417Y-107829100D01*
X145922456Y-107848785D01*
X145946760Y-107869240D01*
X146072109Y-108005777D01*
X146129280Y-108068050D01*
X146136302Y-108076410D01*
X146137586Y-108078083D01*
X146137589Y-108078086D01*
X146137590Y-108078087D01*
X146221913Y-108162410D01*
X146325187Y-108222036D01*
X146440375Y-108252900D01*
X146440377Y-108252900D01*
X146559623Y-108252900D01*
X146559625Y-108252900D01*
X146674813Y-108222036D01*
X146778087Y-108162410D01*
X146862410Y-108078087D01*
X146922036Y-107974813D01*
X146952900Y-107859625D01*
X146952900Y-107740375D01*
X146922036Y-107625187D01*
X146919354Y-107620542D01*
X146858477Y-107515101D01*
X146842003Y-107447201D01*
X146864855Y-107381174D01*
X146919775Y-107337983D01*
X146965863Y-107329100D01*
X160553741Y-107329100D01*
X160620780Y-107348785D01*
X160641422Y-107365419D01*
X164278903Y-111002899D01*
X167905779Y-114629775D01*
X167970225Y-114694221D01*
X168054429Y-114729100D01*
X168054430Y-114729100D01*
X175245569Y-114729100D01*
X175245570Y-114729100D01*
X175245571Y-114729100D01*
X175270233Y-114718884D01*
X175329775Y-114694222D01*
X176394222Y-113629774D01*
X176403852Y-113606522D01*
X176414651Y-113580453D01*
X176414652Y-113580450D01*
X176418947Y-113570080D01*
X176429100Y-113545571D01*
X176429100Y-113161692D01*
X176438248Y-113114947D01*
X176466073Y-113046581D01*
X176606268Y-112702123D01*
X176622036Y-112674813D01*
X176622276Y-112673918D01*
X186397100Y-112673918D01*
X186397100Y-112826082D01*
X186410813Y-112877259D01*
X186436483Y-112973062D01*
X186436484Y-112973063D01*
X186512565Y-113104839D01*
X186620161Y-113212435D01*
X186751939Y-113288517D01*
X186898918Y-113327900D01*
X186898921Y-113327900D01*
X187051079Y-113327900D01*
X187051082Y-113327900D01*
X187198061Y-113288517D01*
X187329839Y-113212435D01*
X187435422Y-113106851D01*
X187496741Y-113073369D01*
X187566433Y-113078353D01*
X187622367Y-113120224D01*
X187646164Y-113184027D01*
X187646504Y-113183994D01*
X187646630Y-113185275D01*
X187646784Y-113185688D01*
X187646849Y-113187500D01*
X187647100Y-113190053D01*
X187655972Y-113234658D01*
X187655973Y-113234661D01*
X187689765Y-113285233D01*
X187689766Y-113285234D01*
X187740342Y-113319028D01*
X187740343Y-113319028D01*
X187740345Y-113319029D01*
X187762642Y-113323464D01*
X187784943Y-113327900D01*
X188665056Y-113327899D01*
X188709658Y-113319028D01*
X188760234Y-113285234D01*
X188794028Y-113234658D01*
X188802900Y-113190057D01*
X188802899Y-112309944D01*
X188794028Y-112265342D01*
X188794026Y-112265340D01*
X188794026Y-112265338D01*
X188760234Y-112214766D01*
X188709659Y-112180973D01*
X188709658Y-112180972D01*
X188709657Y-112180971D01*
X188709656Y-112180971D01*
X188709654Y-112180970D01*
X188665059Y-112172100D01*
X187784945Y-112172100D01*
X187740341Y-112180972D01*
X187740338Y-112180973D01*
X187689766Y-112214765D01*
X187655971Y-112265343D01*
X187655970Y-112265345D01*
X187647099Y-112309940D01*
X187646503Y-112316003D01*
X187644075Y-112315763D01*
X187627415Y-112372503D01*
X187574611Y-112418258D01*
X187505453Y-112428202D01*
X187441897Y-112399177D01*
X187435419Y-112393145D01*
X187329840Y-112287566D01*
X187329839Y-112287565D01*
X187208743Y-112217650D01*
X187198063Y-112211484D01*
X187198062Y-112211483D01*
X187161316Y-112201637D01*
X187051082Y-112172100D01*
X186898918Y-112172100D01*
X186810730Y-112195729D01*
X186751937Y-112211483D01*
X186751936Y-112211484D01*
X186620159Y-112287566D01*
X186512566Y-112395159D01*
X186436484Y-112526936D01*
X186436483Y-112526937D01*
X186427724Y-112559627D01*
X186397100Y-112673918D01*
X176622276Y-112673918D01*
X176631000Y-112641355D01*
X176635163Y-112631129D01*
X176640079Y-112617223D01*
X176640710Y-112615132D01*
X176640710Y-112615125D01*
X176641710Y-112609355D01*
X176644738Y-112590085D01*
X176652899Y-112559627D01*
X176652900Y-112559624D01*
X176652900Y-112440377D01*
X176652900Y-112440375D01*
X176622036Y-112325187D01*
X176619087Y-112320080D01*
X176600315Y-112287566D01*
X176562410Y-112221913D01*
X176478087Y-112137590D01*
X176419790Y-112103932D01*
X176374814Y-112077964D01*
X176280379Y-112052661D01*
X176259625Y-112047100D01*
X176140375Y-112047100D01*
X176025185Y-112077964D01*
X175921913Y-112137590D01*
X175921910Y-112137592D01*
X175837592Y-112221910D01*
X175837590Y-112221913D01*
X175777964Y-112325185D01*
X175747100Y-112440375D01*
X175747100Y-112559628D01*
X175755261Y-112590085D01*
X175761203Y-112612260D01*
X175764836Y-112631130D01*
X175768999Y-112641362D01*
X175771003Y-112648839D01*
X175777962Y-112674808D01*
X175777962Y-112674810D01*
X175789472Y-112694746D01*
X175796935Y-112709998D01*
X175853917Y-112850000D01*
X175961751Y-113114947D01*
X175961752Y-113114948D01*
X175963269Y-113122699D01*
X175965877Y-113126758D01*
X175970900Y-113161693D01*
X175970900Y-113353741D01*
X175951215Y-113420780D01*
X175934581Y-113441422D01*
X175141422Y-114234581D01*
X175080099Y-114268066D01*
X175053741Y-114270900D01*
X168246258Y-114270900D01*
X168179219Y-114251215D01*
X168158577Y-114234581D01*
X165315528Y-111391532D01*
X165233936Y-111309940D01*
X193972100Y-111309940D01*
X193972100Y-112690054D01*
X193980972Y-112734658D01*
X193980973Y-112734661D01*
X194013967Y-112784038D01*
X194014766Y-112785234D01*
X194065342Y-112819028D01*
X194065343Y-112819028D01*
X194065345Y-112819029D01*
X194087642Y-112823464D01*
X194109943Y-112827900D01*
X195490056Y-112827899D01*
X195534658Y-112819028D01*
X195585234Y-112785234D01*
X195619028Y-112734658D01*
X195620110Y-112729217D01*
X195652493Y-112667306D01*
X195713207Y-112632730D01*
X195782977Y-112636467D01*
X195839650Y-112677331D01*
X195842046Y-112680520D01*
X195903754Y-112765454D01*
X195903758Y-112765459D01*
X196034540Y-112896241D01*
X196034545Y-112896245D01*
X196184162Y-113004947D01*
X196348956Y-113088915D01*
X196348959Y-113088916D01*
X196524845Y-113146064D01*
X196524858Y-113146067D01*
X196550000Y-113150049D01*
X196550000Y-112315686D01*
X196554394Y-112320080D01*
X196645606Y-112372741D01*
X196747339Y-112400000D01*
X196852661Y-112400000D01*
X196954394Y-112372741D01*
X197045606Y-112320080D01*
X197050000Y-112315686D01*
X197050000Y-113150048D01*
X197075141Y-113146067D01*
X197075154Y-113146064D01*
X197251040Y-113088916D01*
X197251043Y-113088915D01*
X197415837Y-113004947D01*
X197565454Y-112896245D01*
X197565459Y-112896241D01*
X197696241Y-112765459D01*
X197696245Y-112765454D01*
X197804947Y-112615837D01*
X197888915Y-112451043D01*
X197888917Y-112451037D01*
X197946067Y-112275144D01*
X197950049Y-112250000D01*
X197115686Y-112250000D01*
X197120080Y-112245606D01*
X197172741Y-112154394D01*
X197200000Y-112052661D01*
X197200000Y-111947339D01*
X197172741Y-111845606D01*
X197120080Y-111754394D01*
X197115686Y-111750000D01*
X197950050Y-111750000D01*
X197950049Y-111749999D01*
X197946067Y-111724855D01*
X197888917Y-111548962D01*
X197888915Y-111548956D01*
X197804947Y-111384162D01*
X197696245Y-111234545D01*
X197696241Y-111234540D01*
X197565459Y-111103758D01*
X197565454Y-111103754D01*
X197415837Y-110995052D01*
X197251043Y-110911084D01*
X197251037Y-110911082D01*
X197075144Y-110853932D01*
X197050000Y-110849950D01*
X197050000Y-111684314D01*
X197045606Y-111679920D01*
X196954394Y-111627259D01*
X196852661Y-111600000D01*
X196747339Y-111600000D01*
X196645606Y-111627259D01*
X196554394Y-111679920D01*
X196550000Y-111684314D01*
X196550000Y-110849950D01*
X196549999Y-110849950D01*
X196524855Y-110853932D01*
X196348962Y-110911082D01*
X196348956Y-110911084D01*
X196184162Y-110995052D01*
X196034545Y-111103754D01*
X196034540Y-111103758D01*
X195903758Y-111234540D01*
X195903754Y-111234545D01*
X195842046Y-111319480D01*
X195786716Y-111362146D01*
X195717103Y-111368125D01*
X195655308Y-111335520D01*
X195620951Y-111274681D01*
X195620117Y-111270818D01*
X195619028Y-111265342D01*
X195619027Y-111265340D01*
X195619026Y-111265338D01*
X195585234Y-111214766D01*
X195534659Y-111180973D01*
X195534658Y-111180972D01*
X195534657Y-111180971D01*
X195534656Y-111180971D01*
X195534654Y-111180970D01*
X195490059Y-111172100D01*
X194109945Y-111172100D01*
X194065341Y-111180972D01*
X194065338Y-111180973D01*
X194014766Y-111214765D01*
X193980971Y-111265343D01*
X193980970Y-111265345D01*
X193972100Y-111309940D01*
X165233936Y-111309940D01*
X164517442Y-110593446D01*
X161814372Y-107890375D01*
X182209600Y-107890375D01*
X182209600Y-108009624D01*
X182240464Y-108124814D01*
X182254304Y-108148785D01*
X182300090Y-108228087D01*
X182384413Y-108312410D01*
X182487687Y-108372036D01*
X182602875Y-108402900D01*
X182602877Y-108402900D01*
X182722122Y-108402900D01*
X182722125Y-108402900D01*
X182774773Y-108388793D01*
X182793630Y-108385163D01*
X182803858Y-108380999D01*
X182837313Y-108372036D01*
X182857247Y-108360526D01*
X182872496Y-108353063D01*
X183277446Y-108188247D01*
X183324191Y-108179100D01*
X212103741Y-108179100D01*
X212170780Y-108198785D01*
X212191422Y-108215419D01*
X212770115Y-108794112D01*
X212796700Y-108833634D01*
X212839302Y-108934716D01*
X212969802Y-109244353D01*
X212977964Y-109274813D01*
X212995276Y-109304797D01*
X212998280Y-109311925D01*
X212998283Y-109311930D01*
X212999570Y-109314983D01*
X213005958Y-109328351D01*
X213005961Y-109328357D01*
X213006989Y-109330272D01*
X213010408Y-109335120D01*
X213021856Y-109350835D01*
X213037590Y-109378087D01*
X213121913Y-109462410D01*
X213225187Y-109522036D01*
X213340375Y-109552900D01*
X213340377Y-109552900D01*
X213459623Y-109552900D01*
X213459625Y-109552900D01*
X213574813Y-109522036D01*
X213678087Y-109462410D01*
X213762410Y-109378087D01*
X213822036Y-109274813D01*
X213852900Y-109159625D01*
X213852900Y-109040375D01*
X213822036Y-108925187D01*
X213762410Y-108821913D01*
X213678087Y-108737590D01*
X213678085Y-108737588D01*
X213634736Y-108712560D01*
X213630883Y-108710336D01*
X213614983Y-108699570D01*
X213604806Y-108695281D01*
X213574813Y-108677964D01*
X213574812Y-108677963D01*
X213574811Y-108677963D01*
X213552569Y-108672003D01*
X213536506Y-108666495D01*
X213444967Y-108627915D01*
X213244894Y-108543592D01*
X213133634Y-108496700D01*
X213094112Y-108470115D01*
X212379777Y-107755780D01*
X212379775Y-107755778D01*
X212379771Y-107755776D01*
X212379769Y-107755775D01*
X212316995Y-107729773D01*
X212316992Y-107729773D01*
X212295571Y-107720900D01*
X183702459Y-107720900D01*
X183635420Y-107701215D01*
X183589665Y-107648411D01*
X183579721Y-107579253D01*
X183608746Y-107515697D01*
X183614778Y-107509219D01*
X183795894Y-107328103D01*
X183994222Y-107129775D01*
X184029100Y-107045570D01*
X184029100Y-106954430D01*
X184029100Y-106361692D01*
X184038248Y-106314947D01*
X184048616Y-106289473D01*
X184206268Y-105902123D01*
X184222036Y-105874813D01*
X184231000Y-105841355D01*
X184235163Y-105831129D01*
X184240079Y-105817223D01*
X184240710Y-105815132D01*
X184240710Y-105815125D01*
X184241710Y-105809355D01*
X184244738Y-105790085D01*
X184250566Y-105768335D01*
X184252900Y-105759625D01*
X184252900Y-105640375D01*
X184222036Y-105525187D01*
X184162410Y-105421913D01*
X184078087Y-105337590D01*
X184026450Y-105307777D01*
X183974814Y-105277964D01*
X183906366Y-105259624D01*
X183859625Y-105247100D01*
X183740375Y-105247100D01*
X183625185Y-105277964D01*
X183521913Y-105337590D01*
X183521910Y-105337592D01*
X183437592Y-105421910D01*
X183437590Y-105421913D01*
X183377964Y-105525185D01*
X183347100Y-105640375D01*
X183347100Y-105759628D01*
X183354593Y-105787592D01*
X183361203Y-105812260D01*
X183364836Y-105831130D01*
X183368999Y-105841362D01*
X183371003Y-105848839D01*
X183377962Y-105874808D01*
X183377962Y-105874810D01*
X183389472Y-105894746D01*
X183396935Y-105909998D01*
X183494508Y-106149732D01*
X183561751Y-106314947D01*
X183561752Y-106314948D01*
X183570900Y-106361693D01*
X183570900Y-106853740D01*
X183551215Y-106920779D01*
X183534581Y-106941421D01*
X183065228Y-107410773D01*
X183003905Y-107444258D01*
X182993484Y-107446064D01*
X182596020Y-107497573D01*
X182590749Y-107498347D01*
X182590028Y-107498465D01*
X182579931Y-107502433D01*
X182566680Y-107506796D01*
X182487690Y-107527962D01*
X182487687Y-107527963D01*
X182384413Y-107587590D01*
X182384410Y-107587592D01*
X182300092Y-107671910D01*
X182300090Y-107671913D01*
X182240464Y-107775185D01*
X182209600Y-107890375D01*
X161814372Y-107890375D01*
X161064778Y-107140781D01*
X161031293Y-107079458D01*
X161036277Y-107009766D01*
X161078149Y-106953833D01*
X161143613Y-106929416D01*
X161152459Y-106929100D01*
X168538308Y-106929100D01*
X168585053Y-106938248D01*
X168623345Y-106953833D01*
X168997880Y-107106270D01*
X169025187Y-107122036D01*
X169058638Y-107130999D01*
X169067315Y-107134530D01*
X169068861Y-107135160D01*
X169068909Y-107135178D01*
X169082746Y-107140069D01*
X169082758Y-107140072D01*
X169082776Y-107140079D01*
X169084867Y-107140710D01*
X169084873Y-107140710D01*
X169090624Y-107141707D01*
X169109904Y-107144735D01*
X169140375Y-107152900D01*
X169140379Y-107152900D01*
X169259623Y-107152900D01*
X169259625Y-107152900D01*
X169374813Y-107122036D01*
X169478087Y-107062410D01*
X169562410Y-106978087D01*
X169622036Y-106874813D01*
X169652900Y-106759625D01*
X169652900Y-106640375D01*
X169622036Y-106525187D01*
X169562410Y-106421913D01*
X169478087Y-106337590D01*
X169407670Y-106296934D01*
X169374814Y-106277964D01*
X169307963Y-106260052D01*
X169259625Y-106247100D01*
X169140375Y-106247100D01*
X169132912Y-106249099D01*
X169092034Y-106260051D01*
X169092035Y-106260052D01*
X169087740Y-106261203D01*
X169068870Y-106264836D01*
X169058634Y-106269001D01*
X169051155Y-106271006D01*
X169051153Y-106271005D01*
X169025190Y-106277963D01*
X169025185Y-106277965D01*
X169005251Y-106289473D01*
X168990002Y-106296934D01*
X168585050Y-106461752D01*
X168538305Y-106470900D01*
X165994492Y-106470900D01*
X165927453Y-106451215D01*
X165881698Y-106398411D01*
X165871754Y-106329253D01*
X165874717Y-106314807D01*
X165879506Y-106296934D01*
X165902900Y-106209625D01*
X165902900Y-106090375D01*
X165872036Y-105975187D01*
X165812410Y-105871913D01*
X165728087Y-105787590D01*
X165675671Y-105757327D01*
X165624814Y-105727964D01*
X165563285Y-105711478D01*
X165509625Y-105697100D01*
X165390375Y-105697100D01*
X165390373Y-105697100D01*
X165275189Y-105727962D01*
X165240160Y-105748186D01*
X165214440Y-105758377D01*
X165214649Y-105758988D01*
X165208880Y-105760957D01*
X164835009Y-105931156D01*
X164783633Y-105942300D01*
X156261694Y-105942300D01*
X156214949Y-105933152D01*
X155809998Y-105768335D01*
X155802112Y-105765125D01*
X155774813Y-105749364D01*
X155741365Y-105740401D01*
X155737689Y-105738905D01*
X155734190Y-105737481D01*
X155734189Y-105737480D01*
X155731140Y-105736240D01*
X155731138Y-105736239D01*
X155731130Y-105736236D01*
X155717223Y-105731320D01*
X155717210Y-105731316D01*
X155715134Y-105730689D01*
X155709492Y-105729712D01*
X155690086Y-105726661D01*
X155659630Y-105718500D01*
X155659625Y-105718500D01*
X155540375Y-105718500D01*
X155425185Y-105749364D01*
X155321913Y-105808990D01*
X155321910Y-105808992D01*
X155237592Y-105893310D01*
X155237590Y-105893313D01*
X155177964Y-105996585D01*
X155167287Y-106036433D01*
X155147100Y-106111775D01*
X155147100Y-106231025D01*
X155164033Y-106294222D01*
X155169549Y-106314807D01*
X155167886Y-106384657D01*
X155128723Y-106442519D01*
X155064494Y-106470023D01*
X155049774Y-106470900D01*
X133046258Y-106470900D01*
X132979219Y-106451215D01*
X132958577Y-106434581D01*
X130204798Y-103680801D01*
X130171313Y-103619478D01*
X130172962Y-103560080D01*
X130271682Y-103203018D01*
X130273054Y-103197696D01*
X130273245Y-103196898D01*
X130273297Y-103194402D01*
X130277497Y-103164879D01*
X130281500Y-103149942D01*
X130281500Y-103030694D01*
X130281500Y-103030692D01*
X130250636Y-102915504D01*
X130191010Y-102812230D01*
X130106687Y-102727907D01*
X130055050Y-102698094D01*
X130003414Y-102668281D01*
X129924665Y-102647181D01*
X129888225Y-102637417D01*
X129768975Y-102637417D01*
X129653785Y-102668281D01*
X129550513Y-102727907D01*
X129550510Y-102727909D01*
X129466192Y-102812227D01*
X129466190Y-102812230D01*
X129406564Y-102915502D01*
X129375700Y-103030692D01*
X129375700Y-103052234D01*
X129356015Y-103119273D01*
X129303211Y-103165028D01*
X129234053Y-103174972D01*
X129170497Y-103145947D01*
X129144314Y-103114235D01*
X129098394Y-103034703D01*
X129091010Y-103021913D01*
X129006687Y-102937590D01*
X128934820Y-102896097D01*
X128903414Y-102877964D01*
X128845819Y-102862532D01*
X128788225Y-102847100D01*
X128668975Y-102847100D01*
X128553785Y-102877964D01*
X128450513Y-102937590D01*
X128450510Y-102937592D01*
X128366192Y-103021910D01*
X128366190Y-103021913D01*
X128306564Y-103125185D01*
X128288478Y-103192685D01*
X128275700Y-103240375D01*
X126929100Y-103240375D01*
X126929100Y-102121963D01*
X126920180Y-102100429D01*
X126914652Y-102087084D01*
X126914651Y-102087081D01*
X126894221Y-102037758D01*
X125965419Y-101108956D01*
X125931934Y-101047633D01*
X125929100Y-101021275D01*
X125929100Y-100508500D01*
X131324400Y-100508500D01*
X131324400Y-101803900D01*
X131336418Y-101864323D01*
X131341602Y-101876839D01*
X131362215Y-101912542D01*
X131427061Y-101962298D01*
X131439577Y-101967482D01*
X131500000Y-101979500D01*
X132040303Y-101979500D01*
X132107342Y-101999185D01*
X132153097Y-102051989D01*
X132164303Y-102103500D01*
X132164303Y-102896100D01*
X132170014Y-102924813D01*
X132176321Y-102956524D01*
X132178468Y-102961708D01*
X132181505Y-102969039D01*
X132181506Y-102969040D01*
X132181508Y-102969044D01*
X132199091Y-102999500D01*
X132202118Y-103004742D01*
X132266964Y-103054498D01*
X132279480Y-103059682D01*
X132339903Y-103071700D01*
X132339905Y-103071700D01*
X134549698Y-103071700D01*
X134549700Y-103071700D01*
X134610123Y-103059682D01*
X134622639Y-103054498D01*
X134658342Y-103033885D01*
X134708098Y-102969039D01*
X134713282Y-102956523D01*
X134725300Y-102896100D01*
X134725300Y-101823234D01*
X215237000Y-101823234D01*
X215237000Y-101974766D01*
X215251768Y-102029880D01*
X215276219Y-102121136D01*
X215314102Y-102186750D01*
X215351985Y-102252365D01*
X215459135Y-102359515D01*
X215590365Y-102435281D01*
X215736734Y-102474500D01*
X215736736Y-102474500D01*
X215888264Y-102474500D01*
X215888266Y-102474500D01*
X216034635Y-102435281D01*
X216165865Y-102359515D01*
X216273015Y-102252365D01*
X216348781Y-102121135D01*
X216388000Y-101974766D01*
X216388000Y-101823234D01*
X216348781Y-101676865D01*
X216273015Y-101545635D01*
X216165865Y-101438485D01*
X216087097Y-101393008D01*
X216034636Y-101362719D01*
X215951245Y-101340375D01*
X215888266Y-101323500D01*
X215736734Y-101323500D01*
X215590363Y-101362719D01*
X215459135Y-101438485D01*
X215459132Y-101438487D01*
X215351987Y-101545632D01*
X215351985Y-101545635D01*
X215276219Y-101676863D01*
X215238345Y-101818216D01*
X215237000Y-101823234D01*
X134725300Y-101823234D01*
X134725300Y-100508500D01*
X134713282Y-100448077D01*
X134708098Y-100435561D01*
X134687485Y-100399858D01*
X134622639Y-100350102D01*
X134610125Y-100344919D01*
X134610124Y-100344918D01*
X134589982Y-100340912D01*
X134549700Y-100332900D01*
X131500000Y-100332900D01*
X131469788Y-100338909D01*
X131439575Y-100344918D01*
X131439573Y-100344920D01*
X131427059Y-100350103D01*
X131427055Y-100350105D01*
X131391360Y-100370713D01*
X131391358Y-100370715D01*
X131341602Y-100435561D01*
X131336420Y-100448072D01*
X131336418Y-100448075D01*
X131336418Y-100448077D01*
X131324400Y-100508500D01*
X125929100Y-100508500D01*
X125929100Y-98549755D01*
X134038400Y-98549755D01*
X134038400Y-98597600D01*
X134820800Y-98597600D01*
X134829485Y-98600150D01*
X134838447Y-98598862D01*
X134862487Y-98609840D01*
X134887839Y-98617285D01*
X134893766Y-98624125D01*
X134902003Y-98627887D01*
X134916292Y-98650121D01*
X134933594Y-98670089D01*
X134935881Y-98680603D01*
X134939777Y-98686665D01*
X134944800Y-98721600D01*
X134944800Y-98778400D01*
X134925115Y-98845439D01*
X134872311Y-98891194D01*
X134820800Y-98902400D01*
X134038400Y-98902400D01*
X134038400Y-98950244D01*
X134044801Y-99009772D01*
X134044803Y-99009779D01*
X134095045Y-99144486D01*
X134095049Y-99144493D01*
X134181209Y-99259587D01*
X134181212Y-99259590D01*
X134296306Y-99345750D01*
X134296315Y-99345755D01*
X134312447Y-99351772D01*
X134368381Y-99393643D01*
X134390732Y-99443761D01*
X134394371Y-99462055D01*
X134394373Y-99462061D01*
X134428165Y-99512633D01*
X134428166Y-99512634D01*
X134478742Y-99546428D01*
X134478743Y-99546428D01*
X134478745Y-99546429D01*
X134501042Y-99550864D01*
X134523343Y-99555300D01*
X134795258Y-99555299D01*
X134811394Y-99559768D01*
X134826515Y-99559303D01*
X134859055Y-99572970D01*
X135057761Y-99692193D01*
X135081645Y-99710841D01*
X135465024Y-100094221D01*
X135465025Y-100094221D01*
X135465026Y-100094222D01*
X135514346Y-100114650D01*
X135514349Y-100114652D01*
X135514350Y-100114652D01*
X135524567Y-100118884D01*
X135549229Y-100129100D01*
X140545569Y-100129100D01*
X140545570Y-100129100D01*
X140545571Y-100129100D01*
X140570233Y-100118884D01*
X140629775Y-100094222D01*
X141594119Y-99129876D01*
X141633635Y-99103296D01*
X142044346Y-98930199D01*
X142074813Y-98922036D01*
X142104813Y-98904715D01*
X142114983Y-98900429D01*
X142128351Y-98894041D01*
X142130275Y-98893008D01*
X142130280Y-98893003D01*
X142135165Y-98889559D01*
X142150835Y-98878143D01*
X142178087Y-98862410D01*
X142262410Y-98778087D01*
X142322036Y-98674813D01*
X142352900Y-98559625D01*
X142352900Y-98440375D01*
X142322036Y-98325187D01*
X142262410Y-98221913D01*
X142178087Y-98137590D01*
X142091822Y-98087784D01*
X142074814Y-98077964D01*
X141991863Y-98055738D01*
X141959625Y-98047100D01*
X141840375Y-98047100D01*
X141725185Y-98077964D01*
X141621913Y-98137589D01*
X141537589Y-98221913D01*
X141512558Y-98265264D01*
X141512559Y-98265265D01*
X141510335Y-98269116D01*
X141499570Y-98285015D01*
X141495281Y-98295190D01*
X141491408Y-98301899D01*
X141477965Y-98325183D01*
X141472004Y-98347426D01*
X141466497Y-98363484D01*
X141296701Y-98766362D01*
X141270116Y-98805885D01*
X140441422Y-99634581D01*
X140380099Y-99668066D01*
X140353741Y-99670900D01*
X135741058Y-99670900D01*
X135711617Y-99662255D01*
X135681631Y-99655732D01*
X135676615Y-99651977D01*
X135674019Y-99651215D01*
X135653377Y-99634581D01*
X135562465Y-99543669D01*
X135528980Y-99482346D01*
X135533964Y-99412654D01*
X135575836Y-99356721D01*
X135590725Y-99347153D01*
X135593292Y-99345751D01*
X135708387Y-99259590D01*
X135708390Y-99259587D01*
X135794550Y-99144493D01*
X135794554Y-99144486D01*
X135844802Y-99009767D01*
X135886673Y-98953833D01*
X135952138Y-98929416D01*
X135960984Y-98929100D01*
X135999170Y-98929100D01*
X136477026Y-98929100D01*
X136534416Y-98943180D01*
X136643240Y-99000000D01*
X136866032Y-99116325D01*
X136900965Y-99134564D01*
X136909623Y-99137361D01*
X136933501Y-99147968D01*
X136975184Y-99172035D01*
X136975186Y-99172035D01*
X136975187Y-99172036D01*
X137090375Y-99202900D01*
X137090377Y-99202900D01*
X137209623Y-99202900D01*
X137209625Y-99202900D01*
X137324813Y-99172036D01*
X137428087Y-99112410D01*
X137512410Y-99028087D01*
X137572036Y-98924813D01*
X137602900Y-98809625D01*
X137602900Y-98690375D01*
X137572036Y-98575187D01*
X137512410Y-98471913D01*
X137428087Y-98387590D01*
X137422340Y-98381843D01*
X137423236Y-98380946D01*
X137386885Y-98331162D01*
X137382730Y-98261416D01*
X137396186Y-98227216D01*
X137425116Y-98177110D01*
X137455980Y-98061922D01*
X137455980Y-97942672D01*
X137425116Y-97827484D01*
X137423581Y-97824826D01*
X137401399Y-97786406D01*
X137365490Y-97724210D01*
X137281167Y-97639887D01*
X137229530Y-97610074D01*
X137177894Y-97580261D01*
X137093517Y-97557653D01*
X137062705Y-97549397D01*
X137051380Y-97549397D01*
X136984341Y-97529712D01*
X136938586Y-97476908D01*
X136927380Y-97425397D01*
X136927380Y-97383399D01*
X136927380Y-97383397D01*
X136896516Y-97268209D01*
X136836890Y-97164935D01*
X136826456Y-97154501D01*
X136792971Y-97093178D01*
X136797955Y-97023486D01*
X136826454Y-96979141D01*
X136836890Y-96968706D01*
X136896516Y-96865432D01*
X136927380Y-96750244D01*
X136927380Y-96630994D01*
X136896516Y-96515806D01*
X136893877Y-96511236D01*
X136883637Y-96493500D01*
X136836890Y-96412532D01*
X136752567Y-96328209D01*
X136686908Y-96290300D01*
X136638694Y-96239733D01*
X136625472Y-96171126D01*
X136651440Y-96106261D01*
X136661213Y-96095249D01*
X136794222Y-95962241D01*
X136810927Y-95921910D01*
X136822626Y-95893667D01*
X136822627Y-95893664D01*
X136825030Y-95887863D01*
X136829100Y-95878037D01*
X136829100Y-93711692D01*
X136838248Y-93664947D01*
X137006268Y-93252123D01*
X137022036Y-93224813D01*
X137031000Y-93191355D01*
X137035163Y-93181129D01*
X137040079Y-93167223D01*
X137040710Y-93165132D01*
X137040710Y-93165125D01*
X137041710Y-93159355D01*
X137044738Y-93140085D01*
X137049574Y-93122036D01*
X137052900Y-93109625D01*
X137052900Y-92990375D01*
X137022036Y-92875187D01*
X136962410Y-92771913D01*
X136878087Y-92687590D01*
X136796313Y-92640377D01*
X136774814Y-92627964D01*
X136717219Y-92612532D01*
X136659625Y-92597100D01*
X136540375Y-92597100D01*
X136425185Y-92627964D01*
X136321913Y-92687590D01*
X136321910Y-92687592D01*
X136237592Y-92771910D01*
X136237590Y-92771913D01*
X136177964Y-92875185D01*
X136147100Y-92990375D01*
X136147100Y-93109628D01*
X136158695Y-93152900D01*
X136161203Y-93162260D01*
X136164836Y-93181130D01*
X136168999Y-93191362D01*
X136171003Y-93198839D01*
X136177962Y-93224808D01*
X136177962Y-93224810D01*
X136189472Y-93244746D01*
X136196935Y-93259998D01*
X136361751Y-93664947D01*
X136361752Y-93664948D01*
X136370900Y-93711693D01*
X136370900Y-95195768D01*
X136351215Y-95262807D01*
X136298411Y-95308562D01*
X136229253Y-95318506D01*
X136184900Y-95303155D01*
X136152972Y-95284721D01*
X136152969Y-95284720D01*
X136037781Y-95253856D01*
X135918531Y-95253856D01*
X135918529Y-95253856D01*
X135803348Y-95284717D01*
X135803347Y-95284718D01*
X135803343Y-95284719D01*
X135803343Y-95284720D01*
X135782027Y-95297025D01*
X135771950Y-95302844D01*
X135746772Y-95313862D01*
X135741180Y-95315600D01*
X135455668Y-95436168D01*
X135446165Y-95438030D01*
X135440865Y-95441343D01*
X135419053Y-95443342D01*
X135405870Y-95445926D01*
X135395143Y-95445791D01*
X135392149Y-95445060D01*
X135345363Y-95440830D01*
X135338491Y-95441237D01*
X135322128Y-95444700D01*
X135308388Y-95444700D01*
X135308387Y-95444700D01*
X134523345Y-95444700D01*
X134478741Y-95453572D01*
X134478738Y-95453573D01*
X134428166Y-95487365D01*
X134394371Y-95537943D01*
X134394370Y-95537945D01*
X134385500Y-95582540D01*
X134385500Y-95917454D01*
X134396755Y-95974037D01*
X134392828Y-95974817D01*
X134397897Y-96022039D01*
X134396744Y-96025962D01*
X134396754Y-96025964D01*
X134385500Y-96082540D01*
X134385500Y-96417454D01*
X134396755Y-96474037D01*
X134392828Y-96474817D01*
X134397897Y-96522039D01*
X134396744Y-96525962D01*
X134396754Y-96525964D01*
X134385500Y-96582540D01*
X134385500Y-96917454D01*
X134396755Y-96974037D01*
X134392828Y-96974817D01*
X134397897Y-97022039D01*
X134396744Y-97025962D01*
X134396754Y-97025964D01*
X134385500Y-97082540D01*
X134385500Y-97417454D01*
X134396755Y-97474037D01*
X134392828Y-97474817D01*
X134397897Y-97522039D01*
X134396744Y-97525962D01*
X134396754Y-97525964D01*
X134385500Y-97582540D01*
X134385500Y-97917454D01*
X134396755Y-97974037D01*
X134392828Y-97974817D01*
X134397897Y-98022039D01*
X134397203Y-98025582D01*
X134394700Y-98037450D01*
X134394372Y-98037942D01*
X134390620Y-98056801D01*
X134390446Y-98057629D01*
X134374229Y-98087784D01*
X134358343Y-98118151D01*
X134357657Y-98118600D01*
X134357354Y-98119165D01*
X134353731Y-98121173D01*
X134312452Y-98148226D01*
X134296309Y-98154247D01*
X134296307Y-98154248D01*
X134181212Y-98240409D01*
X134181209Y-98240412D01*
X134095049Y-98355506D01*
X134095045Y-98355513D01*
X134044803Y-98490220D01*
X134044801Y-98490227D01*
X134038400Y-98549755D01*
X125929100Y-98549755D01*
X125929100Y-97996259D01*
X125948785Y-97929220D01*
X125965419Y-97908578D01*
X128678229Y-95195768D01*
X130677897Y-93196100D01*
X131324400Y-93196100D01*
X131324400Y-94491500D01*
X131333413Y-94536817D01*
X131336418Y-94551924D01*
X131338565Y-94557108D01*
X131341602Y-94564439D01*
X131341603Y-94564440D01*
X131341605Y-94564444D01*
X131362025Y-94599814D01*
X131362215Y-94600142D01*
X131427061Y-94649898D01*
X131439577Y-94655082D01*
X131500000Y-94667100D01*
X131500002Y-94667100D01*
X134549698Y-94667100D01*
X134549700Y-94667100D01*
X134610123Y-94655082D01*
X134622639Y-94649898D01*
X134658342Y-94629285D01*
X134708098Y-94564439D01*
X134713282Y-94551923D01*
X134725300Y-94491500D01*
X134725300Y-92103900D01*
X134713282Y-92043477D01*
X134708098Y-92030961D01*
X134687485Y-91995258D01*
X134622639Y-91945502D01*
X134610125Y-91940319D01*
X134610124Y-91940318D01*
X134589982Y-91936312D01*
X134549700Y-91928300D01*
X132339903Y-91928300D01*
X132301941Y-91935850D01*
X132285623Y-91939096D01*
X132285622Y-91939096D01*
X132279480Y-91940318D01*
X132266964Y-91945502D01*
X132231261Y-91966115D01*
X132181505Y-92030961D01*
X132176321Y-92043477D01*
X132167610Y-92087276D01*
X132164303Y-92103902D01*
X132164303Y-92896500D01*
X132144618Y-92963539D01*
X132091814Y-93009294D01*
X132040303Y-93020500D01*
X131500000Y-93020500D01*
X131469788Y-93026509D01*
X131439575Y-93032518D01*
X131439575Y-93032519D01*
X131427059Y-93037703D01*
X131427055Y-93037705D01*
X131391360Y-93058313D01*
X131391358Y-93058315D01*
X131341602Y-93123161D01*
X131336420Y-93135672D01*
X131336418Y-93135675D01*
X131331708Y-93159355D01*
X131324400Y-93196100D01*
X130677897Y-93196100D01*
X132608578Y-91265419D01*
X132669901Y-91231934D01*
X132696259Y-91229100D01*
X141253741Y-91229100D01*
X141320780Y-91248785D01*
X141341422Y-91265419D01*
X146296048Y-96220045D01*
X146329533Y-96281368D01*
X146329670Y-96333448D01*
X146273726Y-96597266D01*
X146273726Y-96597273D01*
X146273704Y-96600297D01*
X146269484Y-96631474D01*
X146267100Y-96640370D01*
X146267100Y-96759624D01*
X146297964Y-96874814D01*
X146304870Y-96886775D01*
X146357590Y-96978087D01*
X146441913Y-97062410D01*
X146531348Y-97114046D01*
X146543761Y-97121213D01*
X146545187Y-97122036D01*
X146660375Y-97152900D01*
X146660377Y-97152900D01*
X146779623Y-97152900D01*
X146779625Y-97152900D01*
X146894813Y-97122036D01*
X146998087Y-97062410D01*
X147082410Y-96978087D01*
X147142036Y-96874813D01*
X147172900Y-96759625D01*
X147172900Y-96640375D01*
X147142036Y-96525187D01*
X147140218Y-96522039D01*
X147127494Y-96500000D01*
X147082410Y-96421913D01*
X147082405Y-96421908D01*
X147081094Y-96420198D01*
X147077375Y-96416116D01*
X146950212Y-96262699D01*
X146931119Y-96231019D01*
X146914222Y-96190225D01*
X146777596Y-96053599D01*
X146769807Y-96045048D01*
X146760844Y-96034234D01*
X215237000Y-96034234D01*
X215237000Y-96185766D01*
X215256609Y-96258950D01*
X215276219Y-96332136D01*
X215300859Y-96374813D01*
X215351985Y-96463365D01*
X215459135Y-96570515D01*
X215560423Y-96628994D01*
X215580135Y-96640375D01*
X215590365Y-96646281D01*
X215736734Y-96685500D01*
X215736736Y-96685500D01*
X215888264Y-96685500D01*
X215888266Y-96685500D01*
X216034635Y-96646281D01*
X216165865Y-96570515D01*
X216273015Y-96463365D01*
X216348781Y-96332135D01*
X216388000Y-96185766D01*
X216388000Y-96034234D01*
X216348781Y-95887865D01*
X216342115Y-95876320D01*
X216322443Y-95842247D01*
X216273015Y-95756635D01*
X216165865Y-95649485D01*
X216079289Y-95599500D01*
X216034636Y-95573719D01*
X215961450Y-95554109D01*
X215888266Y-95534500D01*
X215736734Y-95534500D01*
X215590363Y-95573719D01*
X215459135Y-95649485D01*
X215459132Y-95649487D01*
X215351987Y-95756632D01*
X215351985Y-95756635D01*
X215276219Y-95887863D01*
X215241513Y-96017390D01*
X215237000Y-96034234D01*
X146760844Y-96034234D01*
X146752159Y-96023756D01*
X146747329Y-96018198D01*
X146747084Y-96017929D01*
X146746594Y-96017390D01*
X146737890Y-96011276D01*
X146721490Y-95997493D01*
X141888578Y-91164581D01*
X141855093Y-91103258D01*
X141860077Y-91033566D01*
X141901949Y-90977633D01*
X141967413Y-90953216D01*
X141976259Y-90952900D01*
X142059623Y-90952900D01*
X142059625Y-90952900D01*
X142174813Y-90922036D01*
X142278087Y-90862410D01*
X142362410Y-90778087D01*
X142422036Y-90674813D01*
X142422036Y-90674810D01*
X142424975Y-90669721D01*
X142475542Y-90621505D01*
X142544149Y-90608282D01*
X142609014Y-90634250D01*
X142620043Y-90644040D01*
X146008199Y-94032196D01*
X146027149Y-94056586D01*
X146028920Y-94059569D01*
X146028921Y-94059571D01*
X146028923Y-94059574D01*
X146142081Y-94213553D01*
X146316714Y-94451185D01*
X146320513Y-94455465D01*
X146320008Y-94455912D01*
X146332549Y-94471713D01*
X146332644Y-94471641D01*
X146337093Y-94477439D01*
X146337543Y-94478006D01*
X146337590Y-94478087D01*
X146421913Y-94562410D01*
X146525187Y-94622036D01*
X146640375Y-94652900D01*
X146640377Y-94652900D01*
X146759623Y-94652900D01*
X146759625Y-94652900D01*
X146874813Y-94622036D01*
X146978087Y-94562410D01*
X147062410Y-94478087D01*
X147122036Y-94374813D01*
X147152900Y-94259625D01*
X147152900Y-94140375D01*
X147122036Y-94025187D01*
X147062410Y-93921913D01*
X146978087Y-93837590D01*
X146926450Y-93807777D01*
X146874814Y-93777964D01*
X146779515Y-93752429D01*
X146774159Y-93750863D01*
X146763309Y-93747425D01*
X146763306Y-93747424D01*
X146365738Y-93703300D01*
X146301279Y-93676341D01*
X146291735Y-93667738D01*
X142564778Y-89940781D01*
X142531293Y-89879458D01*
X142536277Y-89809766D01*
X142578149Y-89753833D01*
X142643613Y-89729416D01*
X142652459Y-89729100D01*
X185453741Y-89729100D01*
X185520780Y-89748785D01*
X185541422Y-89765419D01*
X188170115Y-92394111D01*
X188196700Y-92433633D01*
X188249474Y-92558850D01*
X188369802Y-92844353D01*
X188377964Y-92874813D01*
X188395276Y-92904797D01*
X188398280Y-92911925D01*
X188398283Y-92911930D01*
X188399570Y-92914983D01*
X188405958Y-92928351D01*
X188405961Y-92928357D01*
X188406989Y-92930272D01*
X188410408Y-92935120D01*
X188421856Y-92950835D01*
X188437590Y-92978087D01*
X188521913Y-93062410D01*
X188625187Y-93122036D01*
X188740375Y-93152900D01*
X188740377Y-93152900D01*
X188859623Y-93152900D01*
X188859625Y-93152900D01*
X188974813Y-93122036D01*
X189078087Y-93062410D01*
X189162410Y-92978087D01*
X189222036Y-92874813D01*
X189252900Y-92759625D01*
X189252900Y-92640375D01*
X189222036Y-92525187D01*
X189162410Y-92421913D01*
X189078087Y-92337590D01*
X189078085Y-92337588D01*
X189034736Y-92312560D01*
X189030883Y-92310336D01*
X189014983Y-92299570D01*
X189004806Y-92295281D01*
X188974813Y-92277964D01*
X188974812Y-92277963D01*
X188974811Y-92277963D01*
X188952569Y-92272003D01*
X188936506Y-92266495D01*
X188908693Y-92254773D01*
X188550716Y-92103900D01*
X188533633Y-92096700D01*
X188494111Y-92070115D01*
X186093926Y-89669929D01*
X186014372Y-89590375D01*
X206797100Y-89590375D01*
X206797100Y-89709624D01*
X206827964Y-89824814D01*
X206835342Y-89837592D01*
X206887590Y-89928087D01*
X206971913Y-90012410D01*
X207075187Y-90072036D01*
X207190375Y-90102900D01*
X207190377Y-90102900D01*
X207309623Y-90102900D01*
X207309625Y-90102900D01*
X207424813Y-90072036D01*
X207528087Y-90012410D01*
X207612410Y-89928087D01*
X207672036Y-89824813D01*
X207702900Y-89709625D01*
X207702900Y-89590375D01*
X212497100Y-89590375D01*
X212497100Y-89709624D01*
X212527964Y-89824814D01*
X212535342Y-89837592D01*
X212587590Y-89928087D01*
X212671913Y-90012410D01*
X212775187Y-90072036D01*
X212890375Y-90102900D01*
X212890377Y-90102900D01*
X213009623Y-90102900D01*
X213009625Y-90102900D01*
X213124813Y-90072036D01*
X213228087Y-90012410D01*
X213312410Y-89928087D01*
X213372036Y-89824813D01*
X213402900Y-89709625D01*
X213402900Y-89590375D01*
X213372036Y-89475187D01*
X213312410Y-89371913D01*
X213228087Y-89287590D01*
X213176450Y-89257777D01*
X213124814Y-89227964D01*
X213026378Y-89201589D01*
X213009625Y-89197100D01*
X212890375Y-89197100D01*
X212775185Y-89227964D01*
X212671913Y-89287590D01*
X212671910Y-89287592D01*
X212587592Y-89371910D01*
X212587590Y-89371913D01*
X212527964Y-89475185D01*
X212497100Y-89590375D01*
X207702900Y-89590375D01*
X207672036Y-89475187D01*
X207612410Y-89371913D01*
X207528087Y-89287590D01*
X207476450Y-89257777D01*
X207424814Y-89227964D01*
X207326378Y-89201589D01*
X207309625Y-89197100D01*
X207190375Y-89197100D01*
X207075185Y-89227964D01*
X206971913Y-89287590D01*
X206971910Y-89287592D01*
X206887592Y-89371910D01*
X206887590Y-89371913D01*
X206827964Y-89475185D01*
X206797100Y-89590375D01*
X186014372Y-89590375D01*
X185764778Y-89340781D01*
X185731293Y-89279458D01*
X185736277Y-89209766D01*
X185778149Y-89153833D01*
X185843613Y-89129416D01*
X185852459Y-89129100D01*
X187938308Y-89129100D01*
X187985053Y-89138248D01*
X188023345Y-89153833D01*
X188397880Y-89306270D01*
X188425187Y-89322036D01*
X188458638Y-89330999D01*
X188466756Y-89334303D01*
X188468861Y-89335160D01*
X188468909Y-89335178D01*
X188482746Y-89340069D01*
X188482758Y-89340072D01*
X188482776Y-89340079D01*
X188484867Y-89340710D01*
X188484873Y-89340710D01*
X188490624Y-89341707D01*
X188509904Y-89344735D01*
X188540375Y-89352900D01*
X188540379Y-89352900D01*
X188659623Y-89352900D01*
X188659625Y-89352900D01*
X188774813Y-89322036D01*
X188878087Y-89262410D01*
X188962410Y-89178087D01*
X189022036Y-89074813D01*
X189052900Y-88959625D01*
X189052900Y-88840375D01*
X189022036Y-88725187D01*
X188962410Y-88621913D01*
X188878087Y-88537590D01*
X188802115Y-88493727D01*
X188774814Y-88477964D01*
X188707963Y-88460052D01*
X188659625Y-88447100D01*
X188540375Y-88447100D01*
X188532912Y-88449099D01*
X188492034Y-88460051D01*
X188492035Y-88460052D01*
X188487740Y-88461203D01*
X188468870Y-88464836D01*
X188458634Y-88469001D01*
X188451155Y-88471006D01*
X188451153Y-88471005D01*
X188425190Y-88477963D01*
X188425185Y-88477965D01*
X188405251Y-88489473D01*
X188390002Y-88496934D01*
X187985050Y-88661752D01*
X187938305Y-88670900D01*
X131004428Y-88670900D01*
X130979768Y-88681112D01*
X130979769Y-88681113D01*
X130920226Y-88705777D01*
X130920223Y-88705779D01*
X125830887Y-93795114D01*
X125791365Y-93821699D01*
X125388479Y-93991499D01*
X125380633Y-93994805D01*
X125350187Y-94002964D01*
X125320208Y-94020271D01*
X125313088Y-94023273D01*
X125313085Y-94023275D01*
X125310017Y-94024568D01*
X125296572Y-94030997D01*
X125296557Y-94031005D01*
X125294657Y-94032026D01*
X125289728Y-94035504D01*
X125274092Y-94046896D01*
X125246919Y-94062585D01*
X125246910Y-94062592D01*
X125162592Y-94146910D01*
X125162590Y-94146913D01*
X125102964Y-94250185D01*
X125072100Y-94365375D01*
X125072100Y-94484625D01*
X125073942Y-94491500D01*
X125102964Y-94599814D01*
X125126156Y-94639983D01*
X125162590Y-94703087D01*
X125246913Y-94787410D01*
X125350187Y-94847036D01*
X125465375Y-94877900D01*
X125465377Y-94877900D01*
X125584623Y-94877900D01*
X125584625Y-94877900D01*
X125699813Y-94847036D01*
X125803087Y-94787410D01*
X125887410Y-94703087D01*
X125914668Y-94655873D01*
X125925429Y-94639983D01*
X125929715Y-94629813D01*
X125947036Y-94599813D01*
X125952996Y-94577567D01*
X125958505Y-94561501D01*
X125962540Y-94551927D01*
X126128296Y-94158635D01*
X126154876Y-94119119D01*
X131108578Y-89165419D01*
X131169901Y-89131934D01*
X131196259Y-89129100D01*
X132147541Y-89129100D01*
X132214580Y-89148785D01*
X132260335Y-89201589D01*
X132270279Y-89270747D01*
X132241254Y-89334303D01*
X132235222Y-89340781D01*
X124910744Y-96665258D01*
X124849421Y-96698743D01*
X124779729Y-96693759D01*
X124776318Y-96692429D01*
X124409998Y-96543335D01*
X124402112Y-96540125D01*
X124374813Y-96524364D01*
X124341365Y-96515401D01*
X124337689Y-96513905D01*
X124334190Y-96512481D01*
X124334189Y-96512480D01*
X124331140Y-96511240D01*
X124331138Y-96511239D01*
X124331130Y-96511236D01*
X124317223Y-96506320D01*
X124317210Y-96506316D01*
X124315134Y-96505689D01*
X124309492Y-96504712D01*
X124290086Y-96501661D01*
X124259630Y-96493500D01*
X124259625Y-96493500D01*
X124140375Y-96493500D01*
X124025185Y-96524364D01*
X123921913Y-96583990D01*
X123921910Y-96583992D01*
X123837592Y-96668310D01*
X123837590Y-96668313D01*
X123777964Y-96771585D01*
X123754375Y-96859623D01*
X123747100Y-96886775D01*
X123747100Y-97006025D01*
X123762207Y-97062407D01*
X123777964Y-97121214D01*
X123797183Y-97154501D01*
X123837590Y-97224487D01*
X123921913Y-97308810D01*
X124025187Y-97368436D01*
X124140375Y-97399300D01*
X124140377Y-97399300D01*
X124259622Y-97399300D01*
X124259625Y-97399300D01*
X124312273Y-97385193D01*
X124331130Y-97381563D01*
X124341358Y-97377399D01*
X124374813Y-97368436D01*
X124394747Y-97356926D01*
X124409996Y-97349463D01*
X124712839Y-97226205D01*
X124782351Y-97219166D01*
X124844636Y-97250826D01*
X124879917Y-97311134D01*
X124876993Y-97380942D01*
X124847263Y-97428739D01*
X124535380Y-97740622D01*
X124535378Y-97740626D01*
X124516416Y-97786406D01*
X124516415Y-97786406D01*
X124500500Y-97824826D01*
X124500500Y-98235641D01*
X124480815Y-98302680D01*
X124428011Y-98348435D01*
X124358853Y-98358379D01*
X124295297Y-98329354D01*
X124288819Y-98323322D01*
X124278089Y-98312592D01*
X124278087Y-98312590D01*
X124207670Y-98271934D01*
X124174814Y-98252964D01*
X124112259Y-98236203D01*
X124059625Y-98222100D01*
X123940375Y-98222100D01*
X123932912Y-98224099D01*
X123892034Y-98235051D01*
X123892035Y-98235052D01*
X123889837Y-98235641D01*
X123887740Y-98236203D01*
X123868870Y-98239836D01*
X123858634Y-98244001D01*
X123851155Y-98246006D01*
X123851153Y-98246005D01*
X123825190Y-98252963D01*
X123825185Y-98252965D01*
X123805251Y-98264473D01*
X123790002Y-98271934D01*
X123608955Y-98345621D01*
X123539441Y-98352661D01*
X123477156Y-98321001D01*
X123441875Y-98260693D01*
X123442435Y-98198678D01*
X123452900Y-98159625D01*
X123452900Y-98040375D01*
X123422036Y-97925187D01*
X123417572Y-97917456D01*
X123362410Y-97821913D01*
X123278085Y-97737588D01*
X123234736Y-97712560D01*
X123230883Y-97710336D01*
X123214983Y-97699570D01*
X123204806Y-97695281D01*
X123174813Y-97677964D01*
X123174812Y-97677963D01*
X123174813Y-97677963D01*
X123152565Y-97672002D01*
X123136504Y-97666494D01*
X122733636Y-97496702D01*
X122727082Y-97492293D01*
X122722367Y-97491268D01*
X122694113Y-97470117D01*
X122671083Y-97447087D01*
X122637598Y-97385764D01*
X122642582Y-97316072D01*
X122684454Y-97260139D01*
X122749918Y-97235722D01*
X122790851Y-97239630D01*
X122840375Y-97252900D01*
X122840378Y-97252900D01*
X122959623Y-97252900D01*
X122959625Y-97252900D01*
X123074813Y-97222036D01*
X123178087Y-97162410D01*
X123262410Y-97078087D01*
X123322036Y-96974813D01*
X123352900Y-96859625D01*
X123352900Y-96740375D01*
X123338793Y-96687727D01*
X123335163Y-96668870D01*
X123330999Y-96658641D01*
X123322036Y-96625187D01*
X123310523Y-96605247D01*
X123303061Y-96589997D01*
X123300616Y-96583990D01*
X123177449Y-96281368D01*
X123138248Y-96185051D01*
X123129100Y-96138306D01*
X123129100Y-95454430D01*
X123129099Y-95454426D01*
X123097092Y-95377155D01*
X123097090Y-95377149D01*
X123094223Y-95370227D01*
X123094222Y-95370226D01*
X123094222Y-95370225D01*
X117729775Y-90005778D01*
X117670233Y-89981115D01*
X117670232Y-89981114D01*
X117645571Y-89970900D01*
X112761694Y-89970900D01*
X112714949Y-89961752D01*
X112309998Y-89796935D01*
X112302112Y-89793725D01*
X112274813Y-89777964D01*
X112241365Y-89769001D01*
X112237689Y-89767505D01*
X112234190Y-89766081D01*
X112234189Y-89766080D01*
X112231140Y-89764840D01*
X112231138Y-89764839D01*
X112231130Y-89764836D01*
X112217223Y-89759920D01*
X112217210Y-89759916D01*
X112215134Y-89759289D01*
X112209492Y-89758312D01*
X112190086Y-89755261D01*
X112159630Y-89747100D01*
X112159625Y-89747100D01*
X112040375Y-89747100D01*
X111925185Y-89777964D01*
X111821913Y-89837590D01*
X111821910Y-89837592D01*
X111737592Y-89921910D01*
X111737590Y-89921913D01*
X111677964Y-90025185D01*
X111647100Y-90140375D01*
X111647100Y-90259624D01*
X111677965Y-90374815D01*
X111677966Y-90374818D01*
X111741523Y-90484899D01*
X111757997Y-90552799D01*
X111735145Y-90618826D01*
X111680225Y-90662017D01*
X111634137Y-90670900D01*
X105546258Y-90670900D01*
X105479219Y-90651215D01*
X105458577Y-90634581D01*
X103888154Y-89064157D01*
X103856059Y-89008567D01*
X103847893Y-88978087D01*
X103749585Y-88611164D01*
X103748421Y-88608698D01*
X103743910Y-88599142D01*
X103736266Y-88578296D01*
X103722036Y-88525187D01*
X103662410Y-88421913D01*
X103578087Y-88337590D01*
X103526450Y-88307777D01*
X103474814Y-88277964D01*
X103417219Y-88262532D01*
X103359625Y-88247100D01*
X103240375Y-88247100D01*
X103125185Y-88277964D01*
X103021913Y-88337590D01*
X103021910Y-88337592D01*
X102937592Y-88421910D01*
X102937590Y-88421913D01*
X102877964Y-88525185D01*
X102847100Y-88640375D01*
X102847100Y-88759624D01*
X102877964Y-88874814D01*
X102937589Y-88978086D01*
X102937590Y-88978087D01*
X103021913Y-89062410D01*
X103039228Y-89072407D01*
X103058136Y-89085829D01*
X103066548Y-89093073D01*
X103066554Y-89093078D01*
X103517860Y-89348248D01*
X103544511Y-89368508D01*
X105270223Y-91094220D01*
X105270224Y-91094220D01*
X105270226Y-91094222D01*
X105319546Y-91114650D01*
X105319549Y-91114652D01*
X105319550Y-91114652D01*
X105333998Y-91120636D01*
X105354429Y-91129100D01*
X105354430Y-91129100D01*
X105445570Y-91129100D01*
X111421640Y-91129100D01*
X111488679Y-91148785D01*
X111534434Y-91201589D01*
X111544378Y-91270747D01*
X111536203Y-91300548D01*
X111533609Y-91306810D01*
X111533608Y-91306814D01*
X111499500Y-91434108D01*
X111499500Y-103565892D01*
X111524731Y-103660058D01*
X111533292Y-103692007D01*
X111531629Y-103761857D01*
X111492466Y-103819719D01*
X111428237Y-103847223D01*
X111413517Y-103848100D01*
X107572427Y-103848100D01*
X107505388Y-103828415D01*
X107484746Y-103811781D01*
X99678745Y-96005780D01*
X99678743Y-96005778D01*
X99678739Y-96005776D01*
X99678737Y-96005775D01*
X99611270Y-95977830D01*
X99611269Y-95977829D01*
X99594541Y-95970900D01*
X99594539Y-95970900D01*
X95561694Y-95970900D01*
X95514949Y-95961752D01*
X95109998Y-95796935D01*
X95102112Y-95793725D01*
X95074813Y-95777964D01*
X95041365Y-95769001D01*
X95037689Y-95767505D01*
X95034190Y-95766081D01*
X95034189Y-95766080D01*
X95031140Y-95764840D01*
X95031138Y-95764839D01*
X95031130Y-95764836D01*
X95017223Y-95759920D01*
X95017210Y-95759916D01*
X95015134Y-95759289D01*
X95009492Y-95758312D01*
X94990086Y-95755261D01*
X94959630Y-95747100D01*
X94959625Y-95747100D01*
X94840375Y-95747100D01*
X94725185Y-95777964D01*
X94621913Y-95837590D01*
X94621910Y-95837592D01*
X94537592Y-95921910D01*
X94537590Y-95921913D01*
X94477964Y-96025185D01*
X94462596Y-96082543D01*
X94447100Y-96140375D01*
X79817439Y-96140375D01*
X81400500Y-94557314D01*
X81466392Y-94443186D01*
X81500500Y-94315892D01*
X81500500Y-94184107D01*
X81500500Y-92631902D01*
X81999500Y-92631902D01*
X81999500Y-92868097D01*
X82036446Y-93101368D01*
X82109433Y-93325996D01*
X82216657Y-93536433D01*
X82355483Y-93727510D01*
X82522490Y-93894517D01*
X82713567Y-94033343D01*
X82812991Y-94084002D01*
X82924003Y-94140566D01*
X82924005Y-94140566D01*
X82924008Y-94140568D01*
X82979625Y-94158639D01*
X83148631Y-94213553D01*
X83381903Y-94250500D01*
X83381908Y-94250500D01*
X83618097Y-94250500D01*
X83851368Y-94213553D01*
X84075992Y-94140568D01*
X84286433Y-94033343D01*
X84477510Y-93894517D01*
X84644517Y-93727510D01*
X84783343Y-93536433D01*
X84890568Y-93325992D01*
X84963553Y-93101368D01*
X84969723Y-93062410D01*
X85000500Y-92868097D01*
X85000500Y-92631902D01*
X84963553Y-92398631D01*
X84890566Y-92174003D01*
X84783342Y-91963566D01*
X84766453Y-91940320D01*
X84644517Y-91772490D01*
X84477510Y-91605483D01*
X84286433Y-91466657D01*
X84075996Y-91359433D01*
X83851368Y-91286446D01*
X83618097Y-91249500D01*
X83618092Y-91249500D01*
X83381908Y-91249500D01*
X83381903Y-91249500D01*
X83148631Y-91286446D01*
X82924003Y-91359433D01*
X82713566Y-91466657D01*
X82604550Y-91545862D01*
X82522490Y-91605483D01*
X82522488Y-91605485D01*
X82522487Y-91605485D01*
X82355485Y-91772487D01*
X82355485Y-91772488D01*
X82355483Y-91772490D01*
X82329993Y-91807574D01*
X82216657Y-91963566D01*
X82109433Y-92174003D01*
X82036446Y-92398631D01*
X81999500Y-92631902D01*
X81500500Y-92631902D01*
X81500500Y-86074000D01*
X81520185Y-86006961D01*
X81572989Y-85961206D01*
X81624500Y-85950000D01*
X89199999Y-85950000D01*
X89200000Y-85950000D01*
X89178236Y-83381902D01*
X216999500Y-83381902D01*
X216999500Y-83618097D01*
X217036446Y-83851368D01*
X217109433Y-84075996D01*
X217216657Y-84286433D01*
X217355483Y-84477510D01*
X217522490Y-84644517D01*
X217713567Y-84783343D01*
X217812991Y-84834002D01*
X217924003Y-84890566D01*
X217924005Y-84890566D01*
X217924008Y-84890568D01*
X218044412Y-84929689D01*
X218148631Y-84963553D01*
X218381903Y-85000500D01*
X218381908Y-85000500D01*
X218618097Y-85000500D01*
X218851368Y-84963553D01*
X219075992Y-84890568D01*
X219286433Y-84783343D01*
X219477510Y-84644517D01*
X219644517Y-84477510D01*
X219783343Y-84286433D01*
X219890568Y-84075992D01*
X219963553Y-83851368D01*
X219988929Y-83691150D01*
X220000500Y-83618097D01*
X220000500Y-83381902D01*
X219963553Y-83148631D01*
X219890566Y-82924003D01*
X219783342Y-82713566D01*
X219644517Y-82522490D01*
X219477510Y-82355483D01*
X219286433Y-82216657D01*
X219075996Y-82109433D01*
X218851368Y-82036446D01*
X218618097Y-81999500D01*
X218618092Y-81999500D01*
X218381908Y-81999500D01*
X218381903Y-81999500D01*
X218148631Y-82036446D01*
X217924003Y-82109433D01*
X217713566Y-82216657D01*
X217604550Y-82295862D01*
X217522490Y-82355483D01*
X217522488Y-82355485D01*
X217522487Y-82355485D01*
X217355485Y-82522487D01*
X217355485Y-82522488D01*
X217355483Y-82522490D01*
X217350443Y-82529427D01*
X217216657Y-82713566D01*
X217109433Y-82924003D01*
X217036446Y-83148631D01*
X216999500Y-83381902D01*
X89178236Y-83381902D01*
X89171012Y-82529427D01*
X89163353Y-81625551D01*
X89182469Y-81558347D01*
X89234884Y-81512146D01*
X89287349Y-81500500D01*
X220375500Y-81500500D01*
X220442539Y-81520185D01*
G37*
%TD.AperFunction*%
%TA.AperFunction,Conductor*%
G36*
X90629920Y-115004394D02*
G01*
X90577259Y-115095606D01*
X90550000Y-115197339D01*
X90550000Y-115302661D01*
X90577259Y-115404394D01*
X90629920Y-115495606D01*
X90634314Y-115500000D01*
X89265686Y-115500000D01*
X89270080Y-115495606D01*
X89322741Y-115404394D01*
X89350000Y-115302661D01*
X89350000Y-115197339D01*
X89322741Y-115095606D01*
X89270080Y-115004394D01*
X89265686Y-115000000D01*
X90634314Y-115000000D01*
X90629920Y-115004394D01*
G37*
%TD.AperFunction*%
%TA.AperFunction,Conductor*%
G36*
X89200000Y-114934314D02*
G01*
X89195606Y-114929920D01*
X89104394Y-114877259D01*
X89002661Y-114850000D01*
X88897339Y-114850000D01*
X88795606Y-114877259D01*
X88704394Y-114929920D01*
X88700000Y-114934314D01*
X88700000Y-113565686D01*
X88704394Y-113570080D01*
X88795606Y-113622741D01*
X88897339Y-113650000D01*
X89002661Y-113650000D01*
X89104394Y-113622741D01*
X89195606Y-113570080D01*
X89200000Y-113565686D01*
X89200000Y-114934314D01*
G37*
%TD.AperFunction*%
%TA.AperFunction,Conductor*%
G36*
X91200000Y-114934314D02*
G01*
X91195606Y-114929920D01*
X91104394Y-114877259D01*
X91002661Y-114850000D01*
X90897339Y-114850000D01*
X90795606Y-114877259D01*
X90704394Y-114929920D01*
X90700000Y-114934314D01*
X90700000Y-113565686D01*
X90704394Y-113570080D01*
X90795606Y-113622741D01*
X90897339Y-113650000D01*
X91002661Y-113650000D01*
X91104394Y-113622741D01*
X91195606Y-113570080D01*
X91200000Y-113565686D01*
X91200000Y-114934314D01*
G37*
%TD.AperFunction*%
%TA.AperFunction,Conductor*%
G36*
X90629920Y-113004394D02*
G01*
X90577259Y-113095606D01*
X90550000Y-113197339D01*
X90550000Y-113302661D01*
X90577259Y-113404394D01*
X90629920Y-113495606D01*
X90634314Y-113500000D01*
X89265686Y-113500000D01*
X89270080Y-113495606D01*
X89322741Y-113404394D01*
X89350000Y-113302661D01*
X89350000Y-113197339D01*
X89322741Y-113095606D01*
X89270080Y-113004394D01*
X89265686Y-113000000D01*
X90634314Y-113000000D01*
X90629920Y-113004394D01*
G37*
%TD.AperFunction*%
%TD*%
%TA.AperFunction,Conductor*%
%TO.N,IO16*%
G36*
X176480396Y-112555727D02*
G01*
X176487824Y-112560726D01*
X176489543Y-112569514D01*
X176488912Y-112571605D01*
X176279167Y-113086947D01*
X176272874Y-113093318D01*
X176268330Y-113094236D01*
X176131670Y-113094236D01*
X176123397Y-113090809D01*
X176120833Y-113086947D01*
X175911087Y-112571605D01*
X175911142Y-112562650D01*
X175917513Y-112556357D01*
X175919593Y-112555729D01*
X176197682Y-112499469D01*
X176202318Y-112499469D01*
X176480396Y-112555727D01*
G37*
%TD.AperFunction*%
%TD*%
%TA.AperFunction,Conductor*%
%TO.N,IO16*%
G36*
X129638491Y-103676595D02*
G01*
X129642823Y-103681950D01*
X129809429Y-104097373D01*
X129809328Y-104106327D01*
X129806843Y-104110001D01*
X129710198Y-104206646D01*
X129701925Y-104210073D01*
X129697216Y-104209083D01*
X129191035Y-103986523D01*
X129184841Y-103980057D01*
X129185034Y-103971104D01*
X129185987Y-103969358D01*
X129341574Y-103734851D01*
X129348997Y-103729855D01*
X129629713Y-103674824D01*
X129638491Y-103676595D01*
G37*
%TD.AperFunction*%
%TD*%
%TA.AperFunction,Conductor*%
%TO.N,IO15*%
G36*
X146439921Y-107509254D02*
G01*
X146443448Y-107515527D01*
X146499441Y-107792295D01*
X146497722Y-107801083D01*
X146494455Y-107804355D01*
X146258891Y-107961125D01*
X146250105Y-107962856D01*
X146243790Y-107959298D01*
X145986969Y-107679555D01*
X145983888Y-107671642D01*
X145983888Y-107535048D01*
X145987315Y-107526775D01*
X145995127Y-107523357D01*
X146431519Y-107506156D01*
X146439921Y-107509254D01*
G37*
%TD.AperFunction*%
%TD*%
%TA.AperFunction,Conductor*%
%TO.N,IO15*%
G36*
X129008996Y-103355727D02*
G01*
X129016424Y-103360726D01*
X129018143Y-103369514D01*
X129017512Y-103371605D01*
X128986244Y-103448429D01*
X128983685Y-103452286D01*
X128982572Y-103453400D01*
X128922946Y-103556672D01*
X128922944Y-103556676D01*
X128892082Y-103671860D01*
X128892082Y-103677495D01*
X128891219Y-103681906D01*
X128807767Y-103886947D01*
X128801474Y-103893318D01*
X128796930Y-103894236D01*
X128660270Y-103894236D01*
X128651997Y-103890809D01*
X128649433Y-103886947D01*
X128439687Y-103371605D01*
X128439742Y-103362650D01*
X128446113Y-103356357D01*
X128448193Y-103355729D01*
X128726282Y-103299469D01*
X128730918Y-103299469D01*
X129008996Y-103355727D01*
G37*
%TD.AperFunction*%
%TD*%
%TA.AperFunction,Conductor*%
%TO.N,Net-(LCD1-LEDA)*%
G36*
X141660401Y-98340102D02*
G01*
X141662325Y-98341135D01*
X141898734Y-98497984D01*
X141902015Y-98501265D01*
X142058864Y-98737674D01*
X142060583Y-98746462D01*
X142055583Y-98753891D01*
X142053659Y-98754924D01*
X141540945Y-98971012D01*
X141531990Y-98971067D01*
X141528128Y-98968503D01*
X141431496Y-98871871D01*
X141428069Y-98863598D01*
X141428987Y-98859054D01*
X141475185Y-98749441D01*
X141645075Y-98346339D01*
X141651446Y-98340047D01*
X141660401Y-98340102D01*
G37*
%TD.AperFunction*%
%TD*%
%TA.AperFunction,Conductor*%
%TO.N,Net-(LCD1-LEDA)*%
G36*
X134954938Y-99253797D02*
G01*
X135296573Y-99395691D01*
X135302898Y-99402028D01*
X135302889Y-99410983D01*
X135300357Y-99414768D01*
X135258844Y-99456281D01*
X135157540Y-99557584D01*
X135149267Y-99561011D01*
X135143248Y-99559344D01*
X134971476Y-99456281D01*
X134890275Y-99407560D01*
X134884944Y-99400365D01*
X134885461Y-99393110D01*
X134939647Y-99260198D01*
X134945943Y-99253831D01*
X134954898Y-99253781D01*
X134954938Y-99253797D01*
G37*
%TD.AperFunction*%
%TD*%
%TA.AperFunction,Conductor*%
%TO.N,GND*%
G36*
X139050707Y-97999293D02*
G01*
X139216671Y-98249441D01*
X138683694Y-98474069D01*
X138575931Y-98366306D01*
X138800559Y-97833329D01*
X139050707Y-97999293D01*
G37*
%TD.AperFunction*%
%TD*%
%TA.AperFunction,Conductor*%
%TO.N,DCP_1*%
G36*
X135355375Y-96099696D02*
G01*
X135355735Y-96099867D01*
X135497132Y-96170566D01*
X135503000Y-96177331D01*
X135503600Y-96181031D01*
X135503600Y-96318969D01*
X135500173Y-96327242D01*
X135497132Y-96329434D01*
X135355757Y-96400121D01*
X135346825Y-96400756D01*
X135346426Y-96400614D01*
X134973093Y-96260958D01*
X134966545Y-96254850D01*
X134966234Y-96245901D01*
X134972342Y-96239353D01*
X134973093Y-96239042D01*
X135346428Y-96099385D01*
X135355375Y-96099696D01*
G37*
%TD.AperFunction*%
%TD*%
%TA.AperFunction,Conductor*%
%TO.N,DCP_1*%
G36*
X136880396Y-93105727D02*
G01*
X136887824Y-93110726D01*
X136889543Y-93119514D01*
X136888912Y-93121605D01*
X136679167Y-93636947D01*
X136672874Y-93643318D01*
X136668330Y-93644236D01*
X136531670Y-93644236D01*
X136523397Y-93640809D01*
X136520833Y-93636947D01*
X136311087Y-93121605D01*
X136311142Y-93112650D01*
X136317513Y-93106357D01*
X136319593Y-93105729D01*
X136597682Y-93049469D01*
X136602318Y-93049469D01*
X136880396Y-93105727D01*
G37*
%TD.AperFunction*%
%TD*%
%TA.AperFunction,Conductor*%
%TO.N,DCP_1*%
G36*
X165288861Y-105908789D02*
G01*
X165448272Y-106145942D01*
X165450043Y-106154720D01*
X165450030Y-106154789D01*
X165394175Y-106430875D01*
X165389175Y-106438304D01*
X165380387Y-106440023D01*
X165378675Y-106439538D01*
X164863432Y-106250414D01*
X164856847Y-106244347D01*
X164855764Y-106239431D01*
X164855764Y-106102729D01*
X164859191Y-106094456D01*
X164862612Y-106092082D01*
X165274305Y-105904666D01*
X165283253Y-105904359D01*
X165288861Y-105908789D01*
G37*
%TD.AperFunction*%
%TD*%
%TA.AperFunction,Conductor*%
%TO.N,DCP_1*%
G36*
X155671605Y-105882487D02*
G01*
X155857799Y-105958268D01*
X156186947Y-106092233D01*
X156193318Y-106098526D01*
X156194236Y-106103070D01*
X156194236Y-106239729D01*
X156190809Y-106248002D01*
X156186947Y-106250566D01*
X155671605Y-106460312D01*
X155662650Y-106460257D01*
X155656357Y-106453886D01*
X155655728Y-106451803D01*
X155599469Y-106173718D01*
X155599469Y-106169080D01*
X155655727Y-105891001D01*
X155660726Y-105883575D01*
X155669514Y-105881856D01*
X155671605Y-105882487D01*
G37*
%TD.AperFunction*%
%TD*%
%TA.AperFunction,Conductor*%
%TO.N,VSYS*%
G36*
X184080396Y-105755727D02*
G01*
X184087824Y-105760726D01*
X184089543Y-105769514D01*
X184088912Y-105771605D01*
X183879167Y-106286947D01*
X183872874Y-106293318D01*
X183868330Y-106294236D01*
X183731670Y-106294236D01*
X183723397Y-106290809D01*
X183720833Y-106286947D01*
X183511087Y-105771605D01*
X183511142Y-105762650D01*
X183517513Y-105756357D01*
X183519593Y-105755729D01*
X183797682Y-105699469D01*
X183802318Y-105699469D01*
X184080396Y-105755727D01*
G37*
%TD.AperFunction*%
%TD*%
%TA.AperFunction,Conductor*%
%TO.N,VSYS*%
G36*
X157560401Y-109740102D02*
G01*
X157562325Y-109741135D01*
X157798734Y-109897984D01*
X157802015Y-109901265D01*
X157958864Y-110137674D01*
X157960583Y-110146462D01*
X157955583Y-110153891D01*
X157953659Y-110154924D01*
X157440945Y-110371012D01*
X157431990Y-110371067D01*
X157428128Y-110368503D01*
X157331496Y-110271871D01*
X157328069Y-110263598D01*
X157328987Y-110259054D01*
X157375185Y-110149441D01*
X157545075Y-109746339D01*
X157551446Y-109740047D01*
X157560401Y-109740102D01*
G37*
%TD.AperFunction*%
%TD*%
%TA.AperFunction,Conductor*%
%TO.N,VSYS*%
G36*
X182734105Y-107661087D02*
G01*
X182920299Y-107736868D01*
X183249447Y-107870833D01*
X183255818Y-107877126D01*
X183256736Y-107881670D01*
X183256736Y-108018329D01*
X183253309Y-108026602D01*
X183249447Y-108029166D01*
X182734105Y-108238912D01*
X182725150Y-108238857D01*
X182718857Y-108232486D01*
X182718228Y-108230403D01*
X182661969Y-107952318D01*
X182661969Y-107947680D01*
X182718227Y-107669601D01*
X182723226Y-107662175D01*
X182732014Y-107660456D01*
X182734105Y-107661087D01*
G37*
%TD.AperFunction*%
%TD*%
%TA.AperFunction,Conductor*%
%TO.N,VSYS*%
G36*
X121771871Y-108231496D02*
G01*
X121868503Y-108328128D01*
X121871930Y-108336401D01*
X121871012Y-108340945D01*
X121654924Y-108853659D01*
X121648553Y-108859952D01*
X121639598Y-108859897D01*
X121637674Y-108858864D01*
X121401265Y-108702015D01*
X121397984Y-108698734D01*
X121241135Y-108462325D01*
X121239416Y-108453537D01*
X121244416Y-108446108D01*
X121246336Y-108445076D01*
X121759055Y-108228986D01*
X121768009Y-108228932D01*
X121771871Y-108231496D01*
G37*
%TD.AperFunction*%
%TD*%
%TA.AperFunction,Conductor*%
%TO.N,VSYS*%
G36*
X183103803Y-107594445D02*
G01*
X183104935Y-107595440D01*
X183201638Y-107692143D01*
X183205065Y-107700416D01*
X183202902Y-107707193D01*
X182918504Y-108107434D01*
X182910919Y-108112193D01*
X182902499Y-108110406D01*
X182759175Y-108015316D01*
X182665864Y-107953408D01*
X182660866Y-107945982D01*
X182606374Y-107668012D01*
X182608145Y-107659235D01*
X182615604Y-107654281D01*
X182616323Y-107654163D01*
X183095159Y-107592110D01*
X183103803Y-107594445D01*
G37*
%TD.AperFunction*%
%TD*%
%TA.AperFunction,Conductor*%
%TO.N,VSYS*%
G36*
X213040945Y-108628987D02*
G01*
X213553659Y-108845075D01*
X213559952Y-108851446D01*
X213559897Y-108860401D01*
X213558864Y-108862325D01*
X213402015Y-109098734D01*
X213398734Y-109102015D01*
X213162325Y-109258864D01*
X213153537Y-109260583D01*
X213146108Y-109255583D01*
X213145075Y-109253659D01*
X212928987Y-108740945D01*
X212928932Y-108731990D01*
X212931494Y-108728130D01*
X213028129Y-108631495D01*
X213036401Y-108628069D01*
X213040945Y-108628987D01*
G37*
%TD.AperFunction*%
%TD*%
%TA.AperFunction,Conductor*%
%TO.N,IO17*%
G36*
X129833389Y-103090286D02*
G01*
X129842079Y-103092044D01*
X130110534Y-103146355D01*
X130117963Y-103151355D01*
X130119682Y-103160143D01*
X130119491Y-103160941D01*
X130047820Y-103420174D01*
X129997872Y-103600836D01*
X129978573Y-103670639D01*
X129973065Y-103677700D01*
X129967296Y-103679221D01*
X129830543Y-103679221D01*
X129822270Y-103675794D01*
X129820420Y-103673387D01*
X129814487Y-103663148D01*
X129780023Y-103603666D01*
X129778853Y-103600846D01*
X129767018Y-103556675D01*
X129767017Y-103556674D01*
X129767017Y-103556672D01*
X129707394Y-103453404D01*
X129707390Y-103453399D01*
X129674165Y-103420174D01*
X129672314Y-103417767D01*
X129584645Y-103266457D01*
X129583463Y-103257580D01*
X129588239Y-103250883D01*
X129824543Y-103092043D01*
X129833320Y-103090273D01*
X129833389Y-103090286D01*
G37*
%TD.AperFunction*%
%TD*%
%TA.AperFunction,Conductor*%
%TO.N,IO17*%
G36*
X169137349Y-106411142D02*
G01*
X169143642Y-106417513D01*
X169144273Y-106419604D01*
X169200530Y-106697680D01*
X169200530Y-106702320D01*
X169144273Y-106980395D01*
X169139273Y-106987824D01*
X169130485Y-106989543D01*
X169128394Y-106988912D01*
X168613053Y-106779166D01*
X168606682Y-106772873D01*
X168605764Y-106768329D01*
X168605764Y-106631670D01*
X168609191Y-106623397D01*
X168613051Y-106620833D01*
X169128394Y-106411087D01*
X169137349Y-106411142D01*
G37*
%TD.AperFunction*%
%TD*%
%TA.AperFunction,Conductor*%
%TO.N,VBAT*%
G36*
X155437349Y-114011142D02*
G01*
X155443642Y-114017513D01*
X155444273Y-114019604D01*
X155500530Y-114297680D01*
X155500530Y-114302320D01*
X155444273Y-114580395D01*
X155439273Y-114587824D01*
X155430485Y-114589543D01*
X155428394Y-114588912D01*
X154913053Y-114379166D01*
X154906682Y-114372873D01*
X154905764Y-114368329D01*
X154905764Y-114231670D01*
X154909191Y-114223397D01*
X154913051Y-114220833D01*
X155428394Y-114011087D01*
X155437349Y-114011142D01*
G37*
%TD.AperFunction*%
%TD*%
%TA.AperFunction,Conductor*%
%TO.N,VBAT*%
G36*
X128515891Y-112206416D02*
G01*
X128516924Y-112208340D01*
X128733012Y-112721054D01*
X128733067Y-112730009D01*
X128730503Y-112733871D01*
X128633871Y-112830503D01*
X128625598Y-112833930D01*
X128621054Y-112833012D01*
X128108340Y-112616924D01*
X128102047Y-112610553D01*
X128102102Y-112601598D01*
X128103130Y-112599681D01*
X128259985Y-112363263D01*
X128263263Y-112359985D01*
X128499676Y-112203134D01*
X128508462Y-112201416D01*
X128515891Y-112206416D01*
G37*
%TD.AperFunction*%
%TD*%
%TA.AperFunction,Conductor*%
%TO.N,EN*%
G36*
X188537349Y-88611142D02*
G01*
X188543642Y-88617513D01*
X188544273Y-88619604D01*
X188600530Y-88897680D01*
X188600530Y-88902320D01*
X188544273Y-89180395D01*
X188539273Y-89187824D01*
X188530485Y-89189543D01*
X188528394Y-89188912D01*
X188013053Y-88979166D01*
X188006682Y-88972873D01*
X188005764Y-88968329D01*
X188005764Y-88831670D01*
X188009191Y-88823397D01*
X188013051Y-88820833D01*
X188528394Y-88611087D01*
X188537349Y-88611142D01*
G37*
%TD.AperFunction*%
%TD*%
%TA.AperFunction,Conductor*%
%TO.N,EN*%
G36*
X125896871Y-93956496D02*
G01*
X125993503Y-94053128D01*
X125996930Y-94061401D01*
X125996012Y-94065945D01*
X125779924Y-94578659D01*
X125773553Y-94584952D01*
X125764598Y-94584897D01*
X125762674Y-94583864D01*
X125526265Y-94427015D01*
X125522984Y-94423734D01*
X125366135Y-94187325D01*
X125364416Y-94178537D01*
X125369416Y-94171108D01*
X125371336Y-94170076D01*
X125884055Y-93953986D01*
X125893009Y-93953932D01*
X125896871Y-93956496D01*
G37*
%TD.AperFunction*%
%TD*%
%TA.AperFunction,Conductor*%
%TO.N,IO1*%
G36*
X112171605Y-89911087D02*
G01*
X112357799Y-89986868D01*
X112686947Y-90120833D01*
X112693318Y-90127126D01*
X112694236Y-90131670D01*
X112694236Y-90268329D01*
X112690809Y-90276602D01*
X112686947Y-90279166D01*
X112171605Y-90488912D01*
X112162650Y-90488857D01*
X112156357Y-90482486D01*
X112155728Y-90480403D01*
X112099469Y-90202318D01*
X112099469Y-90197680D01*
X112155727Y-89919601D01*
X112160726Y-89912175D01*
X112169514Y-89910456D01*
X112171605Y-89911087D01*
G37*
%TD.AperFunction*%
%TD*%
%TA.AperFunction,Conductor*%
%TO.N,IO1*%
G36*
X122976603Y-96209191D02*
G01*
X122979167Y-96213053D01*
X123188912Y-96728394D01*
X123188857Y-96737349D01*
X123182486Y-96743642D01*
X123180395Y-96744273D01*
X122902320Y-96800530D01*
X122897680Y-96800530D01*
X122619604Y-96744273D01*
X122612175Y-96739273D01*
X122610456Y-96730485D01*
X122611087Y-96728394D01*
X122820833Y-96213053D01*
X122827126Y-96206682D01*
X122831670Y-96205764D01*
X122968330Y-96205764D01*
X122976603Y-96209191D01*
G37*
%TD.AperFunction*%
%TD*%
%TA.AperFunction,Conductor*%
%TO.N,VUSB*%
G36*
X200031549Y-115016942D02*
G01*
X200037842Y-115023313D01*
X200038473Y-115025404D01*
X200094730Y-115303480D01*
X200094730Y-115308120D01*
X200038473Y-115586195D01*
X200033473Y-115593624D01*
X200024685Y-115595343D01*
X200022594Y-115594712D01*
X199507253Y-115384966D01*
X199500882Y-115378673D01*
X199499964Y-115374129D01*
X199499964Y-115237470D01*
X199503391Y-115229197D01*
X199507251Y-115226633D01*
X200022594Y-115016887D01*
X200031549Y-115016942D01*
G37*
%TD.AperFunction*%
%TD*%
%TA.AperFunction,Conductor*%
%TO.N,VUSB*%
G36*
X121456411Y-109952730D02*
G01*
X121458122Y-109954143D01*
X121553844Y-110049865D01*
X121556731Y-110054625D01*
X121690326Y-110479052D01*
X121689541Y-110487972D01*
X121682679Y-110493725D01*
X121681470Y-110494036D01*
X121404079Y-110549745D01*
X121395293Y-110548014D01*
X121395243Y-110547981D01*
X121254761Y-110453448D01*
X121160294Y-110389880D01*
X121155344Y-110382419D01*
X121157119Y-110373645D01*
X121440165Y-109955852D01*
X121447640Y-109950926D01*
X121456411Y-109952730D01*
G37*
%TD.AperFunction*%
%TD*%
%TA.AperFunction,Conductor*%
%TO.N,Net-(IC3-INT)*%
G36*
X117693014Y-109790262D02*
G01*
X117694870Y-109792680D01*
X117749504Y-109887247D01*
X117943975Y-110223868D01*
X117945146Y-110232746D01*
X117940376Y-110239428D01*
X117704756Y-110397981D01*
X117695979Y-110399757D01*
X117695920Y-110399745D01*
X117419331Y-110344197D01*
X117411895Y-110339208D01*
X117410164Y-110330422D01*
X117410705Y-110328553D01*
X117578594Y-109889573D01*
X117581245Y-109885485D01*
X117676469Y-109790261D01*
X117684741Y-109786835D01*
X117693014Y-109790262D01*
G37*
%TD.AperFunction*%
%TD*%
%TA.AperFunction,Conductor*%
%TO.N,Net-(IC3-INT)*%
G36*
X105171605Y-107611087D02*
G01*
X105357799Y-107686868D01*
X105686947Y-107820833D01*
X105693318Y-107827126D01*
X105694236Y-107831670D01*
X105694236Y-107968329D01*
X105690809Y-107976602D01*
X105686947Y-107979166D01*
X105171605Y-108188912D01*
X105162650Y-108188857D01*
X105156357Y-108182486D01*
X105155728Y-108180403D01*
X105099469Y-107902318D01*
X105099469Y-107897680D01*
X105155727Y-107619601D01*
X105160726Y-107612175D01*
X105169514Y-107610456D01*
X105171605Y-107611087D01*
G37*
%TD.AperFunction*%
%TD*%
%TA.AperFunction,Conductor*%
%TO.N,IO34*%
G36*
X135355375Y-96599696D02*
G01*
X135355735Y-96599867D01*
X135497132Y-96670566D01*
X135503000Y-96677331D01*
X135503600Y-96681031D01*
X135503600Y-96818969D01*
X135500173Y-96827242D01*
X135497132Y-96829434D01*
X135355757Y-96900121D01*
X135346825Y-96900756D01*
X135346426Y-96900614D01*
X134973093Y-96760958D01*
X134966545Y-96754850D01*
X134966234Y-96745901D01*
X134972342Y-96739353D01*
X134973093Y-96739042D01*
X135346428Y-96599385D01*
X135355375Y-96599696D01*
G37*
%TD.AperFunction*%
%TD*%
%TA.AperFunction,Conductor*%
%TO.N,IO34*%
G36*
X136315715Y-96452940D02*
G01*
X136472752Y-96686561D01*
X136474523Y-96695339D01*
X136474510Y-96695408D01*
X136418488Y-96972324D01*
X136413488Y-96979753D01*
X136404700Y-96981472D01*
X136403696Y-96981222D01*
X135888974Y-96828682D01*
X135882015Y-96823045D01*
X135880598Y-96817464D01*
X135880598Y-96680750D01*
X135884025Y-96672477D01*
X135886699Y-96670477D01*
X136269834Y-96461855D01*
X136270922Y-96461335D01*
X136301531Y-96448658D01*
X136310482Y-96448658D01*
X136315715Y-96452940D01*
G37*
%TD.AperFunction*%
%TD*%
%TA.AperFunction,Conductor*%
%TO.N,IO36*%
G36*
X136763388Y-97842147D02*
G01*
X136764072Y-97842569D01*
X137000015Y-97999592D01*
X137005004Y-98007028D01*
X137005016Y-98007087D01*
X137059261Y-98284536D01*
X137057485Y-98293313D01*
X137050023Y-98298264D01*
X137049519Y-98298351D01*
X136545598Y-98374177D01*
X136536907Y-98372019D01*
X136532287Y-98364348D01*
X136532157Y-98362607D01*
X136532157Y-98226902D01*
X136533695Y-98221104D01*
X136747428Y-97846511D01*
X136754504Y-97841023D01*
X136763388Y-97842147D01*
G37*
%TD.AperFunction*%
%TD*%
%TA.AperFunction,Conductor*%
%TO.N,IO36*%
G36*
X135355375Y-97599696D02*
G01*
X135355735Y-97599867D01*
X135497132Y-97670566D01*
X135503000Y-97677331D01*
X135503600Y-97681031D01*
X135503600Y-97818969D01*
X135500173Y-97827242D01*
X135497132Y-97829434D01*
X135355757Y-97900121D01*
X135346825Y-97900756D01*
X135346426Y-97900614D01*
X134973093Y-97760958D01*
X134966545Y-97754850D01*
X134966234Y-97745901D01*
X134972342Y-97739353D01*
X134973093Y-97739042D01*
X135346428Y-97599385D01*
X135355375Y-97599696D01*
G37*
%TD.AperFunction*%
%TD*%
%TA.AperFunction,Conductor*%
%TO.N,IO33*%
G36*
X135355375Y-97099696D02*
G01*
X135355735Y-97099867D01*
X135497132Y-97170566D01*
X135503000Y-97177331D01*
X135503600Y-97181031D01*
X135503600Y-97318969D01*
X135500173Y-97327242D01*
X135497132Y-97329434D01*
X135355757Y-97400121D01*
X135346825Y-97400756D01*
X135346426Y-97400614D01*
X134973093Y-97260958D01*
X134966545Y-97254850D01*
X134966234Y-97245901D01*
X134972342Y-97239353D01*
X134973093Y-97239042D01*
X135346428Y-97099385D01*
X135355375Y-97099696D01*
G37*
%TD.AperFunction*%
%TD*%
%TA.AperFunction,Conductor*%
%TO.N,IO33*%
G36*
X136414316Y-97152303D02*
G01*
X136417953Y-97158675D01*
X136474510Y-97438232D01*
X136472791Y-97447020D01*
X136472752Y-97447079D01*
X136315678Y-97680755D01*
X136308219Y-97685709D01*
X136299441Y-97683938D01*
X136297763Y-97682568D01*
X136054560Y-97443022D01*
X135939444Y-97329637D01*
X135935954Y-97321390D01*
X135935954Y-97184906D01*
X135939381Y-97176633D01*
X135947045Y-97173222D01*
X136405876Y-97149311D01*
X136414316Y-97152303D01*
G37*
%TD.AperFunction*%
%TD*%
%TA.AperFunction,Conductor*%
%TO.N,IO35*%
G36*
X135816864Y-95465309D02*
G01*
X135955787Y-95671757D01*
X135974480Y-95699535D01*
X135976256Y-95708312D01*
X135974497Y-95712573D01*
X135817262Y-95947562D01*
X135809813Y-95952533D01*
X135802227Y-95951481D01*
X135442183Y-95768071D01*
X135439221Y-95765919D01*
X135345059Y-95671757D01*
X135341632Y-95663484D01*
X135345059Y-95655211D01*
X135348774Y-95652709D01*
X135802607Y-95461063D01*
X135811561Y-95461002D01*
X135816864Y-95465309D01*
G37*
%TD.AperFunction*%
%TD*%
%TA.AperFunction,Conductor*%
%TO.N,IO35*%
G36*
X135477260Y-95628377D02*
G01*
X135484484Y-95633668D01*
X135486185Y-95639743D01*
X135486185Y-95776594D01*
X135482758Y-95784867D01*
X135480846Y-95786414D01*
X135355715Y-95867475D01*
X135346909Y-95869097D01*
X135346038Y-95868875D01*
X134977357Y-95759917D01*
X134970394Y-95754286D01*
X134969453Y-95745381D01*
X134975084Y-95738418D01*
X134976562Y-95737744D01*
X135347826Y-95598861D01*
X135354698Y-95598454D01*
X135477260Y-95628377D01*
G37*
%TD.AperFunction*%
%TD*%
%TA.AperFunction,Conductor*%
%TO.N,IO37*%
G36*
X135355375Y-98099696D02*
G01*
X135355735Y-98099867D01*
X135497132Y-98170566D01*
X135503000Y-98177331D01*
X135503600Y-98181031D01*
X135503600Y-98318969D01*
X135500173Y-98327242D01*
X135497132Y-98329434D01*
X135355757Y-98400121D01*
X135346825Y-98400756D01*
X135346426Y-98400614D01*
X134973093Y-98260958D01*
X134966545Y-98254850D01*
X134966234Y-98245901D01*
X134972342Y-98239353D01*
X134973093Y-98239042D01*
X135346428Y-98099385D01*
X135355375Y-98099696D01*
G37*
%TD.AperFunction*%
%TD*%
%TA.AperFunction,Conductor*%
%TO.N,IO37*%
G36*
X137087998Y-98460445D02*
G01*
X137093744Y-98467313D01*
X137094048Y-98468495D01*
X137150030Y-98745210D01*
X137148311Y-98753998D01*
X137148272Y-98754057D01*
X136989170Y-98990750D01*
X136981711Y-98995704D01*
X136974046Y-98994594D01*
X136803379Y-98905485D01*
X136562049Y-98779481D01*
X136556301Y-98772615D01*
X136555764Y-98769110D01*
X136555764Y-98632392D01*
X136559191Y-98624119D01*
X136563960Y-98621229D01*
X137079080Y-98459651D01*
X137087998Y-98460445D01*
G37*
%TD.AperFunction*%
%TD*%
%TA.AperFunction,Conductor*%
%TO.N,Net-(X3-Pin_1)*%
G36*
X86003891Y-108750416D02*
G01*
X86004924Y-108752340D01*
X86221012Y-109265054D01*
X86221067Y-109274009D01*
X86218503Y-109277871D01*
X86121871Y-109374503D01*
X86113598Y-109377930D01*
X86109054Y-109377012D01*
X85596340Y-109160924D01*
X85590047Y-109154553D01*
X85590102Y-109145598D01*
X85591130Y-109143681D01*
X85747985Y-108907263D01*
X85751263Y-108903985D01*
X85987676Y-108747134D01*
X85996462Y-108745416D01*
X86003891Y-108750416D01*
G37*
%TD.AperFunction*%
%TD*%
%TA.AperFunction,Conductor*%
%TO.N,Net-(X3-Pin_1)*%
G36*
X99839921Y-111409254D02*
G01*
X99843448Y-111415527D01*
X99899441Y-111692295D01*
X99897722Y-111701083D01*
X99894455Y-111704355D01*
X99658891Y-111861125D01*
X99650105Y-111862856D01*
X99643790Y-111859298D01*
X99386969Y-111579555D01*
X99383888Y-111571642D01*
X99383888Y-111435048D01*
X99387315Y-111426775D01*
X99395127Y-111423357D01*
X99831519Y-111406156D01*
X99839921Y-111409254D01*
G37*
%TD.AperFunction*%
%TD*%
%TA.AperFunction,Conductor*%
%TO.N,IO13*%
G36*
X145356619Y-110531950D02*
G01*
X145364047Y-110536949D01*
X145365766Y-110545737D01*
X145365135Y-110547828D01*
X145155390Y-111063170D01*
X145149097Y-111069541D01*
X145144553Y-111070459D01*
X145007893Y-111070459D01*
X144999620Y-111067032D01*
X144997056Y-111063170D01*
X144787310Y-110547828D01*
X144787365Y-110538873D01*
X144793736Y-110532580D01*
X144795816Y-110531952D01*
X145073905Y-110475692D01*
X145078541Y-110475692D01*
X145356619Y-110531950D01*
G37*
%TD.AperFunction*%
%TD*%
%TA.AperFunction,Conductor*%
%TO.N,IO13*%
G36*
X126612398Y-104164806D02*
G01*
X126614319Y-104165837D01*
X126841201Y-104316365D01*
X126850731Y-104322688D01*
X126854012Y-104325969D01*
X127010861Y-104562378D01*
X127012580Y-104571166D01*
X127007580Y-104578595D01*
X127005656Y-104579628D01*
X126492942Y-104795716D01*
X126483987Y-104795771D01*
X126480125Y-104793207D01*
X126383493Y-104696575D01*
X126380066Y-104688302D01*
X126380984Y-104683758D01*
X126397760Y-104643952D01*
X126400261Y-104640235D01*
X126462410Y-104578087D01*
X126522036Y-104474813D01*
X126552900Y-104359625D01*
X126552900Y-104278217D01*
X126553818Y-104273673D01*
X126597072Y-104171044D01*
X126603443Y-104164751D01*
X126612398Y-104164806D01*
G37*
%TD.AperFunction*%
%TD*%
%TA.AperFunction,Conductor*%
%TO.N,IO14*%
G36*
X143938939Y-111530305D02*
G01*
X144098272Y-111767342D01*
X144100043Y-111776120D01*
X144100030Y-111776189D01*
X144044143Y-112052434D01*
X144039143Y-112059863D01*
X144030355Y-112061582D01*
X144028774Y-112061145D01*
X143513563Y-111878957D01*
X143506906Y-111872968D01*
X143505764Y-111867926D01*
X143505764Y-111731214D01*
X143509191Y-111722941D01*
X143512465Y-111720636D01*
X143924235Y-111526251D01*
X143933179Y-111525819D01*
X143938939Y-111530305D01*
G37*
%TD.AperFunction*%
%TD*%
%TA.AperFunction,Conductor*%
%TO.N,IO14*%
G36*
X127665549Y-104236049D02*
G01*
X127665608Y-104236088D01*
X127902104Y-104395058D01*
X127907058Y-104402517D01*
X127905825Y-104410412D01*
X127679535Y-104821288D01*
X127672543Y-104826882D01*
X127669287Y-104827344D01*
X127532566Y-104827344D01*
X127524293Y-104823917D01*
X127521337Y-104818932D01*
X127401725Y-104410412D01*
X127370895Y-104305115D01*
X127371859Y-104296214D01*
X127378836Y-104290600D01*
X127379796Y-104290362D01*
X127656761Y-104234330D01*
X127665549Y-104236049D01*
G37*
%TD.AperFunction*%
%TD*%
%TA.AperFunction,Conductor*%
%TO.N,IO11*%
G36*
X124940945Y-103228987D02*
G01*
X125453659Y-103445075D01*
X125459952Y-103451446D01*
X125459897Y-103460401D01*
X125458864Y-103462325D01*
X125302015Y-103698734D01*
X125298734Y-103702015D01*
X125062325Y-103858864D01*
X125053537Y-103860583D01*
X125046108Y-103855583D01*
X125045075Y-103853659D01*
X124828987Y-103340945D01*
X124828932Y-103331990D01*
X124831494Y-103328130D01*
X124928129Y-103231495D01*
X124936401Y-103228069D01*
X124940945Y-103228987D01*
G37*
%TD.AperFunction*%
%TD*%
%TA.AperFunction,Conductor*%
%TO.N,IO11*%
G36*
X146263558Y-93850829D02*
G01*
X146745891Y-93904361D01*
X146753734Y-93908680D01*
X146756228Y-93917281D01*
X146756080Y-93918241D01*
X146701647Y-94195911D01*
X146696693Y-94203370D01*
X146696634Y-94203409D01*
X146459851Y-94360505D01*
X146451063Y-94362224D01*
X146443955Y-94357685D01*
X146156160Y-93966069D01*
X146154022Y-93957373D01*
X146157313Y-93950869D01*
X146253997Y-93854185D01*
X146262269Y-93850759D01*
X146263558Y-93850829D01*
G37*
%TD.AperFunction*%
%TD*%
%TA.AperFunction,Conductor*%
%TO.N,IO12*%
G36*
X146629856Y-96123714D02*
G01*
X146630591Y-96124521D01*
X146961189Y-96523374D01*
X146963830Y-96531930D01*
X146959647Y-96539848D01*
X146958713Y-96540547D01*
X146724756Y-96697981D01*
X146715979Y-96699757D01*
X146715920Y-96699745D01*
X146437358Y-96643801D01*
X146429922Y-96638812D01*
X146428191Y-96630026D01*
X146428217Y-96629903D01*
X146513911Y-96225785D01*
X146517081Y-96219943D01*
X146613311Y-96123713D01*
X146621583Y-96120287D01*
X146629856Y-96123714D01*
G37*
%TD.AperFunction*%
%TD*%
%TA.AperFunction,Conductor*%
%TO.N,IO12*%
G36*
X126471871Y-103831496D02*
G01*
X126568503Y-103928128D01*
X126571930Y-103936401D01*
X126571012Y-103940945D01*
X126554238Y-103980744D01*
X126551729Y-103984473D01*
X126489588Y-104046615D01*
X126489584Y-104046621D01*
X126462552Y-104093439D01*
X126462109Y-104094148D01*
X126451567Y-104109719D01*
X126451563Y-104109726D01*
X126447561Y-104119222D01*
X126446913Y-104120528D01*
X126429959Y-104149893D01*
X126422010Y-104179562D01*
X126421491Y-104181078D01*
X126408313Y-104212348D01*
X126399045Y-104242404D01*
X126398126Y-104246954D01*
X126395000Y-104278208D01*
X126395000Y-104337297D01*
X126394601Y-104340325D01*
X126380689Y-104392241D01*
X126380169Y-104393757D01*
X126363328Y-104433714D01*
X126362680Y-104435020D01*
X126352027Y-104453473D01*
X126344923Y-104458924D01*
X126336044Y-104457756D01*
X126335426Y-104457372D01*
X126101265Y-104302015D01*
X126097984Y-104298734D01*
X126040670Y-104212348D01*
X125941134Y-104062324D01*
X125939416Y-104053537D01*
X125944416Y-104046108D01*
X125946336Y-104045076D01*
X126459055Y-103828986D01*
X126468009Y-103828932D01*
X126471871Y-103831496D01*
G37*
%TD.AperFunction*%
%TD*%
%TA.AperFunction,Conductor*%
%TO.N,IO10*%
G36*
X126076603Y-102159191D02*
G01*
X126079167Y-102163053D01*
X126288912Y-102678394D01*
X126288857Y-102687349D01*
X126282486Y-102693642D01*
X126280395Y-102694273D01*
X126002320Y-102750530D01*
X125997680Y-102750530D01*
X125719604Y-102694273D01*
X125712175Y-102689273D01*
X125710456Y-102680485D01*
X125711087Y-102678394D01*
X125920833Y-102163053D01*
X125927126Y-102156682D01*
X125931670Y-102155764D01*
X126068330Y-102155764D01*
X126076603Y-102159191D01*
G37*
%TD.AperFunction*%
%TD*%
%TA.AperFunction,Conductor*%
%TO.N,IO10*%
G36*
X141937349Y-90211142D02*
G01*
X141943642Y-90217513D01*
X141944273Y-90219604D01*
X142000530Y-90497680D01*
X142000530Y-90502320D01*
X141944273Y-90780395D01*
X141939273Y-90787824D01*
X141930485Y-90789543D01*
X141928394Y-90788912D01*
X141413053Y-90579166D01*
X141406682Y-90572873D01*
X141405764Y-90568329D01*
X141405764Y-90431670D01*
X141409191Y-90423397D01*
X141413051Y-90420833D01*
X141928394Y-90211087D01*
X141937349Y-90211142D01*
G37*
%TD.AperFunction*%
%TD*%
%TA.AperFunction,Conductor*%
%TO.N,IO7*%
G36*
X104171605Y-106511087D02*
G01*
X104357799Y-106586868D01*
X104686947Y-106720833D01*
X104693318Y-106727126D01*
X104694236Y-106731670D01*
X104694236Y-106868329D01*
X104690809Y-106876602D01*
X104686947Y-106879166D01*
X104171605Y-107088912D01*
X104162650Y-107088857D01*
X104156357Y-107082486D01*
X104155728Y-107080403D01*
X104099469Y-106802318D01*
X104099469Y-106797680D01*
X104155727Y-106519601D01*
X104160726Y-106512175D01*
X104169514Y-106510456D01*
X104171605Y-106511087D01*
G37*
%TD.AperFunction*%
%TD*%
%TA.AperFunction,Conductor*%
%TO.N,IO7*%
G36*
X122160401Y-101540102D02*
G01*
X122162325Y-101541135D01*
X122398734Y-101697984D01*
X122402015Y-101701265D01*
X122558864Y-101937674D01*
X122560583Y-101946462D01*
X122555583Y-101953891D01*
X122553659Y-101954924D01*
X122040945Y-102171012D01*
X122031990Y-102171067D01*
X122028128Y-102168503D01*
X121931496Y-102071871D01*
X121928069Y-102063598D01*
X121928987Y-102059054D01*
X121975185Y-101949441D01*
X122145075Y-101546339D01*
X122151446Y-101540047D01*
X122160401Y-101540102D01*
G37*
%TD.AperFunction*%
%TD*%
%TA.AperFunction,Conductor*%
%TO.N,IO6*%
G36*
X121360401Y-101240102D02*
G01*
X121362325Y-101241135D01*
X121598734Y-101397984D01*
X121602015Y-101401265D01*
X121758864Y-101637674D01*
X121760583Y-101646462D01*
X121755583Y-101653891D01*
X121753659Y-101654924D01*
X121240945Y-101871012D01*
X121231990Y-101871067D01*
X121228128Y-101868503D01*
X121131496Y-101771871D01*
X121128069Y-101763598D01*
X121128987Y-101759054D01*
X121175185Y-101649441D01*
X121345075Y-101246339D01*
X121351446Y-101240047D01*
X121360401Y-101240102D01*
G37*
%TD.AperFunction*%
%TD*%
%TA.AperFunction,Conductor*%
%TO.N,IO6*%
G36*
X103953891Y-105044416D02*
G01*
X103954924Y-105046340D01*
X104171012Y-105559054D01*
X104171067Y-105568009D01*
X104168503Y-105571871D01*
X104071871Y-105668503D01*
X104063598Y-105671930D01*
X104059054Y-105671012D01*
X103546340Y-105454924D01*
X103540047Y-105448553D01*
X103540102Y-105439598D01*
X103541130Y-105437681D01*
X103697985Y-105201263D01*
X103701263Y-105197985D01*
X103937676Y-105041134D01*
X103946462Y-105039416D01*
X103953891Y-105044416D01*
G37*
%TD.AperFunction*%
%TD*%
%TA.AperFunction,Conductor*%
%TO.N,IO3*%
G36*
X122640945Y-97628987D02*
G01*
X123153659Y-97845075D01*
X123159952Y-97851446D01*
X123159897Y-97860401D01*
X123158864Y-97862325D01*
X123002015Y-98098734D01*
X122998734Y-98102015D01*
X122762325Y-98258864D01*
X122753537Y-98260583D01*
X122746108Y-98255583D01*
X122745075Y-98253659D01*
X122528987Y-97740945D01*
X122528932Y-97731990D01*
X122531494Y-97728130D01*
X122628129Y-97631495D01*
X122636401Y-97628069D01*
X122640945Y-97628987D01*
G37*
%TD.AperFunction*%
%TD*%
%TA.AperFunction,Conductor*%
%TO.N,IO3*%
G36*
X103592290Y-88645346D02*
G01*
X103597064Y-88652028D01*
X103718752Y-89106213D01*
X103717583Y-89115091D01*
X103715724Y-89117514D01*
X103619027Y-89214211D01*
X103610754Y-89217638D01*
X103604995Y-89216123D01*
X103144265Y-88955624D01*
X103138750Y-88948569D01*
X103139839Y-88939680D01*
X103140275Y-88938971D01*
X103296592Y-88703363D01*
X103304015Y-88698367D01*
X103583512Y-88643575D01*
X103592290Y-88645346D01*
G37*
%TD.AperFunction*%
%TD*%
%TA.AperFunction,Conductor*%
%TO.N,IO5*%
G36*
X104480396Y-101655727D02*
G01*
X104487824Y-101660726D01*
X104489543Y-101669514D01*
X104488912Y-101671605D01*
X104279167Y-102186947D01*
X104272874Y-102193318D01*
X104268330Y-102194236D01*
X104131670Y-102194236D01*
X104123397Y-102190809D01*
X104120833Y-102186947D01*
X103911087Y-101671605D01*
X103911142Y-101662650D01*
X103917513Y-101656357D01*
X103919593Y-101655729D01*
X104197682Y-101599469D01*
X104202318Y-101599469D01*
X104480396Y-101655727D01*
G37*
%TD.AperFunction*%
%TD*%
%TA.AperFunction,Conductor*%
%TO.N,IO5*%
G36*
X120560401Y-100840102D02*
G01*
X120562325Y-100841135D01*
X120798734Y-100997984D01*
X120802015Y-101001265D01*
X120958864Y-101237674D01*
X120960583Y-101246462D01*
X120955583Y-101253891D01*
X120953659Y-101254924D01*
X120440945Y-101471012D01*
X120431990Y-101471067D01*
X120428128Y-101468503D01*
X120331496Y-101371871D01*
X120328069Y-101363598D01*
X120328987Y-101359054D01*
X120375185Y-101249441D01*
X120545075Y-100846339D01*
X120551446Y-100840047D01*
X120560401Y-100840102D01*
G37*
%TD.AperFunction*%
%TD*%
%TA.AperFunction,Conductor*%
%TO.N,IO4*%
G36*
X123937349Y-98386142D02*
G01*
X123943642Y-98392513D01*
X123944273Y-98394604D01*
X124000530Y-98672680D01*
X124000530Y-98677320D01*
X123944273Y-98955395D01*
X123939273Y-98962824D01*
X123930485Y-98964543D01*
X123928394Y-98963912D01*
X123413053Y-98754166D01*
X123406682Y-98747873D01*
X123405764Y-98743329D01*
X123405764Y-98606670D01*
X123409191Y-98598397D01*
X123413051Y-98595833D01*
X123928394Y-98386087D01*
X123937349Y-98386142D01*
G37*
%TD.AperFunction*%
%TD*%
%TA.AperFunction,Conductor*%
%TO.N,IO4*%
G36*
X94971605Y-95911087D02*
G01*
X95157799Y-95986868D01*
X95486947Y-96120833D01*
X95493318Y-96127126D01*
X95494236Y-96131670D01*
X95494236Y-96268329D01*
X95490809Y-96276602D01*
X95486947Y-96279166D01*
X94971605Y-96488912D01*
X94962650Y-96488857D01*
X94956357Y-96482486D01*
X94955728Y-96480403D01*
X94899469Y-96202318D01*
X94899469Y-96197680D01*
X94955727Y-95919601D01*
X94960726Y-95912175D01*
X94969514Y-95910456D01*
X94971605Y-95911087D01*
G37*
%TD.AperFunction*%
%TD*%
%TA.AperFunction,Conductor*%
%TO.N,IO0*%
G36*
X188440945Y-92228987D02*
G01*
X188953659Y-92445075D01*
X188959952Y-92451446D01*
X188959897Y-92460401D01*
X188958864Y-92462325D01*
X188802015Y-92698734D01*
X188798734Y-92702015D01*
X188562325Y-92858864D01*
X188553537Y-92860583D01*
X188546108Y-92855583D01*
X188545075Y-92853659D01*
X188328987Y-92340945D01*
X188328932Y-92331990D01*
X188331494Y-92328130D01*
X188428129Y-92231495D01*
X188436401Y-92228069D01*
X188440945Y-92228987D01*
G37*
%TD.AperFunction*%
%TD*%
%TA.AperFunction,Conductor*%
%TO.N,IO0*%
G36*
X124271605Y-96657487D02*
G01*
X124457799Y-96733268D01*
X124786947Y-96867233D01*
X124793318Y-96873526D01*
X124794236Y-96878070D01*
X124794236Y-97014729D01*
X124790809Y-97023002D01*
X124786947Y-97025566D01*
X124271605Y-97235312D01*
X124262650Y-97235257D01*
X124256357Y-97228886D01*
X124255728Y-97226803D01*
X124199469Y-96948718D01*
X124199469Y-96944080D01*
X124255727Y-96666001D01*
X124260726Y-96658575D01*
X124269514Y-96656856D01*
X124271605Y-96657487D01*
G37*
%TD.AperFunction*%
%TD*%
M02*
