M48
; DRILL file {KiCad 9.0.7} date 2026-04-13T20:33:23-0400
; FORMAT={-:-/ absolute / metric / decimal}
; #@! TF.CreationDate,2026-04-13T20:33:23-04:00
; #@! TF.GenerationSoftware,Kicad,Pcbnew,9.0.7
; #@! TF.FileFunction,Plated,1,2,PTH
FMAT,2
METRIC
; #@! TA.AperFunction,Plated,PTH,ViaDrill
T1C0.300
; #@! TA.AperFunction,Plated,PTH,ComponentDrill
T2C0.500
; #@! TA.AperFunction,Plated,PTH,ComponentDrill
T3C0.650
; #@! TA.AperFunction,Plated,PTH,ComponentDrill
T4C0.800
%
G90
G05
T1
X85.75Y-108.906
X90.0Y-82.25
X90.5Y-84.75
X92.0Y-82.25
X93.75Y-84.75
X94.0Y-82.25
X94.9Y-96.2
X95.75Y-84.75
X96.0Y-82.25
X97.75Y-84.75
X98.0Y-82.25
X99.75Y-84.75
X99.9Y-111.7
X100.0Y-82.25
X101.75Y-84.75
X102.0Y-82.25
X103.3Y-88.7
X103.7Y-105.2
X103.75Y-84.75
X104.0Y-82.25
X104.1Y-106.8
X104.2Y-101.6
X105.1Y-107.9
X105.75Y-84.75
X106.0Y-82.25
X107.75Y-84.75
X108.0Y-82.25
X109.75Y-84.75
X110.0Y-82.25
X111.75Y-84.75
X112.0Y-82.25
X112.1Y-90.2
X113.75Y-84.75
X114.0Y-82.25
X115.5Y-84.8
X115.5Y-87.0
X115.8Y-113.8
X116.0Y-82.25
X116.5Y-88.5
X116.7Y-113.8
X117.7Y-110.4
X117.9Y-107.8
X118.0Y-83.0
X118.5Y-84.5
X118.5Y-86.5
X119.8Y-107.8
X120.0Y-88.0
X120.8Y-101.0
X121.0Y-90.0
X121.4Y-107.2
X121.4Y-108.7
X121.4Y-110.55
X121.6Y-101.4
X122.4Y-101.7
X122.9Y-96.8
X123.0Y-98.1
X123.9Y-106.1
X123.9Y-107.4
X123.95Y-104.6
X124.0Y-98.675
X124.2Y-96.946
X125.3Y-103.7
X125.525Y-94.425
X125.6Y-113.0
X126.0Y-102.75
X126.1Y-104.3
X126.852Y-104.325
X127.662Y-104.234
X128.262Y-112.362
X128.3Y-113.5
X128.729Y-103.3
X129.345Y-103.731
X129.8Y-95.4
X129.829Y-103.09
X135.978Y-95.707
X136.474Y-96.691
X136.474Y-97.443
X136.6Y-93.05
X137.003Y-98.002
X137.15Y-98.75
X139.05Y-98.0
X141.9Y-98.5
X142.0Y-90.5
X144.1Y-111.771
X145.076Y-110.476
X146.5Y-107.8
X146.7Y-94.2
X146.72Y-96.7
X155.5Y-114.3
X155.6Y-106.171
X157.8Y-109.9
X165.45Y-106.15
X169.2Y-106.7
X176.2Y-112.5
X182.662Y-107.95
X183.8Y-105.7
X188.6Y-88.9
X188.8Y-92.7
X200.094Y-115.306
X207.25Y-89.65
X212.95Y-89.65
X213.4Y-109.1
T2
X186.975Y-112.75
X188.225Y-112.75
T3
X71.01Y-98.365
X71.01Y-99.635
X72.28Y-98.365
X72.28Y-99.635
X73.55Y-98.365
X73.55Y-99.635
T4
X88.95Y-113.25
X88.95Y-115.25
X90.95Y-113.25
X90.95Y-115.25
X194.8Y-112.0
X196.8Y-112.0
M30
