%TF.GenerationSoftware,KiCad,Pcbnew,9.0.7*%
%TF.CreationDate,2026-04-13T20:32:34-04:00*%
%TF.ProjectId,ESProbeScope3300,45535072-6f62-4655-9363-6f7065333330,rev?*%
%TF.SameCoordinates,Original*%
%TF.FileFunction,Profile,NP*%
%FSLAX46Y46*%
G04 Gerber Fmt 4.6, Leading zero omitted, Abs format (unit mm)*
G04 Created by KiCad (PCBNEW 9.0.7) date 2026-04-13 20:32:34*
%MOMM*%
%LPD*%
G01*
G04 APERTURE LIST*
%TA.AperFunction,Profile*%
%ADD10C,0.050000*%
%TD*%
G04 APERTURE END LIST*
D10*
X70000000Y-102000000D02*
X68939340Y-100939340D01*
X81000000Y-94250000D02*
X81000000Y-81000000D01*
X81000000Y-94250000D02*
X79250000Y-96000000D01*
X84500000Y-105250000D02*
G75*
G02*
X82500000Y-105250000I-1000000J0D01*
G01*
X82500000Y-105250000D02*
G75*
G02*
X84500000Y-105250000I1000000J0D01*
G01*
X79250000Y-96000000D02*
X70000000Y-96000000D01*
X79250000Y-102000000D02*
X70000000Y-102000000D01*
X112000000Y-91500000D02*
X117000000Y-91500000D01*
X117000000Y-103500000D01*
X112000000Y-103500000D01*
X112000000Y-91500000D01*
X219500000Y-83500000D02*
G75*
G02*
X217500000Y-83500000I-1000000J0D01*
G01*
X217500000Y-83500000D02*
G75*
G02*
X219500000Y-83500000I1000000J0D01*
G01*
X81000000Y-103750000D02*
X81000000Y-117000000D01*
X81000000Y-81000000D02*
X221000000Y-81000000D01*
X221000000Y-81000000D02*
X221000000Y-117000000D01*
X79250000Y-102000000D02*
X81000000Y-103750000D01*
X68939340Y-97060660D02*
X68939340Y-100939340D01*
X70000000Y-96000000D02*
X68939340Y-97060660D01*
X219500000Y-114500000D02*
G75*
G02*
X217500000Y-114500000I-1000000J0D01*
G01*
X217500000Y-114500000D02*
G75*
G02*
X219500000Y-114500000I1000000J0D01*
G01*
X84500000Y-92750000D02*
G75*
G02*
X82500000Y-92750000I-1000000J0D01*
G01*
X82500000Y-92750000D02*
G75*
G02*
X84500000Y-92750000I1000000J0D01*
G01*
X81000000Y-117000000D02*
X221000000Y-117000000D01*
M02*
